/* XPM */
static char * button_ok_32_xpm[] = {
"32 32 62 1",
" 	c None",
".	c #0B482A",
"+	c #16542D",
"@	c #0F4C2B",
"#	c #1E5E2E",
"$	c #4C9438",
"%	c #104D2B",
"&	c #256630",
"*	c #4E9639",
"=	c #2B6D31",
"-	c #4F9739",
";	c #1B5B2E",
">	c #246530",
",	c #2D6F32",
"'	c #509839",
")	c #1D5C2E",
"!	c #3A7F34",
"~	c #529B3A",
"{	c #23642F",
"]	c #2D6F31",
"^	c #20602F",
"/	c #0D4A2B",
"(	c #408636",
"_	c #529A3A",
":	c #21612F",
"<	c #286930",
"[	c #539C3A",
"}	c #458C37",
"|	c #509939",
"1	c #1C5C2E",
"2	c #337633",
"3	c #12502C",
"4	c #499138",
"5	c #18572D",
"6	c #18562D",
"7	c #4F9839",
"8	c #3F8435",
"9	c #0C492A",
"0	c #16542C",
"a	c #4D9539",
"b	c #4B9338",
"c	c #14512C",
"d	c #499038",
"e	c #104E2B",
"f	c #1A592D",
"g	c #0C482A",
"h	c #3C8135",
"i	c #19582D",
"j	c #3A7E34",
"k	c #2A6C31",
"l	c #266730",
"m	c #2C6E31",
"n	c #24642F",
"o	c #519939",
"p	c #357933",
"q	c #3B8035",
"r	c #468C37",
"s	c #448A37",
"t	c #0D4A2A",
"u	c #317533",
"v	c #1B5A2E",
"w	c #509A3A",
"                                ",
"                                ",
"                                ",
"                                ",
"                                ",
"                                ",
"                                ",
"                                ",
"                           ..   ",
"                          .+@   ",
"                         .#$%   ",
"                        .&*#.   ",
"      .                .=-;.    ",
"    .&>.              .,').     ",
"    .!~{.            .]~^.      ",
"     /(_:           .<[<.       ",
"      %}|1         .:~2.        ",
"       34*5        6789         ",
"        0abc      %d4e          ",
"         f7}@    gh|i.          ",
"          ^~j.  .k[l.           ",
"          .m[n  6op.            ",
"           .q$e/rst             ",
"            %d6uac              ",
"             %vw#.              ",
"             .@^.               ",
"              ..                ",
"                                ",
"                                ",
"                                ",
"                                ",
"                                "};
