/* XPM */
static char * button_cancel_32_xpm[] = {
"32 32 37 1",
" 	c None",
".	c #CE0000",
"+	c #CD0000",
"@	c #D30000",
"#	c #DD0000",
"$	c #DC0000",
"%	c #DE0000",
"&	c #DB0000",
"*	c #E90000",
"=	c #D20000",
"-	c #E10000",
";	c #D60000",
">	c #EB0000",
",	c #E60000",
"'	c #D80000",
")	c #CF0000",
"!	c #D40000",
"~	c #ED0000",
"{	c #D10000",
"]	c #D90000",
"^	c #DF0000",
"/	c #EA0000",
"(	c #E40000",
"_	c #E50000",
":	c #E20000",
"<	c #D00000",
"[	c #EE0000",
"}	c #F10000",
"|	c #F30000",
"1	c #F40000",
"2	c #F20000",
"3	c #E00000",
"4	c #D50000",
"5	c #E70000",
"6	c #DA0000",
"7	c #D70000",
"8	c #EF0000",
"                                ",
"                                ",
"                                ",
"                                ",
"      .+                        ",
"     +@#+                 +..   ",
"      +$%+              +.&*=   ",
"       +-&+            +;>%.+   ",
"        +,'+          ),,)+     ",
"         .*!+       +!~'+       ",
"          )>{      +]~{+        ",
"           {*.    .^/)          ",
"           +@(+  ._,.           ",
"            +!%+.>:+            ",
"             +=<[^.             ",
"              {}#+              ",
"            +{|$)=              ",
"            =1$+.')             ",
"           {1$+  +].            ",
"          {1%+    )'+           ",
"         )23+      =4+          ",
"        .~(+       +;{          ",
"       +5*+         +6.         ",
"      +%[.           .6.        ",
"     +;})             @7+       ",
"     )8=              +'=       ",
"    +_;+               +7.      ",
"    +.+                 +       ",
"                                ",
"                                ",
"                                ",
"                                "};
