/* XPM */
static char * catbar_32_xpm[] = {
"32 32 143 2",
"  	c None",
". 	c #070707",
"+ 	c #FF0505",
"@ 	c #FF0F0F",
"# 	c #FF1919",
"$ 	c #FF2323",
"% 	c #FF2D2D",
"& 	c #FF3737",
"* 	c #FF4242",
"= 	c #FF4C4C",
"- 	c #FF5656",
"; 	c #FF6060",
"> 	c #FF6A6A",
", 	c #FF7575",
"' 	c #FF7F7F",
") 	c #FF8888",
"! 	c #FF8B8B",
"~ 	c #111111",
"{ 	c #1C1C1C",
"] 	c #1B1B1B",
"^ 	c #262626",
"/ 	c #252525",
"( 	c #313131",
"_ 	c #2F2F2F",
": 	c #FF4646",
"< 	c #FF5151",
"[ 	c #FF5B5B",
"} 	c #FF6666",
"| 	c #FF7070",
"1 	c #3B3B3B",
"2 	c #393939",
"3 	c #FF0202",
"4 	c #FF0B0B",
"5 	c #FF1515",
"6 	c #FF1F1F",
"7 	c #FF2929",
"8 	c #FF3434",
"9 	c #FF3F3F",
"0 	c #FF4949",
"a 	c #FF5353",
"b 	c #FF5D5D",
"c 	c #FF6868",
"d 	c #FF7272",
"e 	c #FF7D7D",
"f 	c #FF8787",
"g 	c #FF9393",
"h 	c #FF9D9D",
"i 	c #FFA6A6",
"j 	c #CE8C8C",
"k 	c #454545",
"l 	c #434343",
"m 	c #FF0808",
"n 	c #FF1212",
"o 	c #FF1C1C",
"p 	c #FF9C9C",
"q 	c #FFA5A5",
"r 	c #B98282",
"s 	c #4F4F4F",
"t 	c #4D4D4D",
"u 	c #595959",
"v 	c #575757",
"w 	c #646464",
"x 	c #616161",
"y 	c #FF0707",
"z 	c #FF1111",
"A 	c #FF2626",
"B 	c #FF3030",
"C 	c #FF3A3A",
"D 	c #FF4444",
"E 	c #FF4E4E",
"F 	c #FF5959",
"G 	c #FF6363",
"H 	c #FF6D6D",
"I 	c #FF7777",
"J 	c #FF8282",
"K 	c #FF8D8D",
"L 	c #FF9494",
"M 	c #FF9595",
"N 	c #6F6F6F",
"O 	c #6E6E6E",
"P 	c #FF1B1B",
"Q 	c #FF2525",
"R 	c #FF2F2F",
"S 	c #FF5858",
"T 	c #FF6262",
"U 	c #FF8181",
"V 	c #797979",
"W 	c #838383",
"X 	c #8E8E8E",
"Y 	c #8D8D8D",
"Z 	c #FF4A4A",
"` 	c #FF5454",
" .	c #FF5F5F",
"..	c #FF6969",
"+.	c #FF7474",
"@.	c #FF9292",
"#.	c #989898",
"$.	c #979797",
"%.	c #FF1616",
"&.	c #FF2020",
"*.	c #FF2A2A",
"=.	c #FF4040",
"-.	c #FF4B4B",
";.	c #FF5555",
">.	c #FF8080",
",.	c #FF8A8A",
"'.	c #FF9F9F",
").	c #FFA0A0",
"!.	c #A2A2A2",
"~.	c #A1A1A1",
"{.	c #ACACAC",
"].	c #B6B6B6",
"^.	c #B7B7B7",
"/.	c #C0C0C0",
"(.	c #C1C1C1",
"_.	c #FF0909",
":.	c #FF1313",
"<.	c #FF1D1D",
"[.	c #FF3E3E",
"}.	c #FF4848",
"|.	c #FF5252",
"1.	c #FF8989",
"2.	c #FF9898",
"3.	c #CBCBCB",
"4.	c #FF2828",
"5.	c #FF3232",
"6.	c #FF3D3D",
"7.	c #FF5C5C",
"8.	c #FF6F6F",
"9.	c #FF7A7A",
"0.	c #D5D5D5",
"a.	c #DFDFDF",
"b.	c #E9E9E9",
"c.	c #FF1A1A",
"d.	c #FF6C6C",
"e.	c #FF7878",
"f.	c #F3F3F3",
"g.	c #FF0606",
"h.	c #FF3939",
"i.	c #FBFBFB",
"j.	c #F5F5F5",
"k.	c #EBEBEB",
"l.	c #E5E5E5",
"                                                                ",
"                                                                ",
"                                      . .                       ",
"    + @ # $ % & * = - ; > , ' ) !     ~ ~                       ",
"    + @ # $ % & * = - ; > , ' ) !     { ]                       ",
"                                      ^ /                       ",
"                                      ( _                       ",
"                : < [ } |             1 2                       ",
"  3 4 5 6 7 8 9 0 a b c d e f g h i j k l                       ",
"    m n o                       p q r s t                       ",
"                                      u v                       ",
"                                      w x                       ",
"    y z o A B C D E F G H I J K L M   N O                       ",
"    y z P Q R C D E S T H I U ! g     V V                       ",
"                                      W W                       ",
"                                      X Y                       ",
"                Z `  ...+.e ) @.p     #.$.                      ",
"  3 4 %.&.*.8 =.-.;.; > , >.,.M '.).  !.~.                      ",
"                                      {.{.                      ",
"                                      ].^.                      ",
"                                      /.(.                      ",
"  3 _.:.<.7 8 [.}.|.b c +.' 1.g 2.    3.3.                      ",
"  3 _.:.<.4.5.6.}.|.7.} 8.9.          0.0.                      ",
"                                      a.a.                      ",
"                                      b.b.                      ",
"      @ c.$ % & * = - T d.e.U ! M 2.  f.f.                      ",
"    g.z P Q R h.D E S G H I U ! M 2.  i.i.                      ",
"                                      j.j.                      ",
"                                      k.k.                      ",
"                                      l.l.                      ",
"                                                                ",
"                                                                "};
