/* XPM */
static char * configure32_xpm[] = {
"32 32 212 2",
"  	c None",
". 	c #1C6772",
"+ 	c #1E6B76",
"@ 	c #1B6772",
"# 	c #267580",
"$ 	c #3C9AA2",
"% 	c #3E9EA6",
"& 	c #3B99A1",
"* 	c #2E848E",
"= 	c #1E6A75",
"- 	c #1B6671",
"; 	c #4198A1",
"> 	c #48A4AC",
", 	c #44A1A9",
"' 	c #3F9FA7",
") 	c #39969F",
"! 	c #22717B",
"~ 	c #368690",
"{ 	c #54AAB3",
"] 	c #4EA7B0",
"^ 	c #49A4AC",
"/ 	c #42A0A8",
"( 	c #3A99A1",
"_ 	c #409099",
": 	c #59AEB6",
"< 	c #53AAB2",
"[ 	c #4CA6AE",
"} 	c #2F858E",
"| 	c #429099",
"1 	c #5DAFB8",
"2 	c #55ABB3",
"3 	c #3C9BA3",
"4 	c #1D6873",
"5 	c #1C6672",
"6 	c #1B6672",
"7 	c #48969F",
"8 	c #5DB0B8",
"9 	c #4AA5AD",
"0 	c #41A0A8",
"a 	c #206E79",
"b 	c #428993",
"c 	c #7EBDC7",
"d 	c #438893",
"e 	c #45909A",
"f 	c #64B4BC",
"g 	c #5BAEB7",
"h 	c #51A9B1",
"i 	c #439EA7",
"j 	c #206A75",
"k 	c #8ECAD3",
"l 	c #9BD4DD",
"m 	c #9ED4DE",
"n 	c #4F929C",
"o 	c #478F99",
"p 	c #75BDC6",
"q 	c #6BB8C0",
"r 	c #60B2BA",
"s 	c #56ACB4",
"t 	c #30818B",
"u 	c #317984",
"v 	c #9FD6DF",
"w 	c #A6DAE3",
"x 	c #ABDDE6",
"y 	c #AADCE6",
"z 	c #52949E",
"A 	c #4D929D",
"B 	c #84C6CF",
"C 	c #7AC0C9",
"D 	c #6FBAC3",
"E 	c #65B4BD",
"F 	c #4B9CA6",
"G 	c #2F7781",
"H 	c #B0DFE9",
"I 	c #B7E4ED",
"J 	c #B8E4EE",
"K 	c #6BA8B2",
"L 	c #60A0AB",
"M 	c #93CED8",
"N 	c #88C9D2",
"O 	c #7DC2CB",
"P 	c #72BCC5",
"Q 	c #67B6BE",
"R 	c #408F98",
"S 	c #91C7D1",
"T 	c #B4E2EC",
"U 	c #BFE8F2",
"V 	c #C1E9F3",
"W 	c #B7E3ED",
"X 	c #ACDDE7",
"Y 	c #A0D7E0",
"Z 	c #95D0D9",
"` 	c #8ACAD3",
" .	c #7FC3CC",
"..	c #74BDC6",
"+.	c #68B6BF",
"@.	c #5CAEB7",
"#.	c #2F7E88",
"$.	c #478A95",
"%.	c #B0E0EA",
"&.	c #B9E5EE",
"*.	c #BAE5EF",
"=.	c #B3E1EB",
"-.	c #A9DCE5",
";.	c #94CFD9",
">.	c #89C9D2",
",.	c #7EC2CC",
"'.	c #73BCC5",
").	c #68B6BE",
"!.	c #5CAFB8",
"~.	c #51A8B0",
"{.	c #5C7563",
"].	c #C35E0D",
"^.	c #68A6B0",
"/.	c #ADDEE7",
"(.	c #ADDEE8",
"_.	c #A2D8E1",
":.	c #99D2DC",
"<.	c #8FCDD6",
"[.	c #83C5CE",
"}.	c #74BAC4",
"|.	c #70BBC3",
"1.	c #5AAEB6",
"2.	c #719585",
"3.	c #CF6A17",
"4.	c #DE8530",
"5.	c #D05D06",
"6.	c #5B9BA5",
"7.	c #9AD1DB",
"8.	c #9ED5DF",
"9.	c #98D2DB",
"0.	c #91CED7",
"a.	c #75B7C0",
"b.	c #2D7681",
"c.	c #28727D",
"d.	c #62AEB7",
"e.	c #61B2BA",
"f.	c #729B8F",
"g.	c #CC6917",
"h.	c #EFB45C",
"i.	c #F5C671",
"j.	c #E28F3B",
"k.	c #236D78",
"l.	c #3B818C",
"m.	c #3E858F",
"n.	c #337B85",
"o.	c #1D6773",
"p.	c #27727D",
"q.	c #6A9990",
"r.	c #C96818",
"s.	c #EDAD4F",
"t.	c #F5C267",
"u.	c #F5C46B",
"v.	c #E49440",
"w.	c #AA5F1D",
"x.	c #E39132",
"y.	c #F4BF5B",
"z.	c #F4C061",
"A.	c #F5C266",
"B.	c #F5C670",
"C.	c #E59945",
"D.	c #D05E07",
"E.	c #D16009",
"F.	c #E89F3E",
"G.	c #F4BE5B",
"H.	c #F4C060",
"I.	c #F5C46A",
"J.	c #E79E49",
"K.	c #D15E08",
"L.	c #D15F08",
"M.	c #E69A39",
"N.	c #F4BE5A",
"O.	c #F4C265",
"P.	c #F5C56F",
"Q.	c #E9A24D",
"R.	c #E49435",
"S.	c #F4C05F",
"T.	c #F4C264",
"U.	c #F5C36A",
"V.	c #EAA652",
"W.	c #D1610A",
"X.	c #E28F2F",
"Y.	c #F4C164",
"Z.	c #F5C369",
"`.	c #F5C56E",
" +	c #EBAA55",
".+	c #D2620C",
"++	c #E0882B",
"@+	c #F4BD59",
"#+	c #F4BF5E",
"$+	c #F4C163",
"%+	c #F5C368",
"&+	c #EDAE59",
"*+	c #D2640D",
"=+	c #DE8326",
"-+	c #F3BC58",
";+	c #F5C56D",
">+	c #EEB15C",
",+	c #D3660F",
"'+	c #DC7E22",
")+	c #F3BB56",
"!+	c #F4BF5D",
"~+	c #F4C162",
"{+	c #F5C367",
"]+	c #F4C169",
"^+	c #D8721C",
"/+	c #DA791E",
"(+	c #F2BA54",
"_+	c #F3BF60",
":+	c #DB7C24",
"<+	c #D9751A",
"[+	c #F1B652",
"}+	c #DC7F24",
"                                                                ",
"                                                                ",
"                                                                ",
"                      . + @                                     ",
"                    # $ % & * =                                 ",
"                  - ; > , ' % ) !                               ",
"                    ~ { ] ^ / % ( +                             ",
"                    - _ : < [ , % }                             ",
"                      . | 1 2 [ , 3 4                           ",
"          5             6 7 8 { 9 0 a                           ",
"        b c d           - e f g h i 4                           ",
"      j k l m n         o p q r s t                             ",
"      u v w x y z     A B C D E F .                             ",
"      G w H I J H K L M N O P Q R                               ",
"      . S T U V W X Y Z `  ...+.@.#.                            ",
"        $.%.&.*.=.-.v ;.>.,.'.).!.~.{.].                        ",
"        - ^./.(.-._.:.<.[.}.|.E 1.2.3.4.5.                      ",
"          . 6.7.8.9.0.a.b.c.d.e.f.g.h.i.j.5.                    ",
"              k.l.m.n.o.    p.q.r.s.t.u.i.v.5.                  ",
"                              w.x.y.z.A.u.B.C.D.                ",
"                                E.F.G.H.A.I.B.J.K.              ",
"                                  L.M.N.H.O.I.P.Q.E.            ",
"                                    D.R.N.S.T.U.P.V.W.          ",
"                                      5.X.N.S.Y.Z.`. +.+        ",
"                                        5.++@+#+$+%+`.&+*+      ",
"                                          5.=+-+#+$+%+;+>+,+    ",
"                                            5.'+)+!+~+{+]+^+    ",
"                                                /+(+!+_+:+5.    ",
"                                                  <+[+}+5.      ",
"                                                    E.5.        ",
"                                                                ",
"                                                                "};
