/* XPM */
static char * documents_2_0_32_xpm[] = {
"32 32 348 2",
"  	c None",
". 	c #47B1C2",
"+ 	c #3FADBF",
"@ 	c #63BDCB",
"# 	c #9CD0DA",
"$ 	c #CEE3E8",
"% 	c #86C8D3",
"& 	c #5BBDCA",
"* 	c #3FAFC0",
"= 	c #48B1C3",
"- 	c #80C8D4",
"; 	c #BADBE3",
"> 	c #D4E6EB",
", 	c #D7EAEE",
"' 	c #D9ECEF",
") 	c #C7E4E9",
"! 	c #69C3D0",
"~ 	c #91D8E0",
"{ 	c #6EC6D2",
"] 	c #47B3C2",
"^ 	c #30A7BA",
"/ 	c #64BDCC",
"( 	c #9DD1DB",
"_ 	c #D3E6EB",
": 	c #E0F1F4",
"< 	c #DEF0F3",
"[ 	c #DDEFF2",
"} 	c #DBEDF0",
"| 	c #D9EBEF",
"1 	c #74C4D0",
"2 	c #9DDFE5",
"3 	c #87D3DC",
"4 	c #5FBECC",
"5 	c #66BCCA",
"6 	c #2C91A7",
"7 	c #64BCCB",
"8 	c #BDDDE4",
"9 	c #D9EAEE",
"0 	c #E1F3F5",
"a 	c #E5F6F8",
"b 	c #E4F4F7",
"c 	c #E2F3F5",
"d 	c #DEEFF2",
"e 	c #DCEEF1",
"f 	c #DAECF0",
"g 	c #AEDAE1",
"h 	c #66BFCC",
"i 	c #81C7D2",
"j 	c #9FD2DB",
"k 	c #93CCD8",
"l 	c #51B0C1",
"m 	c #64B8C7",
"n 	c #85C9D4",
"o 	c #87C7D3",
"p 	c #32A8BA",
"q 	c #60BAC9",
"r 	c #E9F8FA",
"s 	c #E8F8F9",
"t 	c #E7F7F8",
"u 	c #E6F6F8",
"v 	c #E3F4F6",
"w 	c #E1F2F5",
"x 	c #DFF0F3",
"y 	c #BCE1E8",
"z 	c #99D2DC",
"A 	c #88CBD6",
"B 	c #8DCDD8",
"C 	c #93CED9",
"D 	c #A9D5DE",
"E 	c #C5E0E7",
"F 	c #D1E5EB",
"G 	c #CDE2E8",
"H 	c #D2E6EB",
"I 	c #D1E7EC",
"J 	c #61BFCD",
"K 	c #57BBC9",
"L 	c #BCDEE5",
"M 	c #EBFAFB",
"N 	c #EAFAFB",
"O 	c #E2F3F6",
"P 	c #84CAD6",
"Q 	c #C8E2E8",
"R 	c #DAEBEF",
"S 	c #D8EBEE",
"T 	c #DDEEF2",
"U 	c #E1F2F4",
"V 	c #DBEDF1",
"W 	c #72C4D1",
"X 	c #9EDEE5",
"Y 	c #73C8D4",
"Z 	c #3BACBE",
"` 	c #7BC2D0",
" .	c #E8F9FA",
"..	c #ECFCFC",
"+.	c #99D3DC",
"@.	c #CAE5EA",
"#.	c #E6F7F8",
"$.	c #E7F7F9",
"%.	c #E5F6F7",
"&.	c #E0F2F4",
"*.	c #D8EAEE",
"=.	c #7DC7D3",
"-.	c #A7E3E9",
";.	c #87D2DC",
">.	c #63C0CD",
",.	c #36A9BB",
"'.	c #D6EBEF",
").	c #EDFDFD",
"!.	c #EBFBFB",
"~.	c #E8F8FA",
"{.	c #E4F5F7",
"].	c #B5DFE6",
"^.	c #ADD8E0",
"/.	c #E9FAFA",
"(.	c #E9F9FA",
"_.	c #E5F5F7",
":.	c #DAEDF1",
"<.	c #B1DBE2",
"[.	c #7CC5D1",
"}.	c #97CED8",
"|.	c #B3D7E0",
"1.	c #A5D1DB",
"2.	c #24839C",
"3.	c #9BCFDA",
"4.	c #E2F2F5",
"5.	c #D2EBEF",
"6.	c #8FCAD5",
"7.	c #EBFBFC",
"8.	c #BFE4EA",
"9.	c #87CCD7",
"0.	c #92D0DB",
"a.	c #91CFDA",
"b.	c #90CFDA",
"c.	c #90CED9",
"d.	c #8FCDD8",
"e.	c #8ECCD8",
"f.	c #89CAD6",
"g.	c #5EB3C4",
"h.	c #71C2D0",
"i.	c #38AABD",
"j.	c #62BAC9",
"k.	c #DFF1F3",
"l.	c #86C9D4",
"m.	c #EEFDFE",
"n.	c #B8E2E8",
"o.	c #ABD4DD",
"p.	c #D1E5EA",
"q.	c #D3E7EB",
"r.	c #D5E8EC",
"s.	c #D4E7EC",
"t.	c #D0E4E9",
"u.	c #CAE0E6",
"v.	c #CADFE5",
"w.	c #55B7C6",
"x.	c #34A9BB",
"y.	c #BDDEE5",
"z.	c #8ACDD8",
"A.	c #EEFDFD",
"B.	c #E7F8F9",
"C.	c #AED7DF",
"D.	c #D5E8ED",
"E.	c #73C7D3",
"F.	c #7DCED7",
"G.	c #33A8BB",
"H.	c #7CC3D0",
"I.	c #96D2DB",
"J.	c #CEE7EC",
"K.	c #AED7E0",
"L.	c #E2F4F6",
"M.	c #78C9D4",
"N.	c #A9E4E9",
"O.	c #73C9D4",
"P.	c #32A8BB",
"Q.	c #49B2C3",
"R.	c #D2E7EC",
"S.	c #E5F5F8",
"T.	c #B1DCE4",
"U.	c #AED8E0",
"V.	c #B7E1E7",
"W.	c #AFD8E0",
"X.	c #D8EBEF",
"Y.	c #6AC2CE",
"Z.	c #82D1DA",
"`.	c #4DB5C4",
" +	c #2FA6B9",
".+	c #9BCFD9",
"++	c #E3F3F6",
"@+	c #CDE7EC",
"#+	c #90CAD6",
"$+	c #B6E0E7",
"%+	c #D9ECF0",
"&+	c #C2DEE5",
"*+	c #B5D7E0",
"=+	c #B1D4DC",
"-+	c #ADD0DA",
";+	c #3292A8",
">+	c #63BBCA",
",+	c #DCEDF1",
"'+	c #85C7D3",
")+	c #E4F5F6",
"!+	c #CBDFE6",
"~+	c #C7DBE2",
"{+	c #C1D7DF",
"]+	c #338FA6",
"^+	c #BADCE3",
"/+	c #D6E9ED",
"(+	c #B4DEE5",
"_+	c #E4F4F6",
":+	c #D3E7EC",
"<+	c #CFE3E9",
"[+	c #C6DBE2",
"}+	c #91CED8",
"|+	c #C9E3E8",
"1+	c #DFF1F4",
"2+	c #DEF0F2",
"3+	c #B2DDE4",
"4+	c #CEE2E8",
"5+	c #CADEE5",
"6+	c #C6DBE1",
"7+	c #4AB2C3",
"8+	c #CCE2E8",
"9+	c #DAECEF",
"0+	c #D6E9EE",
"a+	c #AAD7E0",
"b+	c #ACD6DF",
"c+	c #DCEEF2",
"d+	c #B1DCE3",
"e+	c #CCE1E7",
"f+	c #C6DAE1",
"g+	c #C1D6DE",
"h+	c #338FA5",
"i+	c #9ACED8",
"j+	c #D5E9ED",
"k+	c #D4E8EC",
"l+	c #C4E0E7",
"m+	c #AFDAE2",
"n+	c #ADD7DF",
"o+	c #D2E5EA",
"p+	c #CBE0E6",
"q+	c #C9DDE4",
"r+	c #C5DAE1",
"s+	c #C0D6DE",
"t+	c #328EA5",
"u+	c #64BBCA",
"v+	c #83C6D2",
"w+	c #D7E9EE",
"x+	c #AED9E1",
"y+	c #ADD6DF",
"z+	c #DAEDF0",
"A+	c #C8DCE3",
"B+	c #C4D9E0",
"C+	c #BFD5DD",
"D+	c #B7D8E0",
"E+	c #D0E5EA",
"F+	c #85C8D4",
"G+	c #ACD7E0",
"H+	c #ACD5DE",
"I+	c #CFE3E8",
"J+	c #C9DEE5",
"K+	c #C3D8DF",
"L+	c #BED5DD",
"M+	c #7DC3D0",
"N+	c #CEE2E9",
"O+	c #8BC9D5",
"P+	c #C4DEE4",
"Q+	c #D2E6EA",
"R+	c #AAD6DE",
"S+	c #D1E4EA",
"T+	c #CDE1E7",
"U+	c #C8DDE4",
"V+	c #C4DAE1",
"W+	c #BDD4DC",
"X+	c #4BB2C3",
"Y+	c #C6DDE4",
"Z+	c #CFE2E9",
"`+	c #CEE1E8",
" @	c #CCE0E7",
".@	c #A1D0DA",
"+@	c #A7D2DC",
"@@	c #A7D3DC",
"#@	c #AAD3DD",
"$@	c #C7DCE3",
"%@	c #C1D8E0",
"&@	c #BCD3DB",
"*@	c #99CCD7",
"=@	c #B6D8E0",
"-@	c #7DC1CE",
";@	c #46A3B6",
">@	c #80C1CE",
",@	c #A7D3DD",
"'@	c #AAD3DC",
")@	c #D1E4E9",
"!@	c #C9DEE4",
"~@	c #C5DBE2",
"{@	c #BFD6DE",
"]@	c #BBD2DA",
"^@	c #56B5C5",
"/@	c #5DB1C1",
"(@	c #3793A9",
"_@	c #297B95",
":@	c #6FBDCB",
"<@	c #A9D2DB",
"[@	c #C8DEE4",
"}@	c #C4DBE2",
"|@	c #C0D7DF",
"1@	c #BDD4DD",
"2@	c #BAD1DA",
"3@	c #58B8C7",
"4@	c #C5DAE2",
"5@	c #A1CFD9",
"6@	c #A6D1DA",
"7@	c #CADFE6",
"8@	c #CCE1E6",
"9@	c #C7DBE3",
"0@	c #C2D8DF",
"a@	c #BBD2DB",
"b@	c #6DB8C7",
"c@	c #54A8BB",
"d@	c #379AB0",
"e@	c #9DCBD6",
"f@	c #C6DCE3",
"g@	c #C3D9E0",
"h@	c #A4CFD9",
"i@	c #C8DDE3",
"j@	c #C7DCE2",
"k@	c #A3CFD9",
"l@	c #C3D8E0",
"m@	c #8EC7D3",
"n@	c #A9CED9",
"o@	c #AACFD9",
"p@	c #AAD0D9",
"q@	c #A9CFD9",
"r@	c #A8CED8",
"s@	c #A6CDD7",
"t@	c #A4CBD6",
"u@	c #A3CAD5",
"v@	c #A2CAD5",
"w@	c #308DA5",
"x@	c #1F809A",
"y@	c #1E7B95",
"z@	c #207C96",
"A@	c #217D97",
"B@	c #207C97",
"C@	c #1F7B96",
"D@	c #1D7A95",
"E@	c #1B7893",
"F@	c #197692",
"G@	c #136C8A",
"                  . +                                           ",
"              @ # $ % & *                                       ",
"        = - ; > , ' ) ! ~ { ] ^                                 ",
"    / ( _ , : < [ } | 1 2 3 4 5 6                               ",
"7 8 9 0 a b c : d e f g h i j k l m n o p                       ",
"q e r s t u v w x y z A B C D E F G H I J K                     ",
"  L M N s t a O : P Q R S T O U < V ' , W X Y Z                 ",
"  `  ...N s u v U +.@.#.$.#.%.v &.[ f *.=.-.;.>.,.              ",
"  = '.).!.~.t {.w ].^. ./.(.$._.c x :.' <.[.}.|.1.2.            ",
"    3.).!.r t {.4.5.6.N ..7.(.u 8.9.0.a.b.c.d.e.f.g.h.i.        ",
"    j.k.N s #.{.4.x l.{.m.).N $.n.o.p.q.r.r.s.H t.u.v.w.x.      ",
"      y.(.$.u v w < z.T A.).N B.n.C.T : O v 4.< } D.p.E.F.G.    ",
"      H.v #._.O : d I.J.7.7.(.#.n.K.< L.a u {.U e , H M.N.O.P.  ",
"      Q.R.S.v w x [ T.U.(.(.B.u V.W.&.{.~.(.#.O [ X.H Y.Z.O.`. +",
"        .+++w : d T @+#+#.#.u b $+W.w u M .. .v < %+H &+*+=+-+;+",
"        >+, : d [ ,+f '+< {.v c ].W.w #...m.(.)+x f _ t.!+~+{+]+",
"          ^+d [ e f S A /+c w : (+W.w u M .. ._+< %+:+<+!+[+{+]+",
"          H.%+V f X., }+|+1+x 2+3+K.: {.~.(.t O d | _ 4+5+6+{+]+",
"          7+8+9+S , 0+a+b+c+c+V d+C.x ++u #.{.&.c+*._ e+5+f+g+h+",
"            i+*., j+k+l+6.f f ' m+n+[ &.v v c < } /+o+p+q+r+s+t+",
"            u+<+D.:+H p.v+s.*.w+x+y+z+d : : x c+| r.t.v.A+B+C+t+",
"              D+q.H E+t.F+4+D.r.G+H+X.V T [ e f w+_ I+J+[+K+L+t+",
"              M+<+t.<+N+O+P+_ Q+R+o./+X.f f | , s.S+T+U+V+{+W+t+",
"              X+Y+Z+`+ @.@+@<+4+@@#@_ D.w+, /+s.o+I+p+$@%@s+&@t+",
"                *@T+=@-@;@>@T+G ,@'@)@_ s.s._ o+<+T+!@~@{@L+]@t+",
"                ^@/@(@_@  :@5+ @1.<@4+t.S+)@t.4+p+[@}@|@1@W+2@t+",
"                          3@4@q+5@6@7@p+e+8@p+v.U+9@r+0@C+a@2@t+",
"                            b@c@d@e@f@U+5+!+!+5+A+[+g@s+W+2@2@t+",
"                                  h@~+A+i@i@A+j@[+g@g+L+a@2@2@t+",
"                                  k@B+r+[+[+f+V+l@g+C+&@2@2@2@t+",
"                                  m@n@o@p@p@p@q@r@s@t@u@v@v@v@w@",
"                                  x@y@z@A@A@B@C@D@E@F@F@F@F@F@G@"};
