/* XPM */
static char * find32_xpm[] = {
"32 32 341 2",
"  	c None",
". 	c #83B2D1",
"+ 	c #6DA2BC",
"@ 	c #418294",
"# 	c #418490",
"$ 	c #52929D",
"% 	c #5998A3",
"& 	c #52939D",
"* 	c #418491",
"= 	c #3F8192",
"- 	c #699EB8",
"; 	c #D05D06",
"> 	c #80AFCD",
", 	c #3D7F8E",
"' 	c #6AA5B0",
") 	c #A6D6DF",
"! 	c #AFDFE9",
"~ 	c #A6DAE3",
"{ 	c #A1D7E0",
"] 	c #A1D7E1",
"^ 	c #AADCE6",
"/ 	c #A5D6E0",
"( 	c #6DA8B2",
"_ 	c #3B7E8D",
": 	c #7AABC8",
"< 	c #D66C0A",
"[ 	c #D05E06",
"} 	c #D16007",
"| 	c #6CA0BB",
"1 	c #488A95",
"2 	c #A9D8E2",
"3 	c #9CD4DD",
"4 	c #95D0D9",
"5 	c #91CED7",
"6 	c #8BCAD3",
"7 	c #83C6CF",
"8 	c #7AC0C9",
"9 	c #7DC2CB",
"0 	c #98D1DB",
"a 	c #A6D7E1",
"b 	c #4C8D98",
"c 	c #649BB4",
"d 	c #D26308",
"e 	c #DE800F",
"f 	c #EA9D17",
"g 	c #E69315",
"h 	c #D26107",
"i 	c #72A5C0",
"j 	c #4D8D99",
"k 	c #B3E0EA",
"l 	c #A2D7E1",
"m 	c #9FD6DF",
"n 	c #94CFD9",
"o 	c #81C4CD",
"p 	c #76BEC7",
"q 	c #6BB8C0",
"r 	c #79C0C8",
"s 	c #ABDCE6",
"t 	c #51919D",
"u 	c #699EB9",
"v 	c #D36408",
"w 	c #E89816",
"x 	c #EFA81A",
"y 	c #EEA61A",
"z 	c #E18611",
"A 	c #D15F07",
"B 	c #3D818D",
"C 	c #B1DEE8",
"D 	c #A9DCE5",
"E 	c #AEDEE8",
"F 	c #ACDDE7",
"G 	c #9CD4DE",
"H 	c #92CED7",
"I 	c #86C8D1",
"J 	c #7BC1CA",
"K 	c #6FBAC3",
"L 	c #63B3BB",
"M 	c #6CB9C1",
"N 	c #ABDBE5",
"O 	c #3F818D",
"P 	c #E58F13",
"Q 	c #D76F0B",
"R 	c #4F8CA0",
"S 	c #91C3CE",
"T 	c #A3D8E1",
"U 	c #A8DBE4",
"V 	c #B2E1EB",
"W 	c #B9E5EF",
"X 	c #B7E3ED",
"Y 	c #ADDEE8",
"Z 	c #A2D8E1",
"` 	c #96D1DA",
" .	c #8ACAD3",
"..	c #7EC2CC",
"+.	c #71BCC4",
"@.	c #65B4BD",
"#.	c #59ADB5",
"$.	c #7AC1CA",
"%.	c #94C8D2",
"&.	c #478699",
"*.	c #DB780D",
"=.	c #DD7D0F",
"-.	c #D8720B",
";.	c #D46709",
">.	c #458793",
",.	c #B5E3EC",
"'.	c #92CED8",
").	c #9ED5DF",
"!.	c #C2EAF4",
"~.	c #BDE7F1",
"{.	c #B0E0EA",
"].	c #A4D9E2",
"^.	c #98D2DB",
"/.	c #7FC3CC",
"(.	c #72BCC5",
"_.	c #66B5BD",
":.	c #5AAEB6",
"<.	c #4FA8B0",
"[.	c #A5D9E3",
"}.	c #4A8B97",
"|.	c #6BA0BA",
"1.	c #75ADB7",
"2.	c #A0D6E0",
"3.	c #91CDD7",
"4.	c #9DD4DE",
"5.	c #A8DBE5",
"6.	c #B3E1EB",
"7.	c #BAE6EF",
"8.	c #B8E4EE",
"9.	c #7EC3CC",
"0.	c #72BCC4",
"a.	c #59ADB6",
"b.	c #4CA6AE",
"c.	c #7AB2BD",
"d.	c #6199B1",
"e.	c #5690A7",
"f.	c #96C8D2",
"g.	c #8FCCD6",
"h.	c #8DCBD4",
"i.	c #A7DAE4",
"j.	c #9DD5DE",
"k.	c #87C8D1",
"l.	c #63B3BC",
"m.	c #57ACB5",
"n.	c #4BA5AD",
"o.	c #5DB0B8",
"p.	c #99CBD5",
"q.	c #4E8B9F",
"r.	c #4A889C",
"s.	c #A7D4DE",
"t.	c #9AD3DC",
"u.	c #A3D8E2",
"v.	c #8CCBD4",
"w.	c #82C5CE",
"x.	c #77BEC7",
"y.	c #60B1BA",
"z.	c #54AAB3",
"A.	c #48A4AC",
"B.	c #4EA7AF",
"C.	c #A8D8E1",
"D.	c #428395",
"E.	c #4A899C",
"F.	c #80C4CD",
"G.	c #88C9D2",
"H.	c #90CDD6",
"I.	c #97D1DB",
"J.	c #84C6CF",
"K.	c #71BBC4",
"L.	c #5BAEB7",
"M.	c #50A8B0",
"N.	c #44A1A9",
"O.	c #4DA6AF",
"P.	c #7FC4CD",
"Q.	c #77BFC8",
"R.	c #85C7D0",
"S.	c #89C9D2",
"T.	c #8BCAD4",
"U.	c #73BCC5",
"V.	c #6AB7BF",
"W.	c #55ABB3",
"X.	c #4AA5AD",
"Y.	c #409FA7",
"Z.	c #74ADB7",
"`.	c #8ECCD5",
" +	c #6EB9C2",
".+	c #75BDC6",
"++	c #7AC1C9",
"@+	c #7FC4CC",
"#+	c #7CC2CB",
"$+	c #6AB7C0",
"%+	c #61B2BB",
"&+	c #58ADB5",
"*+	c #4EA7B0",
"=+	c #44A2AA",
"-+	c #3E9EA6",
";+	c #75BEC7",
">+	c #79B2BC",
",+	c #458693",
"'+	c #ADDEE7",
")+	c #64B4BC",
"!+	c #73BDC5",
"~+	c #6DB9C1",
"{+	c #67B6BE",
"]+	c #60B2BA",
"^+	c #50A8B1",
"/+	c #47A3AB",
"(+	c #3F9FA7",
"_+	c #4A8B96",
":+	c #4F8CA1",
"<+	c #90C3CD",
"[+	c #5FB1BA",
"}+	c #66B5BE",
"|+	c #68B6BE",
"1+	c #67B5BE",
"2+	c #5CAFB8",
"3+	c #56ACB4",
"4+	c #48A3AC",
"5+	c #6BB8C1",
"6+	c #93C7D1",
"7+	c #3D808D",
"8+	c #ADDCE5",
"9+	c #5CAFB7",
"0+	c #5BAFB7",
"a+	c #52A9B1",
"b+	c #46A2AA",
"c+	c #53AAB2",
"d+	c #A8DAE4",
"e+	c #42828C",
"f+	c #AC876A",
"g+	c #4C8C98",
"h+	c #ABDCE5",
"i+	c #42A0A8",
"j+	c #58ADB6",
"k+	c #A6D9E3",
"l+	c #51919B",
"m+	c #8B8F86",
"n+	c #E5A252",
"o+	c #D46812",
"p+	c #6CA1BB",
"q+	c #488995",
"r+	c #A6D6E0",
"s+	c #51A9B1",
"t+	c #43A1A9",
"u+	c #4C8C96",
"v+	c #838D88",
"w+	c #E6B367",
"x+	c #F5C56E",
"y+	c #F0B763",
"z+	c #D56B14",
"A+	c #80AFCE",
"B+	c #3D7F8F",
"C+	c #69A4AF",
"D+	c #A4D4DE",
"E+	c #86C7D0",
"F+	c #9BD3DD",
"G+	c #A4D5DF",
"H+	c #6BA7B1",
"I+	c #3F7D8A",
"J+	c #9C8F7F",
"K+	c #E5AA56",
"L+	c #F4C163",
"M+	c #F5C368",
"N+	c #F5C56D",
"O+	c #F1BA65",
"P+	c #D66D17",
"Q+	c #6DA1BC",
"R+	c #418390",
"S+	c #51919C",
"T+	c #5998A2",
"U+	c #51929C",
"V+	c #408192",
"W+	c #D0600B",
"X+	c #E69A3A",
"Y+	c #F4BF5D",
"Z+	c #F4C162",
"`+	c #F5C367",
" @	c #F5C46D",
".@	c #F2BC67",
"+@	c #D7701A",
"@@	c #84B2D1",
"#@	c #D05E07",
"$@	c #E49536",
"%@	c #F4BF5C",
"&@	c #F4C161",
"*@	c #F5C267",
"=@	c #F5C46C",
"-@	c #F2BE69",
";@	c #D8731D",
">@	c #E28F30",
",@	c #F4BE5B",
"'@	c #F4C061",
")@	c #F5C266",
"!@	c #F5C46B",
"~@	c #F3C06A",
"{@	c #D97620",
"]@	c #D46608",
"^@	c #E0892B",
"/@	c #F4C060",
"(@	c #F4C16B",
"_@	c #DA7A24",
":@	c #D8710C",
"<@	c #E79615",
"[@	c #E28812",
"}@	c #DE8327",
"|@	c #F3BD5A",
"1@	c #F4C265",
"2@	c #F5C46A",
"3@	c #F4C36C",
"4@	c #DC7D28",
"5@	c #D15E07",
"6@	c #EA9C17",
"7@	c #EDA219",
"8@	c #DE7E0F",
"9@	c #DC7E22",
"0@	c #F3BC58",
"a@	c #F4C264",
"b@	c #F5C36A",
"c@	c #F4C36D",
"d@	c #DD812C",
"e@	c #D8720C",
"f@	c #E99916",
"g@	c #EFA71A",
"h@	c #D56909",
"i@	c #DA791E",
"j@	c #F2BA57",
"k@	c #F4C05F",
"l@	c #F5C369",
"m@	c #DE832D",
"n@	c #DF8210",
"o@	c #E38C13",
"p@	c #D9751A",
"q@	c #F2B854",
"r@	c #F4BF5E",
"s@	c #F4C164",
"t@	c #DD822B",
"u@	c #D16107",
"v@	c #D77117",
"w@	c #F1B652",
"x@	c #DF882E",
"y@	c #D66D14",
"z@	c #DE8328",
"                                                                ",
"                      .                                         ",
"              + @ # $ % & * = -                     ;           ",
"          > , ' ) ! ~ { ] ^ / ( _ :                 < [ }       ",
"        | 1 2 ^ 3 4 5 6 7 8 9 0 a b c           d e f g h       ",
"      i j k l m l { 3 n 6 o p q r s t u         v w x y z A     ",
"      B C m { D E F ~ G H I J K L M N O       ; < P x y Q       ",
"    R S T G U V W X Y Z `  ...+.@.#.$.%.&.        *.=.-.;.;     ",
"    >.,.'.).^ X !.~.{.].^.6 /.(._.:.<.[.}.      ;   [ }         ",
"  |.1.2.3.4.5.6.7.8.E Z `  .9.0.@.a.b.J c.d.                    ",
"  e.f.g.h.^.Z ^ ! Y i.j.'.k.J K l.m.n.o.p.q.                    ",
"  r.s.7 k.5 t.2.u.Z j.4 v.w.x.q y.z.A.B.C.D.                    ",
"  E.s.9 F.G.H.4 I.` '.v.J.J K._.L.M.N.O.C.D.                    ",
"  e.f.P.Q./.R.S.T.6 k.w.J U.V.y.W.X.Y.:.p.q.                    ",
"  |.Z.`. +.+++..@+/.#+Q.+.$+%+&+*+=+-+;+>+d.                    ",
"    ,+'+)+$+K (.!+U.K.~+{+]+a.^+/+(+(+{ _+                      ",
"    :+<+9.[+l.}+|+1+@.%+2+3+<.4+Y.-+5+6+&.                      ",
"      7+8+@.&+:.9+0+a.3+a+b.b+Y.-+c+d+e+f+                      ",
"      i g+h+)+*+M.<.B.n./+i+-+-+j+k+l+m+n+o+                    ",
"        p+q+r+R.s+t+i+Y.-+-+b.F./ u+v+w+x+y+z+                  ",
"          A+B+C+D+G E+9.R.F+G+H+I+J+K+L+M+N+O+P+                ",
"              Q+@ R+S+T+U+# V+-   W+X+Y+Z+`+ @.@+@              ",
"                      @@            #@$@%@&@*@=@-@;@            ",
"                                      ; >@,@'@)@!@~@{@          ",
"                ]@  ;                   ; ^@,@/@)@!@(@_@        ",
"            v :@<@[@h                     ; }@|@/@1@2@3@4@      ",
"            5@6@x 7@8@[                     ; 9@0@/@a@b@c@d@;   ",
"          ; e@f@x g@h@                          i@j@k@a@l@ @m@  ",
"              n@o@*.<                             p@q@r@s@M+t@  ",
"            ; ; v u@                                v@w@r@x@;   ",
"                                                      y@z@;     ",
"                                                                "};
