/* XPM */
static char * finish_32_xpm[] = {
"32 32 208 2",
"  	c None",
". 	c #99FF91",
"+ 	c #9CFF95",
"@ 	c #9FFF98",
"# 	c #A3FF9C",
"$ 	c #A2FF9C",
"% 	c #A2FF9B",
"& 	c #087D3C",
"* 	c #37A859",
"= 	c #9CFE94",
"- 	c #A1FF9A",
"; 	c #A5FF9E",
"> 	c #A8FFA1",
", 	c #138442",
"' 	c #71D07F",
") 	c #ABFFA5",
"! 	c #AAFFA4",
"~ 	c #A9FFA3",
"{ 	c #11823E",
"] 	c #29974F",
"^ 	c #99F894",
"/ 	c #A5FF9F",
"( 	c #ADFFA7",
"_ 	c #B0FFAA",
": 	c #168443",
"< 	c #5DBC71",
"[ 	c #B2FFAD",
"} 	c #B2FFAC",
"| 	c #B1FFAB",
"1 	c #AEFFA8",
"2 	c #1A8740",
"3 	c #248C43",
"4 	c #63C470",
"5 	c #A7FEA0",
"6 	c #B1FFAC",
"7 	c #B4FFAF",
"8 	c #31964C",
"9 	c #A6F1A5",
"0 	c #B8FFB3",
"a 	c #B7FFB2",
"b 	c #B5FFAF",
"c 	c #2B9047",
"d 	c #3D9B54",
"e 	c #8AE08C",
"f 	c #AEFFA9",
"g 	c #B4FFAE",
"h 	c #BAFFB5",
"i 	c #319348",
"j 	c #52AA5F",
"k 	c #BAFCB6",
"l 	c #BDFFB8",
"m 	c #B3FFAD",
"n 	c #4DA260",
"o 	c #63B26C",
"p 	c #A1F09D",
"q 	c #B9FFB3",
"r 	c #BCFFB7",
"s 	c #BFFFBA",
"t 	c #58A766",
"u 	c #87CD8B",
"v 	c #C1FFBC",
"w 	c #BFFFBB",
"x 	c #B8FFB2",
"y 	c #B3FFAE",
"z 	c #69B16D",
"A 	c #81C77F",
"B 	c #AFF9A9",
"C 	c #C0FFBB",
"D 	c #C2FFBD",
"E 	c #72B775",
"F 	c #ACE9A8",
"G 	c #C3FFBE",
"H 	c #C0FFBC",
"I 	c #83BF7C",
"J 	c #9ADA92",
"K 	c #B5FDAF",
"L 	c #C3FFBF",
"M 	c #89C380",
"N 	c #C0F9BB",
"O 	c #8FC682",
"P 	c #9ACD89",
"Q 	c #ABE89F",
"R 	c #B9FEB4",
"S 	c #C6FFC1",
"T 	c #93C786",
"U 	c #9FD28E",
"V 	c #C5FEBF",
"W 	c #C4FFBF",
"X 	c #BBFFB7",
"Y 	c #B6FFB1",
"Z 	c #A4D18E",
"` 	c #ADD895",
" .	c #B6F3AA",
"..	c #C2FFBE",
"+.	c #C6FFC2",
"@.	c #C8FFC4",
"#.	c #A5D18E",
"$.	c #B2E09D",
"%.	c #C5FEC0",
"&.	c #B5FFB0",
"*.	c #B5DA97",
"=.	c #BBE39F",
"-.	c #BCFAB2",
";.	c #C5FFC1",
">.	c #C9FFC6",
",.	c #B4D993",
"'.	c #C1F0AF",
").	c #B9FFB4",
"!.	c #C3E29E",
"~.	c #C5ECA7",
"{.	c #C1FDB9",
"].	c #C5FFC0",
"^.	c #CAFFC6",
"/.	c #C1E199",
"(.	c #C6FABB",
"_.	c #D0E9A3",
":.	c #CBF3AF",
"<.	c #C4FEBF",
"[.	c #C7FFC3",
"}.	c #C9E59D",
"|.	c #CDEA9F",
"1.	c #C7FDC0",
"2.	c #C4FFC0",
"3.	c #DAEFA6",
"4.	c #CEF9B7",
"5.	c #C7FEC2",
"6.	c #D5EB9F",
"7.	c #D6F1A5",
"8.	c #C1FFBD",
"9.	c #BBFFB6",
"0.	c #CEFAB7",
"a.	c #C6FEBF",
"b.	c #ACFEA3",
"c.	c #C9FFC5",
"d.	c #CCFEC3",
"e.	c #B3FEAB",
"f.	c #BBFC9E",
"g.	c #C8FEC3",
"h.	c #D4FDBD",
"i.	c #E3FDB4",
"j.	c #BEFFBA",
"k.	c #BBFEB1",
"l.	c #CCFDA4",
"m.	c #CEFCBD",
"n.	c #E3F7AB",
"o.	c #BBFEB5",
"p.	c #CFFBA8",
"q.	c #C6FEC0",
"r.	c #D7F4AC",
"s.	c #C3FAAC",
"t.	c #C4FEBE",
"u.	c #CBF3AE",
"v.	c #BEFFB9",
"w.	c #BCFCB0",
"x.	c #CCF3A2",
"y.	c #C3F7B4",
"z.	c #C7E69D",
"A.	c #BAFEB4",
"B.	c #C1F2A4",
"C.	c #C0FBB8",
"D.	c #BBE39B",
"E.	c #B9F3A6",
"F.	c #BFFEBA",
"G.	c #B2E59E",
"H.	c #BCFFB6",
"I.	c #B6F9AC",
"J.	c #B5E396",
"K.	c #B2EEA8",
"L.	c #9FD187",
"M.	c #B6FDB0",
"N.	c #ABE497",
"O.	c #B6F8B0",
"P.	c #92CD82",
"Q.	c #A7EA9C",
"R.	c #9BD086",
"S.	c #ACFFA6",
"T.	c #B6FFB0",
"U.	c #8ED388",
"V.	c #ADF7A7",
"W.	c #8DCA80",
"X.	c #A6FFA0",
"Y.	c #ABFFA6",
"Z.	c #A0EB9D",
"`.	c #69B369",
" +	c #B0FDAA",
".+	c #85CD81",
"++	c #A4FF9D",
"@+	c #AAFAA6",
"#+	c #5AAE64",
"$+	c #AEFEA9",
"%+	c #8BDC8C",
"&+	c #64B069",
"*+	c #A0FE99",
"=+	c #A3FB9F",
"-+	c #5AB76B",
";+	c #3E9A54",
">+	c #98EF9A",
",+	c #AAFEA3",
"'+	c #8EE590",
")+	c #55AC63",
"!+	c #8FF48D",
"~+	c #89EB8B",
"{+	c #56BB6C",
"]+	c #2C914D",
"^+	c #85E48C",
"/+	c #9BF798",
"(+	c #89E78C",
"_+	c #5BBA6C",
"                                                                ",
"        . + @               # $ %                               ",
"    & * = - ; >         , ' ) ! ~                               ",
"    { ] ^ / ! ( _       : < [ } | 1                             ",
"    2 3 4 5 ( 6 7         8 9 0 a b 6                           ",
"      c d e f g a h       i j k l h a m                         ",
"        n o p g q r s       t u v w r x y                       ",
"          z A B 0 l C D       E F G H l a                       ",
"            I J K r H L         M N L H r a                     ",
"            O P Q R s L S       T U V W H X Y                   ",
"              Z `  .l ..+.@.      #.$.%.L C h &.                ",
"                *.=.-.v ;.@.>.      ,.'.S G s ).                ",
"                  !.~.{.].@.>.^.      /.(.;.D l Y               ",
"                    _.:.<.[.^.^.      }.|.1.2.w ).|             ",
"                      3.4.5.>.^.^.      6.7.%.8.9.m )           ",
"                        0.[.>.^.^.          a.8.9.y b.          ",
"                        L [.c.>.d.          ].H h e.f.          ",
"                      s L [.g.h.i.        +.L j.k.l.            ",
"                      s L +.m.n.        +.2.H o.p.              ",
"                    9.C W q.r.          2.8.l s.                ",
"                  a r v t.u.          2.8.v.w.x.                ",
"                  ).v.8.y.z.        2.D j.A.B.                  ",
"                Y 9.w C.D.          D s o.E.                    ",
"              y 0 l F.G.          8.w H.I.J.                    ",
"            _ &.h l K.L.        v s r M.N.                      ",
"            6 Y h O.P.        s v.r 0 Q.R.                      ",
"          S.} T.0 U.          X h a V.W.                        ",
"        X.Y._ y Z.`.        x a &. +.+                          ",
"        ++~ ( @+#+        } [ 6 $+%+&+                          ",
"      + *+/ =+-+;+        >+) ,+'+)+                            ",
"        !+~+{+]+          ^+/+(+_+                              ",
"                                                                "};
