/* XPM */
static char * help_32_xpm[] = {
"32 32 390 2",
"  	c None",
". 	c #85B3D2",
"+ 	c #649BB4",
"@ 	c #508DA2",
"# 	c #47869A",
"$ 	c #659CB5",
"% 	c #86B4D3",
"& 	c #96BFE2",
"* 	c #5792A8",
"= 	c #2A717F",
"- 	c #1D6F7B",
"; 	c #207C8B",
"> 	c #228494",
", 	c #218698",
"' 	c #208597",
") 	c #1F8091",
"! 	c #1D7887",
"~ 	c #1C6C79",
"{ 	c #2B7280",
"] 	c #5993AA",
"^ 	c #97C1E3",
"/ 	c #246E7A",
"( 	c #227E8D",
"_ 	c #2998A9",
": 	c #2BA3B6",
"< 	c #2BA2B6",
"[ 	c #29A0B4",
"} 	c #289EB3",
"| 	c #269CB1",
"1 	c #2499AE",
"2 	c #2196AC",
"3 	c #1F92AA",
"4 	c #1C879C",
"5 	c #1B7585",
"6 	c #246E7B",
"7 	c #679DB7",
"8 	c #99C2E5",
"9 	c #408193",
"0 	c #207683",
"a 	c #2C9EAF",
"b 	c #31AABC",
"c 	c #32ACBE",
"d 	c #32ABBD",
"e 	c #2FA7BA",
"f 	c #2CA4B7",
"g 	c #2AA2B5",
"h 	c #289FB3",
"i 	c #2398AE",
"j 	c #2095AB",
"k 	c #1E91A9",
"l 	c #1B8EA6",
"m 	c #19849B",
"n 	c #1A6E7C",
"o 	c #438395",
"p 	c #9BC3E7",
"q 	c #97C0E3",
"r 	c #337887",
"s 	c #23818F",
"t 	c #32ABBC",
"u 	c #39B4C4",
"v 	c #3EBAC9",
"w 	c #3FBCCA",
"x 	c #3AB5C5",
"y 	c #33ADBE",
"z 	c #2DA5B8",
"A 	c #259BB0",
"B 	c #2297AD",
"C 	c #1F93AA",
"D 	c #1C8FA7",
"E 	c #198BA4",
"F 	c #1687A0",
"G 	c #187283",
"H 	c #357989",
"I 	c #9AC2E5",
"J 	c #397C8D",
"K 	c #32ACBD",
"L 	c #3CB8C7",
"M 	c #44C2CF",
"N 	c #4ACAD5",
"O 	c #4CCDD7",
"P 	c #47C5D0",
"Q 	c #2997A3",
"R 	c #217F8B",
"S 	c #3F8A93",
"T 	c #498E96",
"U 	c #3D8892",
"V 	c #1A7986",
"W 	c #198395",
"X 	c #2093AA",
"Y 	c #1D91A8",
"Z 	c #1A8DA5",
"` 	c #1789A2",
" .	c #14849F",
"..	c #177182",
"+.	c #3D7F90",
"@.	c #5892A9",
"#.	c #207784",
"$.	c #2FA6B9",
"%.	c #44C3CF",
"&.	c #4ECFD9",
"*.	c #55D9E1",
"=.	c #4ECDD4",
"-.	c #2F8791",
";.	c #ACCCD0",
">.	c #F8FBFB",
",.	c #EAF2F3",
"'.	c #D5E5E7",
").	c #ECF4F5",
"!.	c #F3F8F9",
"~.	c #9FC4C8",
"{.	c #217B88",
"].	c #1C8DA4",
"^.	c #188AA3",
"/.	c #14859F",
"(.	c #11819B",
"_.	c #186C7B",
":.	c #5D96AD",
"<.	c #8BB7D8",
"[.	c #206C78",
"}.	c #2A9CAF",
"|.	c #5FE6EB",
"1.	c #2A8B94",
"2.	c #DAE9EA",
"3.	c #E0EDEE",
"4.	c #4B929A",
"5.	c #1D838F",
"6.	c #1D8593",
"7.	c #177A88",
"8.	c #5798A0",
"9.	c #E8F2F3",
"0.	c #CFE2E4",
"a.	c #187785",
"b.	c #1586A0",
"c.	c #12829C",
"d.	c #107A94",
"e.	c #206B78",
"f.	c #8EB9DA",
"g.	c #4B899D",
"h.	c #228292",
"i.	c #2CA3B6",
"j.	c #33ACBE",
"k.	c #3FBDCA",
"l.	c #58DDE4",
"m.	c #50CED4",
"n.	c #7BADB3",
"o.	c #FCFEFE",
"p.	c #3E8C94",
"q.	c #42BEC8",
"r.	c #40BECC",
"s.	c #34AEBF",
"t.	c #2394A6",
"u.	c #4B9099",
"v.	c #6BA3AA",
"w.	c #19889E",
"x.	c #0E7E99",
"y.	c #147083",
"z.	c #4F8CA1",
"A.	c #226D79",
"B.	c #279AAE",
"C.	c #4ACAD6",
"D.	c #56DAE2",
"E.	c #38ABB3",
"F.	c #BAD5D8",
"G.	c #2C99A3",
"H.	c #4BCCD7",
"I.	c #2CA3B7",
"J.	c #167A89",
"K.	c #E4EFF0",
"L.	c #9DC3C7",
"M.	c #158094",
"N.	c #0D7792",
"O.	c #246D7A",
"P.	c #71A4C0",
"Q.	c #1E7684",
"R.	c #279EB2",
"S.	c #2FA8BA",
"T.	c #45C4D0",
"U.	c #4FD0DA",
"V.	c #A2C6CA",
"W.	c #87B5BA",
"X.	c #33A6B0",
"Y.	c #46C5D1",
"Z.	c #3BB7C6",
"`.	c #30A9BB",
" +	c #167B8A",
".+	c #DFECED",
"++	c #9CC2C6",
"@+	c #11819C",
"#+	c #0E7D99",
"$+	c #0B7896",
"%+	c #176A7A",
"&+	c #74A7C3",
"*+	c #208293",
"=+	c #3DB9C8",
"-+	c #38ADB8",
";+	c #2A98A3",
">+	c #2997A2",
",+	c #39B1BD",
"'+	c #2AA1B5",
")+	c #2294A7",
"!+	c #478E97",
"~+	c #68A2A8",
"{+	c #18879D",
"]+	c #10809C",
"^+	c #0D7C98",
"/+	c #0A7895",
"(+	c #116E82",
"_+	c #548FA5",
":+	c #3C7E8F",
"<+	c #20899C",
"[+	c #259AB0",
"}+	c #34ADBF",
"|+	c #3AB6C6",
"1+	c #3FBCCB",
"2+	c #2EA6B9",
"3+	c #2598AB",
"4+	c #2B7F8A",
"5+	c #E2EDEF",
"6+	c #CCE0E2",
"7+	c #167685",
"8+	c #1687A1",
"9+	c #13839E",
"0+	c #107F9B",
"a+	c #0D7B98",
"b+	c #097794",
"c+	c #0E6F87",
"d+	c #327786",
"e+	c #1F8B9F",
"f+	c #2AA2B6",
"g+	c #2DA4B8",
"h+	c #30A8BB",
"i+	c #269AAD",
"j+	c #257D88",
"k+	c #D7E7E8",
"l+	c #D4E5E7",
"m+	c #267C87",
"n+	c #198AA1",
"o+	c #12829D",
"p+	c #0F7E9A",
"q+	c #0C7A97",
"r+	c #087693",
"s+	c #0B6F89",
"t+	c #367A8A",
"u+	c #307685",
"v+	c #1E8A9F",
"w+	c #2499AF",
"x+	c #2AA0B4",
"y+	c #279CB0",
"z+	c #217B87",
"A+	c #D0E2E4",
"B+	c #C2DADC",
"C+	c #1F7986",
"D+	c #1A8AA1",
"E+	c #198CA4",
"F+	c #1688A2",
"G+	c #0B7996",
"H+	c #077592",
"I+	c #0A6F89",
"J+	c #347888",
"K+	c #377B8B",
"L+	c #1C869A",
"M+	c #279DB2",
"N+	c #28A0B4",
"O+	c #289FB4",
"P+	c #188090",
"Q+	c #B1CFD2",
"R+	c #C7DDDF",
"S+	c #197784",
"T+	c #1889A3",
"U+	c #0C7B97",
"V+	c #067391",
"W+	c #0A6D86",
"X+	c #3B7D8E",
"Y+	c #1B7E91",
"Z+	c #1D90A8",
"`+	c #2095AC",
" @	c #249AB0",
".@	c #269BB0",
"+@	c #2C808C",
"@@	c #FBFEFE",
"#@	c #35848E",
"$@	c #1B8DA3",
"%@	c #13849E",
"&@	c #10809B",
"*@	c #087593",
"=@	c #057190",
"-@	c #0D6B82",
";@	c #4B899E",
">@	c #1A7585",
",@	c #2296AD",
"'@	c #2094AB",
")@	c #4A8F97",
"!@	c #E3EFF0",
"~@	c #127685",
"{@	c #036F8E",
"]@	c #12697B",
"^@	c #689EB8",
"/@	c #8DB9DA",
"(@	c #1C6B77",
"_@	c #1889A2",
":@	c #1E92A9",
"<@	c #117281",
"[@	c #137381",
"}@	c #127A8D",
"|@	c #077492",
"1@	c #04718F",
"2@	c #026D8C",
"3@	c #1C6875",
"4@	c #90BBDD",
"5@	c #177B90",
"6@	c #1688A1",
"7@	c #1C8EA6",
"8@	c #0C7B98",
"9@	c #057290",
"0@	c #026E8E",
"a@	c #0A6A82",
"b@	c #1A6B79",
"c@	c #14839E",
"d@	c #158299",
"e@	c #107586",
"f@	c #107587",
"g@	c #067290",
"h@	c #026C8B",
"i@	c #186775",
"j@	c #78AAC6",
"k@	c #167487",
"l@	c #14869F",
"m@	c #117B90",
"n@	c #83B2B8",
"o@	c #D8E8EA",
"p@	c #2E7F8A",
"q@	c #016C8C",
"r@	c #0F687D",
"s@	c #8EBADB",
"t@	c #256D7B",
"u@	c #12788E",
"v@	c #0F788E",
"w@	c #9AC0C5",
"x@	c #FCFDFE",
"y@	c #37848E",
"z@	c #096983",
"A@	c #266F7C",
"B@	c #91BBDD",
"C@	c #7CADCA",
"D@	c #11768E",
"E@	c #0D768D",
"F@	c #217682",
"G@	c #34828D",
"H@	c #116E7B",
"I@	c #086A84",
"J@	c #216B78",
"K@	c #7FAECD",
"L@	c #7CACCA",
"M@	c #246D7B",
"N@	c #127186",
"O@	c #0B7895",
"P@	c #0B7A96",
"Q@	c #087592",
"R@	c #026D8D",
"S@	c #006B8B",
"T@	c #0C6980",
"U@	c #256E7C",
"V@	c #7FAECC",
"W@	c #387B8C",
"X@	c #176A79",
"Y@	c #0D718A",
"Z@	c #026E8D",
"`@	c #166777",
" #	c #3A7D8E",
".#	c #90BBDC",
"+#	c #6BA0BA",
"@#	c #2E7483",
"##	c #186877",
"$#	c #116C81",
"%#	c #0B6E87",
"&#	c #066F8B",
"*#	c #046F8D",
"=#	c #046E8C",
"-#	c #056C89",
";#	c #0E687E",
">#	c #186776",
",#	c #2F7584",
"'#	c #6DA2BD",
")#	c #7CADCB",
"!#	c #538EA4",
"~#	c #286F7D",
"{#	c #216A77",
"]#	c #28707E",
"^#	c #7EAECC",
"/#	c #A3C9EE",
"                                                                ",
"                                                                ",
"                        . + @ # # @ $ %                         ",
"                  & * = - ; > , ' ) ! ~ { ] ^                   ",
"                + / ( _ : < [ } | 1 2 3 4 5 6 7                 ",
"            8 9 0 a b c d e f g h | i j k l m n o p             ",
"          q r s t u v w v x y z g } A B C D E F G H I           ",
"          J s K L M N O P Q R S T U V W X Y Z `  ...+.          ",
"        @.#.$.u %.&.*.=.-.;.>.,.'.).!.~.{.].l ^./.(._.:.        ",
"      <.[.}.d v N *.|.1.2.3.4.5.6.7.8.9.0.a.l ^.b.c.d.e.f.      ",
"      g.h.i.j.k.O l.m.n.o.p.q.r.s.f t.u.o.v.w.^.b.c.x.y.z.      ",
"    p A.B.: d v C.D.E.F.0.G.H.w j.I.h J.K.L.M.^.b.c.x.N.O.      ",
"    P.Q.R.< S.x T.U.G.V.W.X.Y.Z.`.< }  +.+++M.^./.@+#+$+%+&+    ",
"    z.*+| [ f y =+T.-+;+>+,+v s.z '+)+!+o.~+{+`  .]+^+/+(+_+    ",
"    :+<+[+} g z }+|+w r.1+Z.s.2+< 3+4+5+6+7+E 8+9+0+a+b+c+9     ",
"    d+e+i | h f+g+h+j.s.j.`.z < i+j+k+l+m+n+^.b.o+p+q+r+s+t+    ",
"    u+v+2 w+| } x+< I.f I.< '+y+z+A+B+C+D+E+F+ .]+#+G+H+I+J+    ",
"    K+L+C 2 i A M+} h N+O+} M+P+Q+R+S+].Z T+b.o+p+U+b+V+W+X+    ",
"    # Y+Z+3 `+B w+ @A .@A [+w++@@@#@$@Z ^.8+%@&@^+G+*@=@-@;@    ",
"    + >@Z D k C j 2 ,@,@,@2 '@)@!@~@Z ^.8+%@@+x.q+b+V+{@]@^@    ",
"    /@(@_@E+l D Y :@3 3 3 :@Y <@[@}@T+8+%@@+p+U+/+|@1@2@3@4@    ",
"      J 5@6@^.E Z l l 7@l l Z E+^.F+b.%@@+p+8@/+*@9@0@a@+.      ",
"      &+b@c@b.8+` ^.^.^.^.^.d@e@e@f@o+&@x.U+/+*@g@{@h@i@j@      ",
"        :+k@o+9+ ./.b.b.b.l@m@n@o@p@p+^+q+/+*@g@{@q@r@9         ",
"        s@t@u@0+&@@+c.c.c.@+v@w@x@y@U+G+b+|@9@{@q@z@A@B@        ",
"          C@e.D@^+#+x.x.x.#+E@F@G@H@b+*@V+1@0@q@I@J@K@          ",
"            L@M@N@O@G+P@G+G+/+b+r+Q@V+=@{@R@S@T@U@V@            ",
"              s@W@X@Y@*@*@|@|@V+9@1@{@Z@q@I@`@ #.#              ",
"                  +#@###$#%#&#*#=#-#I@;#>#,#'#                  ",
"                      )#!#W@~#{#{#]#W@_+^#                      ",
"                              /#/#                              ",
"                                                                "};
