/* XPM */
static char * logo_xpm[] = {
"32 32 2 1",
" 	c None",
".	c #75FF6B",
"                                ",
"                                ",
"                                ",
"                                ",
"                                ",
"                                ",
"                                ",
"                .......         ",
"             ..... .....        ",
"           ..  ...    ...       ",
"          .    ...    ...       ",
"         .     ..     ...       ",
"        ..     ..     ...       ",
"        ..     ..     ..        ",
"       ...    ...    ...        ",
"       ...    ..    ...         ",
"       ...    ..   ...          ",
"        .     ......            ",
"             ...                ",
"             ..                 ",
"             ..                 ",
"             ..                 ",
"            ...                 ",
"            ..                  ",
"           ....  ..             ",
"       ..........               ",
"                                ",
"                                ",
"                                ",
"                                ",
"                                ",
"                                "};
