/* XPM */
static char * reload_b_2_1_32_xpm[] = {
"32 32 284 2",
"  	c None",
". 	c #388496",
"+ 	c #388396",
"@ 	c #5697AF",
"# 	c #7BAFCD",
"$ 	c #A0C7EC",
"% 	c #A3C9EE",
"& 	c #9EC6EA",
"* 	c #77ACCA",
"= 	c #5495AD",
"- 	c #68A3BE",
"; 	c #A1C8ED",
"> 	c #A0C7EB",
", 	c #639FB9",
"' 	c #4A8FA5",
") 	c #9BC4E8",
"! 	c #97C1E4",
"~ 	c #418A9E",
"{ 	c #5F9CB6",
"] 	c #78AAC7",
"^ 	c #5793A9",
"/ 	c #639BB4",
"( 	c #99C2E5",
"_ 	c #5596AE",
": 	c #5F9DB6",
"< 	c #85B3D3",
"[ 	c #397D8E",
"} 	c #1E7481",
"| 	c #228A9C",
"1 	c #1E7583",
"2 	c #3E8192",
"3 	c #4A8FA4",
"4 	c #95BFE1",
"5 	c #4A899D",
"6 	c #1F707C",
"7 	c #268E9E",
"8 	c #299FB3",
"9 	c #269CB1",
"0 	c #1F7E8E",
"a 	c #337988",
"b 	c #3F889D",
"c 	c #9CC4E8",
"d 	c #9FC6EB",
"e 	c #5C96AE",
"f 	c #24707D",
"g 	c #2A8D9B",
"h 	c #2FA5B8",
"i 	c #2BA3B6",
"j 	c #29A0B4",
"k 	c #279DB2",
"l 	c #207F8F",
"m 	c #276F7C",
"n 	c #5692A8",
"o 	c #5591A7",
"p 	c #5490A6",
"q 	c #528FA5",
"r 	c #518EA4",
"s 	c #508DA2",
"t 	c #528FA4",
"u 	c #72A6C1",
"v 	c #95C0E3",
"w 	c #6AA3BF",
"x 	c #71A5C0",
"y 	c #2C7482",
"z 	c #2C8B96",
"A 	c #3DB5C2",
"B 	c #38B3C3",
"C 	c #2FA8BA",
"D 	c #2392A6",
"E 	c #20899C",
"F 	c #1E889C",
"G 	c #1D869A",
"H 	c #1B8499",
"I 	c #198297",
"J 	c #178096",
"K 	c #157E95",
"L 	c #147A90",
"M 	c #1B6873",
"N 	c #74A7C3",
"O 	c #A2C8ED",
"P 	c #5C96AD",
"Q 	c #20717C",
"R 	c #42B7C2",
"S 	c #45C4D0",
"T 	c #3DB9C8",
"U 	c #34AEBF",
"V 	c #2DA5B8",
"W 	c #2BA2B6",
"X 	c #289FB3",
"Y 	c #2499AF",
"Z 	c #2196AC",
"` 	c #1F93AA",
" .	c #1D90A8",
"..	c #1A8DA5",
"+.	c #188AA3",
"@.	c #1687A1",
"#.	c #13849E",
"$.	c #11819C",
"%.	c #1B6874",
"&.	c #659DB6",
"*.	c #9DC5E9",
"=.	c #5999B1",
"-.	c #86B4D3",
";.	c #2E7584",
">.	c #2A8793",
",.	c #39AFBD",
"'.	c #36B0C1",
").	c #2FA7BA",
"!.	c #2CA3B7",
"~.	c #279EB2",
"{.	c #259BB0",
"].	c #2398AE",
"^.	c #2095AB",
"/.	c #1E92A9",
"(.	c #1C8FA7",
"_.	c #1A8CA4",
":.	c #1789A2",
"<.	c #1586A0",
"[.	c #12839E",
"}.	c #10809B",
"|.	c #1B6975",
"1.	c #5194AB",
"2.	c #81B2D2",
"3.	c #A1C8EC",
"4.	c #27717E",
"5.	c #258593",
"6.	c #2B9FB2",
"7.	c #2AA1B5",
"8.	c #289EB3",
"9.	c #269BB1",
"0.	c #208799",
"a.	c #1D7381",
"b.	c #1C7280",
"c.	c #1D7281",
"d.	c #1D7280",
"e.	c #1E7180",
"f.	c #1F7180",
"g.	c #217180",
"h.	c #367B8B",
"i.	c #8CB8D9",
"j.	c #71A9C5",
"k.	c #9BC3E6",
"l.	c #216F7C",
"m.	c #228697",
"n.	c #259AAF",
"o.	c #2296AD",
"p.	c #1E8193",
"q.	c #266F7C",
"r.	c #9BC3E7",
"s.	c #358194",
"t.	c #91BCDD",
"u.	c #468699",
"v.	c #1E707C",
"w.	c #1F879A",
"x.	c #2094AA",
"y.	c #1D8093",
"z.	c #246E7A",
"A.	c #40899D",
"B.	c #83B2D1",
"C.	c #3B7E8F",
"D.	c #1D707E",
"E.	c #1F6F7C",
"F.	c #4F8CA1",
"G.	c #358294",
"H.	c #428A9E",
"I.	c #A0C6EB",
"J.	c #A1C7EC",
"K.	c #679EB7",
"L.	c #26727F",
"M.	c #237380",
"N.	c #438396",
"O.	c #90BBDC",
"P.	c #378396",
"Q.	c #3B8598",
"R.	c #347989",
"S.	c #248694",
"T.	c #2CA2B6",
"U.	c #248898",
"V.	c #226F7B",
"W.	c #5B95AD",
"X.	c #357A8A",
"Y.	c #258695",
"Z.	c #2CA4B8",
"`.	c #2AA2B6",
" +	c #279AAD",
".+	c #1F7B89",
"++	c #7BACC9",
"@+	c #8FBCDE",
"#+	c #689EB8",
"$+	c #397D8D",
"%+	c #327887",
"&+	c #327988",
"*+	c #317887",
"=+	c #307887",
"-+	c #216D7A",
";+	c #248695",
">+	c #2CA4B7",
",+	c #228D9F",
"'+	c #1D707D",
")+	c #458598",
"!+	c #94BEE0",
"~+	c #80B2D1",
"{+	c #63A0BA",
"]+	c #216C78",
"^+	c #3AA8B3",
"/+	c #4BCCD7",
"(+	c #48C8D4",
"_+	c #44C3D0",
":+	c #40BDCB",
"<+	c #3AB6C5",
"[+	c #269DB1",
"}+	c #259AB0",
"|+	c #2194AA",
"1+	c #1D7E90",
"2+	c #236E7B",
"3+	c #639BB3",
"4+	c #5A9AB2",
"5+	c #2F9BA9",
"6+	c #38B2C3",
"7+	c #33ADBE",
"8+	c #30A9BB",
"9+	c #2EA6B9",
"0+	c #299FB4",
"a+	c #2297AD",
"b+	c #2195AC",
"c+	c #1B869C",
"d+	c #1C6873",
"e+	c #81B0CF",
"f+	c #358293",
"g+	c #81B3D3",
"h+	c #236D7A",
"i+	c #258D9D",
"j+	c #1E91A9",
"k+	c #1B8093",
"l+	c #1E6D7A",
"m+	c #73AAC6",
"n+	c #3E879B",
"o+	c #659CB5",
"p+	c #2E7685",
"q+	c #277584",
"r+	c #287685",
"s+	c #287584",
"t+	c #297684",
"u+	c #2A7684",
"v+	c #206E7B",
"w+	c #1E7C8C",
"x+	c #2094AB",
"y+	c #1C8EA7",
"z+	c #1B879D",
"A+	c #1B717F",
"B+	c #87B5D4",
"C+	c #348193",
"D+	c #66A1BB",
"E+	c #1B7787",
"F+	c #1B8EA6",
"G+	c #198AA2",
"H+	c #1A788A",
"I+	c #256F7C",
"J+	c #5B9AB3",
"K+	c #7EB1D0",
"L+	c #408294",
"M+	c #1A7485",
"N+	c #1688A2",
"O+	c #187E93",
"P+	c #1C6C79",
"Q+	c #49899C",
"R+	c #76ABC9",
"S+	c #81B3D2",
"T+	c #26707E",
"U+	c #1B6E7C",
"V+	c #347A89",
"W+	c #7FAFCD",
"X+	c #79AECC",
"Y+	c #70A7C4",
"Z+	c #94BFE2",
"`+	c #448CA0",
" @	c #5093AA",
".@	c #80B3D2",
"+@	c #4D91A7",
"@@	c #458CA1",
"#@	c #5395AC",
"$@	c #5798B0",
"%@	c #5294AB",
"&@	c #438B9F",
"                                                                ",
"                              . +                               ",
"                      @ # $ % % % % & * =                       ",
"                  - ; % % % % % % % % % % > ,                   ",
"              ' ) % % % % % % % % % % % % % % ! ~               ",
"            { % % % % % ] ^ / ( % % % % % % % % % _             ",
"          : % % % % < [ } | 1 2 % % % % % % % % % % =           ",
"        3 % % % 4 5 6 7 8 9 0 a % % % % % % % % % % % b         ",
"        c % d e f g h i j k l m n o p q r s t u % % % v         ",
"      w % x y z A B C i j k D E F G H I J K L M N % % % :       ",
"      O P Q R S T U V W X 9 Y Z `  ...+.@.#.$.%.&.% % % *.      ",
"    =.% -.;.>.,.'.).!.j ~.{.].^./.(._.:.<.[.}.|./ % % % % 1.    ",
"    2.% % 3./ 4.5.6.7.8.9.Y 0.a.b.c.d.e.e.f.g.h.i.% % % % j.    ",
"    O % % % % k.p l.m.n.Y o.p.q.% % % % % % % % % % % % % r.    ",
"  s.% % % % % % % t.u.v.w.x.y.z.% % % % % % % % % % % % % %     ",
"  A.% % % % % % % % % B.C.D.E.F.% % % % % % % % % % % % % % G.  ",
"  H.% % % % % % % % % % % I.J.% % K.L.M.N.O.% % % % % % % % P.  ",
"  Q.% % % % % % % % % % % % % % % R.S.T.U.V.W.> % % % % % %     ",
"    % % % % % % % % % % % % % % % X.Y.Z.`. +.+;.++% % % % J.    ",
"    @+% % % % % % #+$+%+%+&+*+*+=+-+;+>+7.X 9 ,+'+)+!+% % ~+    ",
"    {+% % % % % % ]+^+/+(+_+:+<+U ).>+7.X [+}+].|+1+2+3+% 4+    ",
"    A.% % % % % % ]+5+6+'.7+8+9+!.7.0+~.9 Y a+b+`  .c+d+e+f+    ",
"      g+% % % % % h+i+W W 7.j X ~.9 }+Y a+b+` j+(.k+l+t m+      ",
"      n+% % % % % o+p+q+r+s+t+u+u+v+w+x+/. .y+z+A+h.B+O C+      ",
"        D+% % % % % % % % % % % % 2 E+F+..G+H+I+#+% % J+        ",
"          K+% % % % % % % % % % % L+M+N+O+P+Q+! % % R+          ",
"            S+% % % % % % % % % % u T+U+V+W+% % % X+            ",
"              Y+% % % % % % % % % % % J.% % % % -               ",
"                ' Z+% % % % % % % % % % % % @+`+                ",
"                     @.@% % % % % % % O # +@                    ",
"                          @@#@$@$@%@&@                          ",
"                                                                "};
