/* XPM */
static char * selections_32_xpm[] = {
"32 32 37 1",
" 	c None",
".	c #FF0000",
"+	c #75FF6B",
"@	c #FD0301",
"#	c #B88236",
"$	c #AC9940",
"%	c #FD0200",
"&	c #FE0100",
"*	c #D64A1F",
"=	c #81E761",
"-	c #8ECF57",
";	c #F31508",
">	c #E82911",
",	c #90CC55",
"'	c #76FD6A",
")	c #7BF366",
"!	c #7DEF64",
"~	c #79F767",
"{	c #CE5A25",
"]	c #88DA5B",
"^	c #77FB69",
"/	c #8AD65A",
"(	c #DA431C",
"_	c #A6A444",
":	c #75FE6A",
"<	c #8FCE56",
"[	c #7BF365",
"}	c #CB5F27",
"|	c #D44E20",
"1	c #7AF566",
"2	c #76FB69",
"3	c #A3A846",
"4	c #FA0903",
"5	c #F60F06",
"6	c #99BB4E",
"7	c #CA6128",
"8	c #75FD6A",
"                                ",
"                                ",
"                                ",
"                                ",
"                     ...   ++   ",
"     ..             ....  ++++  ",
"     ...           ..... +++++  ",
"     ....         ..... +++++   ",
"     ....        ..... ++++     ",
"      ....       .... ++++      ",
"       ....     .... ++++       ",
"        ....   ....  ++++       ",
"        ....  ....  ++++        ",
"         ........  ++++         ",
"          ......  ++++          ",
"           ....  ++++           ",
"      +++  .... ++++            ",
"      +++ ....@#+++             ",
"      +++$%..&*=+++             ",
"       ++-;. >,+')              ",
"       !+~{  ]^+/(              ",
"       _:+<  ++[}&              ",
"      .|1+2 +++34..             ",
"      .56++++++ ...             ",
"     ...78++++  ....            ",
"     ... +++++   ....           ",
"    ....  +++     ...           ",
"    ...   ++      ....          ",
"     .             ...          ",
"                                ",
"                                ",
"                                "};
