/* XPM */
static char * world_up_32_xpm[] = {
"32 32 823 2",
"  	c None",
". 	c #4E687C",
"+ 	c #A9B7C1",
"@ 	c #D3D9DE",
"# 	c #DCE2E6",
"$ 	c #DEE4E7",
"% 	c #DCE2E7",
"& 	c #DAE0E6",
"* 	c #DEE3E7",
"= 	c #D1DADD",
"- 	c #C4CFD3",
"; 	c #8699A3",
"> 	c #46637B",
", 	c #4D6685",
"' 	c #A2B1C1",
") 	c #CDD6D7",
"! 	c #E3E8E2",
"~ 	c #E4E4DC",
"{ 	c #E2E8E5",
"] 	c #F5F6F4",
"^ 	c #FAFAF7",
"/ 	c #FBFBFA",
"( 	c #F9F9F7",
"_ 	c #EDEDE9",
": 	c #D8DFDE",
"< 	c #97A5A2",
"[ 	c #909799",
"} 	c #707E92",
"| 	c #4F6784",
"1 	c #466177",
"2 	c #697CA1",
"3 	c #C0CCD9",
"4 	c #DCE8E6",
"5 	c #D6E1DD",
"6 	c #CCCAC1",
"7 	c #EAE1C9",
"8 	c #F3F0E1",
"9 	c #F2EDE1",
"0 	c #EFE9DB",
"a 	c #F3EFE8",
"b 	c #F8F8F7",
"c 	c #F6F7F7",
"d 	c #EFEFEC",
"e 	c #E2E4E3",
"f 	c #B8B6AE",
"g 	c #AFA99E",
"h 	c #9B9C9F",
"i 	c #7F8A95",
"j 	c #546A7D",
"k 	c #4B6688",
"l 	c #6273A8",
"m 	c #D8DDED",
"n 	c #EAF0F6",
"o 	c #A6C1BD",
"p 	c #BAC6BE",
"q 	c #E3DBD2",
"r 	c #E6E9E5",
"s 	c #F1F4F2",
"t 	c #F5F5F3",
"u 	c #F4F4F3",
"v 	c #D2D4CF",
"w 	c #A7AFAB",
"x 	c #C6BCB0",
"y 	c #CEC0B2",
"z 	c #CEC0B1",
"A 	c #C1B4A2",
"B 	c #BCAF9C",
"C 	c #BBB1A0",
"D 	c #B3AC9F",
"E 	c #84898E",
"F 	c #7B8385",
"G 	c #566D90",
"H 	c #6576AE",
"I 	c #B6C4DD",
"J 	c #CCDBE0",
"K 	c #BCCED3",
"L 	c #B4CBC2",
"M 	c #BBC5BE",
"N 	c #E0E9E7",
"O 	c #ECF1F0",
"P 	c #F2F6F6",
"Q 	c #DEE8E7",
"R 	c #9EB4AF",
"S 	c #8AA49E",
"T 	c #88A39C",
"U 	c #A3ABA2",
"V 	c #AEA7A1",
"W 	c #BDAE9E",
"X 	c #C2B19C",
"Y 	c #A69E9B",
"Z 	c #C0B2A0",
"` 	c #ABACAD",
" .	c #9C9C9C",
"..	c #969590",
"+.	c #787E7F",
"@.	c #596F91",
"#.	c #7889BA",
"$.	c #9CAED0",
"%.	c #B6C4E4",
"&.	c #B7CCCD",
"*.	c #9FBBB1",
"=.	c #A0BDB3",
"-.	c #AEC7BF",
";.	c #DDE7E4",
">.	c #F5F9F9",
",.	c #C7D8D5",
"'.	c #9AB5AD",
").	c #95ADA5",
"!.	c #95ACA4",
"~.	c #C0C8BF",
"{.	c #C1CCC8",
"].	c #B3BEB9",
"^.	c #9EA099",
"/.	c #BEB5AD",
"(.	c #A99D93",
"_.	c #D2C9BE",
":.	c #8F97AC",
"<.	c #959EA6",
"[.	c #9A9791",
"}.	c #96938A",
"|.	c #68747F",
"1.	c #466579",
"2.	c #8595BD",
"3.	c #B0C0E0",
"4.	c #A4B2D5",
"5.	c #8AA1BA",
"6.	c #9CB8B1",
"7.	c #A9C4BA",
"8.	c #ADC6BE",
"9.	c #EEF4F2",
"0.	c #F2F6F5",
"a.	c #E1E9E7",
"b.	c #D6E0DD",
"c.	c #CBD2C9",
"d.	c #C0C2B8",
"e.	c #CDC9B8",
"f.	c #C6C8BA",
"g.	c #D5DAD1",
"h.	c #9AB1AA",
"i.	c #8CA49A",
"j.	c #A0ADA7",
"k.	c #A6B0AD",
"l.	c #DBD8D6",
"m.	c #A3A0A0",
"n.	c #98A1A2",
"o.	c #929998",
"p.	c #A19B90",
"q.	c #828589",
"r.	c #6A767C",
"s.	c #7D8DB1",
"t.	c #B4C0E1",
"u.	c #899BCC",
"v.	c #A2B6D0",
"w.	c #A0B8C5",
"x.	c #9EBAB3",
"y.	c #AEC5BD",
"z.	c #E7EEED",
"A.	c #F3F6F5",
"B.	c #D7DEDB",
"C.	c #E5E7E7",
"D.	c #E7E6E4",
"E.	c #E4DED3",
"F.	c #E1DBCE",
"G.	c #EDE9DA",
"H.	c #E2DDCE",
"I.	c #D5D4C9",
"J.	c #B3C1BC",
"K.	c #E0E8E6",
"L.	c #B2B8B3",
"M.	c #BABFBC",
"N.	c #C9D1D1",
"O.	c #B2B5B2",
"P.	c #E1E2E2",
"Q.	c #B5BFCE",
"R.	c #8B9295",
"S.	c #7F8692",
"T.	c #8B8B86",
"U.	c #5A7293",
"V.	c #AFB9D8",
"W.	c #DDE5F3",
"X.	c #8A9ED0",
"Y.	c #94A8D2",
"Z.	c #95ACC0",
"`.	c #CAD6D9",
" +	c #F3F6F6",
".+	c #F4F8F7",
"++	c #D4DAD7",
"@+	c #DFE2DF",
"#+	c #E8E5E0",
"$+	c #E1DFD7",
"%+	c #ECE9DF",
"&+	c #F4F4F0",
"*+	c #F5F4EF",
"=+	c #F6F7F6",
"-+	c #DEDFDC",
";+	c #DDE2DF",
">+	c #EDEEEB",
",+	c #E1E5E4",
"'+	c #B9BBB5",
")+	c #D2DAD8",
"!+	c #9FB2B0",
"~+	c #E4E8E8",
"{+	c #EAEEF0",
"]+	c #96A3B5",
"^+	c #7B8592",
"/+	c #898C8F",
"(+	c #7F8380",
"_+	c #798AB5",
":+	c #E2E7F5",
"<+	c #D7DEF1",
"[+	c #ABBBE1",
"}+	c #CCD6EE",
"|+	c #9BABD7",
"1+	c #D7DEF0",
"2+	c #FBFBFB",
"3+	c #F9FBFB",
"4+	c #F3F4F4",
"5+	c #EAECEB",
"6+	c #F8F9F6",
"7+	c #FEFEFE",
"8+	c #F8F7F6",
"9+	c #FAFBFC",
"0+	c #D1D4DA",
"a+	c #BBC0C1",
"b+	c #D8D0C5",
"c+	c #DBD8CF",
"d+	c #CFD6D4",
"e+	c #D8DFDF",
"f+	c #E7EDEE",
"g+	c #F3F6F7",
"h+	c #DFE6E7",
"i+	c #A8B7C5",
"j+	c #778895",
"k+	c #798497",
"l+	c #8A8884",
"m+	c #476480",
"n+	c #7D8CC0",
"o+	c #E0E7F6",
"p+	c #D9E1F3",
"q+	c #DAE1F2",
"r+	c #C4CDE8",
"s+	c #96A4D4",
"t+	c #E7EBF6",
"u+	c #FCFDFC",
"v+	c #FDFEFD",
"w+	c #FBFCFC",
"x+	c #F2F1EF",
"y+	c #F7F8F9",
"z+	c #EEEFEF",
"A+	c #F4F5F4",
"B+	c #FFFFFF",
"C+	c #FBFCFE",
"D+	c #A8B0CD",
"E+	c #B4BED9",
"F+	c #9FA9C6",
"G+	c #A0A6B4",
"H+	c #959FA2",
"I+	c #879798",
"J+	c #869898",
"K+	c #AAB8B7",
"L+	c #9CACAB",
"M+	c #9AACAC",
"N+	c #7B8E91",
"O+	c #6F8196",
"P+	c #8E8E8C",
"Q+	c #7F817F",
"R+	c #55679A",
"S+	c #909FD1",
"T+	c #D2DBF0",
"U+	c #BBC7E7",
"V+	c #EFF3FA",
"W+	c #B5C3D4",
"X+	c #A3B1D6",
"Y+	c #CFDBDD",
"Z+	c #FDFEFE",
"`+	c #FCFDFD",
" @	c #F1F4F8",
".@	c #F4F7FA",
"+@	c #F6F9FC",
"@@	c #F3F5F7",
"#@	c #F6F8FA",
"$@	c #FEFEFF",
"%@	c #EFF1F8",
"&@	c #CDD4E6",
"*@	c #A0ACD1",
"=@	c #8E9BC0",
"-@	c #A9B7C0",
";@	c #899696",
">@	c #768A96",
",@	c #798C92",
"'@	c #738988",
")@	c #859392",
"!@	c #6F8382",
"~@	c #667891",
"{@	c #7B8594",
"]@	c #8D8B86",
"^@	c #6473AB",
"/@	c #AEBCE1",
"(@	c #CAD6EE",
"_@	c #A7B5E1",
":@	c #B6C5E8",
"<@	c #A7B8CA",
"[@	c #AEBAD3",
"}@	c #A4B8BC",
"|@	c #B8C8C2",
"1@	c #FAFAFA",
"2@	c #E6ECF0",
"3@	c #D8E0EF",
"4@	c #F2F5F8",
"5@	c #F2F4F8",
"6@	c #F1F4F7",
"7@	c #EBF0F5",
"8@	c #E2E9F2",
"9@	c #E3E9F3",
"0@	c #D2DAEB",
"a@	c #A4AFD2",
"b@	c #B1BCD9",
"c@	c #C0CFCE",
"d@	c #8DA2A5",
"e@	c #8B9DA5",
"f@	c #7A8AAB",
"g@	c #6E7B97",
"h@	c #7E8785",
"i@	c #6E8182",
"j@	c #68798F",
"k@	c #788293",
"l@	c #8A8782",
"m@	c #6979B2",
"n@	c #BCC9E8",
"o@	c #A3B1DC",
"p@	c #A9B9E2",
"q@	c #B9C6E6",
"r@	c #97A7D7",
"s@	c #8CA2BE",
"t@	c #ACC4BE",
"u@	c #A5BAB0",
"v@	c #DBE1F0",
"w@	c #DEE4F1",
"x@	c #F2F5F9",
"y@	c #F0F3F7",
"z@	c #EDF1F5",
"A@	c #EFF2F6",
"B@	c #E6ECF3",
"C@	c #DBE3EF",
"D@	c #DEE5F0",
"E@	c #E4E9F2",
"F@	c #C9D0E4",
"G@	c #D4DBEC",
"H@	c #D4DDE4",
"I@	c #C2CFCE",
"J@	c #EAEFF2",
"K@	c #C0CBD0",
"L@	c #808C9C",
"M@	c #748386",
"N@	c #7B8B8A",
"O@	c #657789",
"P@	c #878F9A",
"Q@	c #94928D",
"R@	c #6272AE",
"S@	c #8EA0D4",
"T@	c #8698CE",
"U@	c #95A6D7",
"V@	c #93A3D5",
"W@	c #8A99CF",
"X@	c #94A8BD",
"Y@	c #9DBBAF",
"Z@	c #B6C5BD",
"`@	c #DAE0EC",
" #	c #F3F6FB",
".#	c #EFF2F8",
"+#	c #EFF3F7",
"@#	c #E6EDF4",
"##	c #E0E8F1",
"$#	c #EAEEF4",
"%#	c #E3EAF2",
"&#	c #EBF0F6",
"*#	c #E3E9F1",
"=#	c #C3CDE3",
"-#	c #A6B1D1",
";#	c #94A1C1",
">#	c #C5D0DA",
",#	c #F2F5F5",
"'#	c #A7B0C3",
")#	c #7B8C98",
"!#	c #808D8E",
"~#	c #6B7989",
"{#	c #8790A0",
"]#	c #98968F",
"^#	c #6475B1",
"/#	c #7D8FCA",
"(#	c #A8B5DD",
"_#	c #919FD1",
":#	c #96A2D2",
"<#	c #8393C0",
"[#	c #A2BCB7",
"}#	c #D8DEDA",
"|#	c #BCC5E0",
"1#	c #FCFCFE",
"2#	c #F1F4F9",
"3#	c #EFF3F6",
"4#	c #F3F6FA",
"5#	c #F3F6F9",
"6#	c #E4EBF2",
"7#	c #D5DEED",
"8#	c #DFE6F0",
"9#	c #E7EBF2",
"0#	c #DCE4EE",
"a#	c #C0CAE1",
"b#	c #A5B0D2",
"c#	c #ADB8D7",
"d#	c #F2F5FA",
"e#	c #EFF3F8",
"f#	c #A0ACC9",
"g#	c #C2CADB",
"h#	c #BEC8CB",
"i#	c #859094",
"j#	c #7A8598",
"k#	c #A09F9B",
"l#	c #6373B1",
"m#	c #7D8FC8",
"n#	c #96A5D4",
"o#	c #AFBCE1",
"p#	c #9BA8D5",
"q#	c #9CA9D7",
"r#	c #8C99CB",
"s#	c #B6C1DE",
"t#	c #A4B0C7",
"u#	c #9AA4CF",
"v#	c #DBE0F1",
"w#	c #DFE5F0",
"x#	c #EEF2F7",
"y#	c #F7F9FB",
"z#	c #F8FAFC",
"A#	c #E8EEF5",
"B#	c #E6ECF4",
"C#	c #DDE5EF",
"D#	c #D6DFED",
"E#	c #CAD2E6",
"F#	c #A2AED0",
"G#	c #BFC8E1",
"H#	c #EEF2F9",
"I#	c #DEE5EF",
"J#	c #DCE3ED",
"K#	c #CDD5DB",
"L#	c #C9D3DB",
"M#	c #8F9AA6",
"N#	c #8C939C",
"O#	c #9C9A96",
"P#	c #6272B0",
"Q#	c #798BC6",
"R#	c #909FD2",
"S#	c #ABB7DC",
"T#	c #9EACD8",
"U#	c #C3D0E5",
"V#	c #DAE3EE",
"W#	c #F0F4F8",
"X#	c #CFD6E9",
"Y#	c #E2E7F4",
"Z#	c #D2DAEE",
"`#	c #E6EBF2",
" $	c #E8EFF5",
".$	c #E0E6F2",
"+$	c #DAE3F0",
"@$	c #CBD5EA",
"#$	c #C1CDE2",
"$$	c #C4CDDE",
"%$	c #C9D1E0",
"&$	c #C7D0E1",
"*$	c #A4AFCE",
"=$	c #B2BDDA",
"-$	c #BECAE3",
";$	c #E5ECF4",
">$	c #CCD2E2",
",$	c #BCC7D4",
"'$	c #8997B5",
")$	c #858EA0",
"!$	c #8F979E",
"~$	c #989792",
"{$	c #6170AD",
"]$	c #7184C2",
"^$	c #8695CA",
"/$	c #BBC3E3",
"($	c #99A8D4",
"_$	c #C3D5E4",
":$	c #DFEBED",
"<$	c #DBE1E7",
"[$	c #E3EBEB",
"}$	c #E9EEF1",
"|$	c #BEC8E6",
"1$	c #DFE5EF",
"2$	c #E1EAF2",
"3$	c #DEE6F1",
"4$	c #D2DCED",
"5$	c #C2CDE1",
"6$	c #B9C4D8",
"7$	c #D9E0EA",
"8$	c #EEF1F6",
"9$	c #F0F3F6",
"0$	c #D2D8E4",
"a$	c #B6C1DA",
"b$	c #C2CCE2",
"c$	c #E1E6EE",
"d$	c #DEE4F0",
"e$	c #A0ABC8",
"f$	c #D9DFEA",
"g$	c #A2AEC7",
"h$	c #8795AE",
"i$	c #7A89A1",
"j$	c #8B8B88",
"k$	c #6371AC",
"l$	c #7F91C8",
"m$	c #BBC5E4",
"n$	c #C8D1EA",
"o$	c #A2B0DA",
"p$	c #CBD9E9",
"q$	c #DDE7E6",
"r$	c #CFD8D0",
"s$	c #CCD9D4",
"t$	c #E2EAE8",
"u$	c #B8C2DE",
"v$	c #CED4E8",
"w$	c #E9EFF4",
"x$	c #E1E9F1",
"y$	c #DCE4F0",
"z$	c #D1DAEA",
"A$	c #BAC3D3",
"B$	c #C3CCDE",
"C$	c #ECEFF3",
"D$	c #F9FBFD",
"E$	c #FBFDFE",
"F$	c #C9D1DF",
"G$	c #C2CBDF",
"H$	c #C4CCDE",
"I$	c #E2E8F1",
"J$	c #B1BBD3",
"K$	c #ACB6CE",
"L$	c #9CA7C1",
"M$	c #7A88A8",
"N$	c #707F9F",
"O$	c #8B8F94",
"P$	c #5A69A2",
"Q$	c #8B9ACA",
"R$	c #ECF1F9",
"S$	c #E5EBF6",
"T$	c #94A3D4",
"U$	c #E2E8F5",
"V$	c #E1E6EA",
"W$	c #ECEFF1",
"X$	c #DEE6E3",
"Y$	c #CCDCD7",
"Z$	c #C8D1DD",
"`$	c #AFBADA",
" %	c #D1DAE8",
".%	c #DCE3EC",
"+%	c #DDE4F0",
"@%	c #E3E8F1",
"#%	c #C7CFDC",
"$%	c #CBD5E4",
"%%	c #DAE1EA",
"&%	c #EBEFF2",
"*%	c #FBFCFD",
"=%	c #CED5E2",
"-%	c #828CB7",
";%	c #808CB4",
">%	c #B0BAD2",
",%	c #A1ADC6",
"'%	c #818DAC",
")%	c #7482A2",
"!%	c #7281A1",
"~%	c #808B9B",
"{%	c #51668F",
"]%	c #6676B2",
"^%	c #CFD7EB",
"/%	c #ECF1FA",
"(%	c #B0BCDF",
"_%	c #C6D0E9",
":%	c #C6D1EA",
"<%	c #DDE4F3",
"[%	c #FAFBFB",
"}%	c #EAF1EE",
"|%	c #CCD7D2",
"1%	c #CACFDD",
"2%	c #B2BBD2",
"3%	c #EDF0EE",
"4%	c #F8F9FB",
"5%	c #D4DBE6",
"6%	c #D7DEEA",
"7%	c #D0D8E8",
"8%	c #B0BAD8",
"9%	c #B7BFD8",
"0%	c #E1E6EC",
"a%	c #CED4E3",
"b%	c #A3AECC",
"c%	c #C1CADE",
"d%	c #D8DFEC",
"e%	c #9BA7C3",
"f%	c #8996B5",
"g%	c #6C7A9C",
"h%	c #7280A1",
"i%	c #7988A5",
"j%	c #637397",
"k%	c #6373AC",
"l%	c #7F8EC3",
"m%	c #D5DDEF",
"n%	c #AAB7DC",
"o%	c #CCD6ED",
"p%	c #D2DBEF",
"q%	c #E6ECEA",
"r%	c #E4E7E3",
"s%	c #DEE0DA",
"t%	c #CFD1D4",
"u%	c #E6E6E6",
"v%	c #F9FBFC",
"w%	c #D5DAE3",
"x%	c #D0CFD0",
"y%	c #DADADA",
"z%	c #D8DEE8",
"A%	c #BFC7DF",
"B%	c #D5DAE8",
"C%	c #EFF1F4",
"D%	c #A3AFCC",
"E%	c #E1E7F1",
"F%	c #B7C2D7",
"G%	c #919DBB",
"H%	c #7B88A8",
"I%	c #69779A",
"J%	c #7886A5",
"K%	c #8896AF",
"L%	c #5E6CA1",
"M%	c #7281B8",
"N%	c #7B8DC3",
"O%	c #D2DBEE",
"P%	c #D1D9ED",
"Q%	c #B3C0E1",
"R%	c #E1E9F5",
"S%	c #CDDDDA",
"T%	c #E6EEEC",
"U%	c #CED8DB",
"V%	c #C3CACB",
"W%	c #E0E5E9",
"X%	c #E4E5E5",
"Y%	c #C4C6CA",
"Z%	c #B6BDD1",
"`%	c #D6D6D8",
" &	c #D8DFEE",
".&	c #F0F4F9",
"+&	c #B9C3D9",
"@&	c #97A3C3",
"#&	c #909ABB",
"$&	c #B5C1D5",
"%&	c #7F8BAB",
"&&	c #6D7C9E",
"*&	c #7785A3",
"=&	c #A5B1C7",
"-&	c #6C79AF",
";&	c #7A8ABF",
">&	c #8897C9",
",&	c #C8D2E9",
"'&	c #BECAE5",
")&	c #BAC7E4",
"!&	c #E9EFF5",
"~&	c #E9F1F0",
"{&	c #E2EBEA",
"]&	c #C5D4D2",
"^&	c #DFE6EB",
"/&	c #F3F7F7",
"(&	c #CCCECA",
"_&	c #B5B3B9",
":&	c #A4ACC9",
"<&	c #EBEEF0",
"[&	c #F1F2F2",
"}&	c #F6F8FC",
"|&	c #DFE4EF",
"1&	c #E6EBF3",
"2&	c #ABB5D0",
"3&	c #C8D0E1",
"4&	c #B4BED2",
"5&	c #818DAD",
"6&	c #6E7C9C",
"7&	c #6F7D9B",
"8&	c #6878A3",
"9&	c #7886B9",
"0&	c #7B8BBF",
"a&	c #7C8BC1",
"b&	c #ABB7D9",
"c&	c #D6DEEF",
"d&	c #B4C3DA",
"e&	c #B8CBCA",
"f&	c #EAF1F1",
"g&	c #D8E4E2",
"h&	c #C3D4D3",
"i&	c #F7F9F9",
"j&	c #F7F8F8",
"k&	c #9299B3",
"l&	c #5B619C",
"m&	c #6A6FA2",
"n&	c #D7DADF",
"o&	c #E6E9EE",
"p&	c #C0C8D6",
"q&	c #BCC6D5",
"r&	c #C6CEDF",
"s&	c #FAFCFE",
"t&	c #B9C1D2",
"u&	c #69789A",
"v&	c #677898",
"w&	c #697795",
"x&	c #697993",
"y&	c #737EB1",
"z&	c #7685B8",
"A&	c #7382B9",
"B&	c #7786BC",
"C&	c #7F8EC1",
"D&	c #91A4C6",
"E&	c #C8D7D8",
"F&	c #DBE5E5",
"G&	c #BACCC9",
"H&	c #B0C4C3",
"I&	c #F0F3F4",
"J&	c #EDF1F1",
"K&	c #9294AC",
"L&	c #5C649A",
"M&	c #5E669D",
"N&	c #9599AC",
"O&	c #C1C7C7",
"P&	c #D9DADA",
"Q&	c #B2BABA",
"R&	c #8996A4",
"S&	c #9CA7B9",
"T&	c #ECF1F6",
"U&	c #D8DDE6",
"V&	c #6D7C9C",
"W&	c #677694",
"X&	c #64708F",
"Y&	c #707EAF",
"Z&	c #7C8ABB",
"`&	c #7686BA",
" *	c #7485BB",
".*	c #8099A7",
"+*	c #9EABA4",
"@*	c #9FB4B1",
"#*	c #BAC2BE",
"$*	c #9CA8A2",
"%*	c #E3EAE9",
"&*	c #E4ECEE",
"**	c #CCD6D5",
"=*	c #E1E3E3",
"-*	c #EEF1F4",
";*	c #FEFFFF",
">*	c #F5F8F9",
",*	c #E1E8EE",
"'*	c #909EBA",
")*	c #7382A6",
"!*	c #929EB8",
"~*	c #D5DBE4",
"{*	c #808DA8",
"]*	c #6D7B98",
"^*	c #7482AF",
"/*	c #7D8BB9",
"(*	c #798BBB",
"_*	c #889EAB",
":*	c #BBB5AB",
"<*	c #A2AFA8",
"[*	c #A2B0AB",
"}*	c #A4A29D",
"|*	c #A4B3AF",
"1*	c #EFF4F5",
"2*	c #DEE7E8",
"3*	c #BDCBD4",
"4*	c #B3C4C5",
"5*	c #E4ECEC",
"6*	c #96A4BF",
"7*	c #7F8EAC",
"8*	c #8F9CB4",
"9*	c #7A87A2",
"0*	c #76819D",
"a*	c #777CB0",
"b*	c #7D89B7",
"c*	c #7B8BB6",
"d*	c #B0AFAD",
"e*	c #ABAEA6",
"f*	c #A4ABA2",
"g*	c #98A29E",
"h*	c #95A5A2",
"i*	c #A6B8B6",
"j*	c #B1C2C0",
"k*	c #8598A6",
"l*	c #9BADB7",
"m*	c #E1E9ED",
"n*	c #BDCBCF",
"o*	c #9EACC4",
"p*	c #94A2BD",
"q*	c #7888A7",
"r*	c #6D7C9A",
"s*	c #5F6E8D",
"t*	c #5C6C8D",
"u*	c #7783B2",
"v*	c #7785AA",
"w*	c #909BA6",
"x*	c #A4ABA6",
"y*	c #B8BFBD",
"z*	c #C3C9C8",
"A*	c #D1DCDB",
"B*	c #E3EAEB",
"C*	c #DCE5E6",
"D*	c #CAD6D6",
"E*	c #BAC5C7",
"F*	c #7D90A6",
"G*	c #647598",
"H*	c #6A7A9A",
"I*	c #687594",
"J*	c #5D6B8B",
"K*	c #B5C3D7",
"L*	c #BAC8D0",
"M*	c #B7BEBC",
"N*	c #A7B3B4",
"O*	c #8394A8",
"P*	c #778BA0",
"Q*	c #6F8398",
"R*	c #7A8DA1",
"S*	c #8193A5",
"T*	c #677992",
"U*	c #61708D",
"V*	c #5D6E89",
"                    . + @ # $ % & * = - ; >                     ",
"                , ' ) ! ~ { ] ^ / ( _ : < [ } |                 ",
"            1 2 3 4 5 6 7 8 9 0 a b c d e f g h i j             ",
"          k l m n o p q r s t u v w x y z A B C D E F           ",
"        G H I J K L M N O P Q R S T U V W X Y Z `  ...+.        ",
"      @.#.$.%.&.*.=.-.;.>.,.'.).!.~.{.].^./.(._.:.<.[.}.|.      ",
"    1.2.3.4.5.6.7.8.9.0.a.b.c.d.e.f.g.h.i.j.k.l.m.n.o.p.q.r.    ",
"    s.t.u.v.w.x.y.z.A.B.C.D.E.F.G.H.I.J.K.L.M.N.O.P.Q.R.S.T.    ",
"  U.V.W.X.Y.Z.`. +.+++@+#+$+%+&+*+=+-+;+>+,+'+)+!+~+{+]+^+/+(+  ",
"  _+:+<+[+}+|+1+2+3+4+5+6+7+/ / 8+9+0+a+b+c+d+e+f+g+h+i+j+k+l+  ",
"m+n+o+p+q+r+s+t+u+v+7+w+x+y+z+A+B+C+D+E+F+G+H+I+J+K+L+M+N+O+P+Q+",
"R+S+T+U+V+W+X+Y+Z+7+`+ @.@+@3+@@#@$@%@&@*@=@-@;@>@,@'@)@!@~@{@]@",
"^@/@(@_@:@<@[@}@|@1@2@3@4@5@.@6@7@8@9@0@a@b@c@d@e@f@g@h@i@j@k@l@",
"m@n@o@p@q@r@s@t@u@$ v@w@x@y@z@A@B@C@D@E@F@G@H@I@J@K@L@M@N@O@P@Q@",
"R@S@T@U@V@W@X@Y@Z@`@ #.#+#A@@###$#%#&#*#4@=#-#;#>#,#'#)#!#~#{#]#",
"^#/#S+(#_#:#<#[#}#|#1#2#3#4#5#x@6#7#8#9#0#a#b#c#d#e#f#g#h#i#j#k#",
"l#m#n#o#p#q#r#s#t#u#v#w#7@x#y#z#A#E@B#C#D#E#F#G#H#I#J#K#L#M#N#O#",
"P#Q#R#S#T#U#V#W#X#Y#Z#`#B@ $.$+$@$#$$$%$&$*$=$-$;$w#>$,$'$)$!$~$",
"{$]$^$/$($_$:$<$[$}$|$1$2$3$4$4$5$6$7$8$9$0$a$b$c$d$e$f$g$h$i$j$",
"k$l$m$n$o$p$q$r$s$t$u$v$w$x$y$z$A$B$C$D$E$w+F$G$H$I$J$K$L$M$N$O$",
"P$Q$R$S$T$U$V$W$X$Y$Z$`$ %.%+%@%#%$%%%&%3+*%=%-%;%1$>%,%'%)%!%~%",
"{%]%^%/%(%_%:%<%[%}%|%1%2%3%4%5%6%7%8%9%0%3+a%b%c%d%e%f%g%h%i%j%",
"  k%l%m%V+n%o%p%3+q%r%s%t%u%v%w%x%y%z%A%B% +C%D%E%F%G%H%I%J%K%  ",
"  L%M%N%O%P%Q%R%#@S%T%U%V%W%v%X%Y%Z%`%3# &.&x#+&@&#&$&%&&&*&=&  ",
"    -&;&>&,&'&)&!&~&{&]&^&/&$@(&_&:&<&[&}&|&1&2&3&4&5&J%6&7&    ",
"    8&9&0&a&b&c&d&e&f&g&h&i&j&k&l&m&n&o&<&p&q&r&s&t&u&v&w&x&    ",
"      y&z&A&B&C&D&E&F&G&H&I&J&K&L&M&N&O&P&Q&R&S&T&U&V&W&X&      ",
"        Y&Z&`& *.*+*@*#*$*%*&***=*&%-*;*>*,*'*)*!*~*{*]*        ",
"          ^*/*(*_*:*<*[*}*|*1*2*3*4*5*v%E$+#6*7*8*9*0*          ",
"            a*b*c*d*e*f*g*h*i*j*k*l*m*n*o*p*q*r*s*t*            ",
"                u*v*w*x*y*z*A*B*C*D*E*F*G*H*I*J*                ",
"                    K*L*M*N*O*P*Q*R*S*T*U*V*                    "};
