/* XPM */
static char * world_up_pretend_32_xpm[] = {
"32 32 811 2",
"  	c None",
". 	c #4E687C",
"+ 	c #A9B7C1",
"@ 	c #D3D9DE",
"# 	c #DCE2E6",
"$ 	c #DEE4E7",
"% 	c #DCE2E7",
"& 	c #DAE0E6",
"* 	c #DEE3E7",
"= 	c #D1DADD",
"- 	c #C4CFD3",
"; 	c #8699A3",
"> 	c #46637B",
", 	c #4D6685",
"' 	c #A2B1C1",
") 	c #CDD6D7",
"! 	c #E3E8E2",
"~ 	c #E4E4DC",
"{ 	c #E2E8E5",
"] 	c #F5F6F4",
"^ 	c #FAFAF7",
"/ 	c #FBFBFA",
"( 	c #F9F9F7",
"_ 	c #EDEDE9",
": 	c #D8DFDE",
"< 	c #97A5A2",
"[ 	c #909799",
"} 	c #707E92",
"| 	c #4F6784",
"1 	c #466177",
"2 	c #697CA1",
"3 	c #C0CCD9",
"4 	c #DCE8E6",
"5 	c #D6E1DD",
"6 	c #CCCAC1",
"7 	c #EAE1C9",
"8 	c #F3F0E1",
"9 	c #F2EDE1",
"0 	c #EFE9DB",
"a 	c #F3EFE8",
"b 	c #F8F8F7",
"c 	c #F6F7F7",
"d 	c #EFEFEC",
"e 	c #E2E4E3",
"f 	c #B8B6AE",
"g 	c #AFA99E",
"h 	c #9B9C9F",
"i 	c #7F8A95",
"j 	c #546A7D",
"k 	c #4B6688",
"l 	c #6273A8",
"m 	c #D8DDED",
"n 	c #EAF0F6",
"o 	c #A6C1BD",
"p 	c #BAC6BE",
"q 	c #E3DBD2",
"r 	c #E6E9E5",
"s 	c #F1F4F2",
"t 	c #F5F5F3",
"u 	c #F4F4F3",
"v 	c #D2D4CF",
"w 	c #A7AFAB",
"x 	c #C6BCB0",
"y 	c #CEC0B2",
"z 	c #CEC0B1",
"A 	c #C1B4A2",
"B 	c #BCAF9C",
"C 	c #BBB1A0",
"D 	c #B3AC9F",
"E 	c #84898E",
"F 	c #7B8385",
"G 	c #566D90",
"H 	c #6576AE",
"I 	c #B6C4DD",
"J 	c #CCDBE0",
"K 	c #BCCED3",
"L 	c #B4CBC2",
"M 	c #BBC5BE",
"N 	c #E0E9E7",
"O 	c #ECF1F0",
"P 	c #F2F6F6",
"Q 	c #DEE8E7",
"R 	c #9EB4AF",
"S 	c #8AA49E",
"T 	c #88A39C",
"U 	c #A3ABA2",
"V 	c #AEA7A1",
"W 	c #BDAE9E",
"X 	c #C2B19C",
"Y 	c #A69E9B",
"Z 	c #C0B2A0",
"` 	c #ABACAD",
" .	c #9C9C9C",
"..	c #969590",
"+.	c #787E7F",
"@.	c #596F91",
"#.	c #7889BA",
"$.	c #9CAED0",
"%.	c #B6C4E4",
"&.	c #B7CCCD",
"*.	c #9FBBB1",
"=.	c #A0BDB3",
"-.	c #AEC7BF",
";.	c #DDE7E4",
">.	c #F5F9F9",
",.	c #C7D8D5",
"'.	c #9AB5AD",
").	c #95ADA5",
"!.	c #95ACA4",
"~.	c #C0C8BF",
"{.	c #C1CCC8",
"].	c #B3BEB9",
"^.	c #9EA099",
"/.	c #BEB5AD",
"(.	c #A99D93",
"_.	c #D2C9BE",
":.	c #8F97AC",
"<.	c #959EA6",
"[.	c #9A9791",
"}.	c #96938A",
"|.	c #68747F",
"1.	c #466579",
"2.	c #8595BD",
"3.	c #B0C0E0",
"4.	c #A4B2D5",
"5.	c #8AA1BA",
"6.	c #9CB8B1",
"7.	c #A9C4BA",
"8.	c #ADC6BE",
"9.	c #EEF4F2",
"0.	c #F2F6F5",
"a.	c #E1E9E7",
"b.	c #D6E0DD",
"c.	c #CBD2C9",
"d.	c #C0C2B8",
"e.	c #CDC9B8",
"f.	c #C6C8BA",
"g.	c #D5DAD1",
"h.	c #9AB1AA",
"i.	c #8CA49A",
"j.	c #A0ADA7",
"k.	c #A6B0AD",
"l.	c #DBD8D6",
"m.	c #A3A0A0",
"n.	c #98A1A2",
"o.	c #929998",
"p.	c #A19B90",
"q.	c #828589",
"r.	c #6A767C",
"s.	c #7D8DB1",
"t.	c #B4C0E1",
"u.	c #899BCC",
"v.	c #A2B6D0",
"w.	c #A0B8C5",
"x.	c #9EBAB3",
"y.	c #AEC5BD",
"z.	c #E7EEED",
"A.	c #F3F6F5",
"B.	c #D7DEDB",
"C.	c #E5E7E7",
"D.	c #E7E6E4",
"E.	c #E4DED3",
"F.	c #E1DBCE",
"G.	c #EDE9DA",
"H.	c #E2DDCE",
"I.	c #D5D4C9",
"J.	c #B3C1BC",
"K.	c #E0E8E6",
"L.	c #B2B8B3",
"M.	c #BABFBC",
"N.	c #C9D1D1",
"O.	c #B2B5B2",
"P.	c #E1E2E2",
"Q.	c #B5BFCE",
"R.	c #8B9295",
"S.	c #7F8692",
"T.	c #8B8B86",
"U.	c #5A7293",
"V.	c #AFB9D8",
"W.	c #DDE5F3",
"X.	c #8A9ED0",
"Y.	c #94A8D2",
"Z.	c #95ACC0",
"`.	c #CAD6D9",
" +	c #F3F6F6",
".+	c #F4F8F7",
"++	c #D4DAD7",
"@+	c #DFE2DF",
"#+	c #E2DFDA",
"$+	c #787773",
"%+	c #2A2A28",
"&+	c #070707",
"*+	c #080808",
"=+	c #2D2D2D",
"-+	c #757674",
";+	c #D6DBD8",
">+	c #EDEEEB",
",+	c #E1E5E4",
"'+	c #B9BBB5",
")+	c #D2DAD8",
"!+	c #9FB2B0",
"~+	c #E4E8E8",
"{+	c #EAEEF0",
"]+	c #96A3B5",
"^+	c #7B8592",
"/+	c #898C8F",
"(+	c #7F8380",
"_+	c #798AB5",
":+	c #E2E7F5",
"<+	c #D7DEF1",
"[+	c #ABBBE1",
"}+	c #CCD6EE",
"|+	c #9BABD7",
"1+	c #D7DEF0",
"2+	c #FBFBFB",
"3+	c #F9FBFB",
"4+	c #F3F4F4",
"5+	c #E3E5E4",
"6+	c #3C3C3B",
"7+	c #000000",
"8+	c #0B0B0B",
"9+	c #4A4A4A",
"0+	c #272828",
"a+	c #CDC6BB",
"b+	c #DBD8CF",
"c+	c #CFD6D4",
"d+	c #D8DFDF",
"e+	c #E7EDEE",
"f+	c #F3F6F7",
"g+	c #DFE6E7",
"h+	c #A8B7C5",
"i+	c #778895",
"j+	c #798497",
"k+	c #8A8884",
"l+	c #476480",
"m+	c #7D8CC0",
"n+	c #E0E7F6",
"o+	c #D9E1F3",
"p+	c #DAE1F2",
"q+	c #C4CDE8",
"r+	c #96A4D4",
"s+	c #E7EBF6",
"t+	c #FCFDFC",
"u+	c #FDFEFD",
"v+	c #FEFEFE",
"w+	c #828383",
"x+	c #282829",
"y+	c #D7D8D8",
"z+	c #F4F5F4",
"A+	c #FFFFFF",
"B+	c #E4E5E7",
"C+	c #202228",
"D+	c #454A56",
"E+	c #A0A6B4",
"F+	c #959FA2",
"G+	c #879798",
"H+	c #869898",
"I+	c #AAB8B7",
"J+	c #9CACAB",
"K+	c #9AACAC",
"L+	c #7B8E91",
"M+	c #6F8196",
"N+	c #8E8E8C",
"O+	c #7F817F",
"P+	c #55679A",
"Q+	c #909FD1",
"R+	c #D2DBF0",
"S+	c #BBC7E7",
"T+	c #EFF3FA",
"U+	c #B5C3D4",
"V+	c #A3B1D6",
"W+	c #CFDBDD",
"X+	c #FDFEFE",
"Y+	c #FCFDFD",
"Z+	c #1F1F20",
"`+	c #B5B7B9",
" @	c #F3F5F7",
".@	c #F6F8FA",
"+@	c #FEFEFF",
"@@	c #C2C4CA",
"#@	c #0F1013",
"$@	c #8E9BC0",
"%@	c #A9B7C0",
"&@	c #899696",
"*@	c #768A96",
"=@	c #798C92",
"-@	c #738988",
";@	c #859392",
">@	c #6F8382",
",@	c #667891",
"'@	c #7B8594",
")@	c #8D8B86",
"!@	c #6473AB",
"~@	c #AEBCE1",
"{@	c #CAD6EE",
"]@	c #A7B5E1",
"^@	c #B6C5E8",
"/@	c #A7B8CA",
"(@	c #AEBAD3",
"_@	c #A4B8BC",
":@	c #B8C8C2",
"<@	c #FAFAFA",
"[@	c #E0E6EA",
"}@	c #52555A",
"|@	c #464747",
"1@	c #F0F2F6",
"2@	c #F4F7FA",
"3@	c #F1F4F7",
"4@	c #EBF0F5",
"5@	c #E2E9F2",
"6@	c #DFE5EF",
"7@	c #050607",
"8@	c #B1BCD9",
"9@	c #C0CFCE",
"0@	c #8DA2A5",
"a@	c #8B9DA5",
"b@	c #7A8AAB",
"c@	c #6E7B97",
"d@	c #7E8785",
"e@	c #6E8182",
"f@	c #68798F",
"g@	c #788293",
"h@	c #8A8782",
"i@	c #6979B2",
"j@	c #BCC9E8",
"k@	c #A3B1DC",
"l@	c #A9B9E2",
"m@	c #B9C6E6",
"n@	c #97A7D7",
"o@	c #8CA2BE",
"p@	c #ACC4BE",
"q@	c #A5BAB0",
"r@	c #DBE1F0",
"s@	c #DEE4F1",
"t@	c #F2F5F9",
"u@	c #F0F3F7",
"v@	c #EDF1F5",
"w@	c #EFF2F6",
"x@	c #E6ECF3",
"y@	c #DBE3EF",
"z@	c #A1A7AF",
"A@	c #2D2F33",
"B@	c #D4DBEC",
"C@	c #D4DDE4",
"D@	c #C2CFCE",
"E@	c #EAEFF2",
"F@	c #C0CBD0",
"G@	c #808C9C",
"H@	c #748386",
"I@	c #7B8B8A",
"J@	c #657789",
"K@	c #878F9A",
"L@	c #94928D",
"M@	c #6272AE",
"N@	c #8EA0D4",
"O@	c #8698CE",
"P@	c #95A6D7",
"Q@	c #93A3D5",
"R@	c #8A99CF",
"S@	c #94A8BD",
"T@	c #9DBBAF",
"U@	c #B6C5BD",
"V@	c #DAE0EC",
"W@	c #F3F6FB",
"X@	c #EFF2F8",
"Y@	c #EFF3F7",
"Z@	c #E6EDF4",
"`@	c #E0E8F1",
" #	c #EAEEF4",
".#	c #C2C8CF",
"+#	c #171819",
"@#	c #AEB0B2",
"##	c #C3CDE3",
"$#	c #A6B1D1",
"%#	c #94A1C1",
"&#	c #C5D0DA",
"*#	c #F2F5F5",
"=#	c #A7B0C3",
"-#	c #7B8C98",
";#	c #808D8E",
">#	c #6B7989",
",#	c #8790A0",
"'#	c #98968F",
")#	c #6475B1",
"!#	c #7D8FCA",
"~#	c #A8B5DD",
"{#	c #919FD1",
"]#	c #96A2D2",
"^#	c #8393C0",
"/#	c #A2BCB7",
"(#	c #D8DEDA",
"_#	c #BCC5E0",
":#	c #FCFCFE",
"<#	c #F1F4F9",
"[#	c #EFF3F6",
"}#	c #F3F6FA",
"|#	c #F3F6F9",
"1#	c #BBC1C7",
"2#	c #131415",
"3#	c #838589",
"4#	c #DCE4EE",
"5#	c #C0CAE1",
"6#	c #A5B0D2",
"7#	c #ADB8D7",
"8#	c #F2F5FA",
"9#	c #EFF3F8",
"0#	c #A0ACC9",
"a#	c #C2CADB",
"b#	c #BEC8CB",
"c#	c #859094",
"d#	c #7A8598",
"e#	c #A09F9B",
"f#	c #6373B1",
"g#	c #7D8FC8",
"h#	c #96A5D4",
"i#	c #AFBCE1",
"j#	c #9BA8D5",
"k#	c #9CA9D7",
"l#	c #8C99CB",
"m#	c #B6C1DE",
"n#	c #A4B0C7",
"o#	c #9AA4CF",
"p#	c #DBE0F1",
"q#	c #DFE5F0",
"r#	c #EEF2F7",
"s#	c #F7F9FB",
"t#	c #DCDEE0",
"u#	c #141415",
"v#	c #898C91",
"w#	c #DDE5EF",
"x#	c #D6DFED",
"y#	c #CAD2E6",
"z#	c #A2AED0",
"A#	c #BFC8E1",
"B#	c #EEF2F9",
"C#	c #DEE5EF",
"D#	c #DCE3ED",
"E#	c #CDD5DB",
"F#	c #C9D3DB",
"G#	c #8F9AA6",
"H#	c #8C939C",
"I#	c #9C9A96",
"J#	c #6272B0",
"K#	c #798BC6",
"L#	c #909FD2",
"M#	c #ABB7DC",
"N#	c #9EACD8",
"O#	c #C3D0E5",
"P#	c #DAE3EE",
"Q#	c #F0F4F8",
"R#	c #CFD6E9",
"S#	c #E2E7F4",
"T#	c #D2DAEE",
"U#	c #E6EBF2",
"V#	c #E8EFF5",
"W#	c #E0E6F2",
"X#	c #515459",
"Y#	c #5C626C",
"Z#	c #C4CDDE",
"`#	c #C9D1E0",
" $	c #C7D0E1",
".$	c #A4AFCE",
"+$	c #B2BDDA",
"@$	c #BECAE3",
"#$	c #E5ECF4",
"$$	c #CCD2E2",
"%$	c #BCC7D4",
"&$	c #8997B5",
"*$	c #858EA0",
"=$	c #8F979E",
"-$	c #989792",
";$	c #6170AD",
">$	c #7184C2",
",$	c #8695CA",
"'$	c #BBC3E3",
")$	c #99A8D4",
"!$	c #C3D5E4",
"~$	c #DFEBED",
"{$	c #DBE1E7",
"]$	c #E3EBEB",
"^$	c #E9EEF1",
"/$	c #BEC8E6",
"($	c #E1EAF2",
"_$	c #DEE6F1",
":$	c #D2DCED",
"<$	c #121315",
"[$	c #A6B0C2",
"}$	c #D9E0EA",
"|$	c #EEF1F6",
"1$	c #F0F3F6",
"2$	c #D2D8E4",
"3$	c #B6C1DA",
"4$	c #C2CCE2",
"5$	c #E1E6EE",
"6$	c #DEE4F0",
"7$	c #A0ABC8",
"8$	c #D9DFEA",
"9$	c #A2AEC7",
"0$	c #8795AE",
"a$	c #7A89A1",
"b$	c #8B8B88",
"c$	c #6371AC",
"d$	c #7F91C8",
"e$	c #BBC5E4",
"f$	c #C8D1EA",
"g$	c #A2B0DA",
"h$	c #CBD9E9",
"i$	c #DDE7E6",
"j$	c #CFD8D0",
"k$	c #CCD9D4",
"l$	c #E2EAE8",
"m$	c #B8C2DE",
"n$	c #CED4E8",
"o$	c #E9EFF4",
"p$	c #E1E9F1",
"q$	c #DCE4F0",
"r$	c #C3CCDE",
"s$	c #ECEFF3",
"t$	c #F9FBFD",
"u$	c #FBFDFE",
"v$	c #FBFCFC",
"w$	c #C9D1DF",
"x$	c #C2CBDF",
"y$	c #C4CCDE",
"z$	c #E2E8F1",
"A$	c #B1BBD3",
"B$	c #ACB6CE",
"C$	c #9CA7C1",
"D$	c #7A88A8",
"E$	c #707F9F",
"F$	c #8B8F94",
"G$	c #5A69A2",
"H$	c #8B9ACA",
"I$	c #ECF1F9",
"J$	c #E5EBF6",
"K$	c #94A3D4",
"L$	c #E2E8F5",
"M$	c #E1E6EA",
"N$	c #ECEFF1",
"O$	c #DEE6E3",
"P$	c #CCDCD7",
"Q$	c #C8D1DD",
"R$	c #AFBADA",
"S$	c #D1DAE8",
"T$	c #DCE3EC",
"U$	c #DDE4F0",
"V$	c #E3E8F1",
"W$	c #C7CFDC",
"X$	c #CBD5E4",
"Y$	c #DAE1EA",
"Z$	c #EBEFF2",
"`$	c #FBFCFD",
" %	c #CED5E2",
".%	c #828CB7",
"+%	c #808CB4",
"@%	c #B0BAD2",
"#%	c #A1ADC6",
"$%	c #818DAC",
"%%	c #7482A2",
"&%	c #7281A1",
"*%	c #808B9B",
"=%	c #51668F",
"-%	c #6676B2",
";%	c #CFD7EB",
">%	c #ECF1FA",
",%	c #B0BCDF",
"'%	c #C6D0E9",
")%	c #C6D1EA",
"!%	c #DDE4F3",
"~%	c #FAFBFB",
"{%	c #EAF1EE",
"]%	c #CCD7D2",
"^%	c #CACFDD",
"/%	c #B2BBD2",
"(%	c #EDF0EE",
"_%	c #F8F9FB",
":%	c #878B93",
"<%	c #8B8F97",
"[%	c #D0D8E8",
"}%	c #B0BAD8",
"|%	c #B7BFD8",
"1%	c #E1E6EC",
"2%	c #CED4E3",
"3%	c #A3AECC",
"4%	c #C1CADE",
"5%	c #D8DFEC",
"6%	c #9BA7C3",
"7%	c #8996B5",
"8%	c #6C7A9C",
"9%	c #7280A1",
"0%	c #7988A5",
"a%	c #637397",
"b%	c #6373AC",
"c%	c #7F8EC3",
"d%	c #D5DDEF",
"e%	c #AAB7DC",
"f%	c #CCD6ED",
"g%	c #D2DBEF",
"h%	c #E6ECEA",
"i%	c #E4E7E3",
"j%	c #DEE0DA",
"k%	c #CFD1D4",
"l%	c #E6E6E6",
"m%	c #F9FBFC",
"n%	c #020202",
"o%	c #DADADA",
"p%	c #D8DEE8",
"q%	c #BFC7DF",
"r%	c #D5DAE8",
"s%	c #EFF1F4",
"t%	c #A3AFCC",
"u%	c #E1E7F1",
"v%	c #B7C2D7",
"w%	c #919DBB",
"x%	c #7B88A8",
"y%	c #69779A",
"z%	c #7886A5",
"A%	c #8896AF",
"B%	c #5E6CA1",
"C%	c #7281B8",
"D%	c #7B8DC3",
"E%	c #D2DBEE",
"F%	c #D1D9ED",
"G%	c #B3C0E1",
"H%	c #E1E9F5",
"I%	c #CDDDDA",
"J%	c #E6EEEC",
"K%	c #CED8DB",
"L%	c #C3CACB",
"M%	c #E0E5E9",
"N%	c #B6BDD1",
"O%	c #D6D6D8",
"P%	c #D8DFEE",
"Q%	c #F0F4F9",
"R%	c #B9C3D9",
"S%	c #97A3C3",
"T%	c #909ABB",
"U%	c #B5C1D5",
"V%	c #7F8BAB",
"W%	c #6D7C9E",
"X%	c #7785A3",
"Y%	c #A5B1C7",
"Z%	c #6C79AF",
"`%	c #7A8ABF",
" &	c #8897C9",
".&	c #C8D2E9",
"+&	c #BECAE5",
"@&	c #BAC7E4",
"#&	c #E9EFF5",
"$&	c #E9F1F0",
"%&	c #E2EBEA",
"&&	c #C5D4D2",
"*&	c #DFE6EB",
"=&	c #F3F7F7",
"-&	c #CCCECA",
";&	c #B5B3B9",
">&	c #A4ACC9",
",&	c #EBEEF0",
"'&	c #F1F2F2",
")&	c #F6F8FC",
"!&	c #DFE4EF",
"~&	c #E6EBF3",
"{&	c #ABB5D0",
"]&	c #C8D0E1",
"^&	c #B4BED2",
"/&	c #818DAD",
"(&	c #6E7C9C",
"_&	c #6F7D9B",
":&	c #6878A3",
"<&	c #7886B9",
"[&	c #7B8BBF",
"}&	c #7C8BC1",
"|&	c #ABB7D9",
"1&	c #D6DEEF",
"2&	c #B4C3DA",
"3&	c #B8CBCA",
"4&	c #EAF1F1",
"5&	c #D8E4E2",
"6&	c #C3D4D3",
"7&	c #F7F9F9",
"8&	c #F7F8F8",
"9&	c #9299B3",
"0&	c #5B619C",
"a&	c #6A6FA2",
"b&	c #D7DADF",
"c&	c #E6E9EE",
"d&	c #C0C8D6",
"e&	c #BCC6D5",
"f&	c #C6CEDF",
"g&	c #FAFCFE",
"h&	c #B9C1D2",
"i&	c #69789A",
"j&	c #677898",
"k&	c #697795",
"l&	c #697993",
"m&	c #737EB1",
"n&	c #7685B8",
"o&	c #7382B9",
"p&	c #7786BC",
"q&	c #7F8EC1",
"r&	c #91A4C6",
"s&	c #C8D7D8",
"t&	c #DBE5E5",
"u&	c #BACCC9",
"v&	c #B0C4C3",
"w&	c #F0F3F4",
"x&	c #EDF1F1",
"y&	c #9294AC",
"z&	c #5C649A",
"A&	c #5E669D",
"B&	c #9599AC",
"C&	c #C1C7C7",
"D&	c #D9DADA",
"E&	c #B2BABA",
"F&	c #8996A4",
"G&	c #9CA7B9",
"H&	c #ECF1F6",
"I&	c #D8DDE6",
"J&	c #6D7C9C",
"K&	c #677694",
"L&	c #64708F",
"M&	c #707EAF",
"N&	c #7C8ABB",
"O&	c #7686BA",
"P&	c #7485BB",
"Q&	c #8099A7",
"R&	c #9EABA4",
"S&	c #9FB4B1",
"T&	c #BAC2BE",
"U&	c #9CA8A2",
"V&	c #E3EAE9",
"W&	c #E4ECEE",
"X&	c #CCD6D5",
"Y&	c #E1E3E3",
"Z&	c #EEF1F4",
"`&	c #FEFFFF",
" *	c #F5F8F9",
".*	c #E1E8EE",
"+*	c #909EBA",
"@*	c #7382A6",
"#*	c #929EB8",
"$*	c #D5DBE4",
"%*	c #808DA8",
"&*	c #6D7B98",
"**	c #7482AF",
"=*	c #7D8BB9",
"-*	c #798BBB",
";*	c #889EAB",
">*	c #BBB5AB",
",*	c #A2AFA8",
"'*	c #A2B0AB",
")*	c #A4A29D",
"!*	c #A4B3AF",
"~*	c #EFF4F5",
"{*	c #DEE7E8",
"]*	c #BDCBD4",
"^*	c #B3C4C5",
"/*	c #E4ECEC",
"(*	c #96A4BF",
"_*	c #7F8EAC",
":*	c #8F9CB4",
"<*	c #7A87A2",
"[*	c #76819D",
"}*	c #777CB0",
"|*	c #7D89B7",
"1*	c #7B8BB6",
"2*	c #B0AFAD",
"3*	c #ABAEA6",
"4*	c #A4ABA2",
"5*	c #98A29E",
"6*	c #95A5A2",
"7*	c #A6B8B6",
"8*	c #B1C2C0",
"9*	c #8598A6",
"0*	c #9BADB7",
"a*	c #E1E9ED",
"b*	c #BDCBCF",
"c*	c #9EACC4",
"d*	c #94A2BD",
"e*	c #7888A7",
"f*	c #6D7C9A",
"g*	c #5F6E8D",
"h*	c #5C6C8D",
"i*	c #7783B2",
"j*	c #7785AA",
"k*	c #909BA6",
"l*	c #A4ABA6",
"m*	c #B8BFBD",
"n*	c #C3C9C8",
"o*	c #D1DCDB",
"p*	c #E3EAEB",
"q*	c #DCE5E6",
"r*	c #CAD6D6",
"s*	c #BAC5C7",
"t*	c #7D90A6",
"u*	c #647598",
"v*	c #6A7A9A",
"w*	c #687594",
"x*	c #5D6B8B",
"y*	c #B5C3D7",
"z*	c #BAC8D0",
"A*	c #B7BEBC",
"B*	c #A7B3B4",
"C*	c #8394A8",
"D*	c #778BA0",
"E*	c #6F8398",
"F*	c #7A8DA1",
"G*	c #8193A5",
"H*	c #677992",
"I*	c #61708D",
"J*	c #5D6E89",
"                    . + @ # $ % & * = - ; >                     ",
"                , ' ) ! ~ { ] ^ / ( _ : < [ } |                 ",
"            1 2 3 4 5 6 7 8 9 0 a b c d e f g h i j             ",
"          k l m n o p q r s t u v w x y z A B C D E F           ",
"        G H I J K L M N O P Q R S T U V W X Y Z `  ...+.        ",
"      @.#.$.%.&.*.=.-.;.>.,.'.).!.~.{.].^./.(._.:.<.[.}.|.      ",
"    1.2.3.4.5.6.7.8.9.0.a.b.c.d.e.f.g.h.i.j.k.l.m.n.o.p.q.r.    ",
"    s.t.u.v.w.x.y.z.A.B.C.D.E.F.G.H.I.J.K.L.M.N.O.P.Q.R.S.T.    ",
"  U.V.W.X.Y.Z.`. +.+++@+#+$+%+&+*+=+-+;+>+,+'+)+!+~+{+]+^+/+(+  ",
"  _+:+<+[+}+|+1+2+3+4+5+6+7+8+9+9+8+7+0+a+b+c+d+e+f+g+h+i+j+k+  ",
"l+m+n+o+p+q+r+s+t+u+v+w+7+x+y+z+A+B+C+7+D+E+F+G+H+I+J+K+L+M+N+O+",
"P+Q+R+S+T+U+V+W+X+v+Y+Z+7+`+3+ @.@+@@@7+#@$@%@&@*@=@-@;@>@,@'@)@",
"!@~@{@]@^@/@(@_@:@<@[@}@|@1@2@3@4@5@6@7+7@8@9@0@a@b@c@d@e@f@g@h@",
"i@j@k@l@m@n@o@p@q@$ r@s@t@u@v@w@x@y@z@7+A@B@C@D@E@F@G@H@I@J@K@L@",
"M@N@O@P@Q@R@S@T@U@V@W@X@Y@w@Z@`@ #.#+#7+@###$#%#&#*#=#-#;#>#,#'#",
")#!#Q+~#{#]#^#/#(#_#:#<#[#}#|#t@1#2#7+3#4#5#6#7#8#9#0#a#b#c#d#e#",
"f#g#h#i#j#k#l#m#n#o#p#q#4@r#s#t#u#7+v#w#x#y#z#A#B#C#D#E#F#G#H#I#",
"J#K#L#M#N#O#P#Q#R#S#T#U#x@V#W#X#7+Y#Z#`# $.$+$@$#$q#$$%$&$*$=$-$",
";$>$,$'$)$!$~${$]$^$/$6@($_$:$<$7+[$}$|$1$2$3$4$5$6$7$8$9$0$a$b$",
"c$d$e$f$g$h$i$j$k$l$m$n$o$p$q$7+7+r$s$t$u$v$w$x$y$z$A$B$C$D$E$F$",
"G$H$I$J$K$L$M$N$O$P$Q$R$S$T$U$V$W$X$Y$Z$3+`$ %.%+%6@@%#%$%%%&%*%",
"=%-%;%>%,%'%)%!%~%{%]%^%/%(%_%:%<%[%}%|%1%3+2%3%4%5%6%7%8%9%0%a%",
"  b%c%d%T+e%f%g%3+h%i%j%k%l%m%7+n%o%p%q%r% +s%t%u%v%w%x%y%z%A%  ",
"  B%C%D%E%F%G%H%.@I%J%K%L%M%m%7+n%N%O%[#P%Q%r#R%S%T%U%V%W%X%Y%  ",
"    Z%`% &.&+&@&#&$&%&&&*&=&+@-&;&>&,&'&)&!&~&{&]&^&/&z%(&_&    ",
"    :&<&[&}&|&1&2&3&4&5&6&7&8&9&0&a&b&c&,&d&e&f&g&h&i&j&k&l&    ",
"      m&n&o&p&q&r&s&t&u&v&w&x&y&z&A&B&C&D&E&F&G&H&I&J&K&L&      ",
"        M&N&O&P&Q&R&S&T&U&V&W&X&Y&Z$Z&`& *.*+*@*#*$*%*&*        ",
"          **=*-*;*>*,*'*)*!*~*{*]*^*/*m%u$Y@(*_*:*<*[*          ",
"            }*|*1*2*3*4*5*6*7*8*9*0*a*b*c*d*e*f*g*h*            ",
"                i*j*k*l*m*n*o*p*q*r*s*t*u*v*w*x*                ",
"                    y*z*A*B*C*D*E*F*G*H*I*J*                    "};
