/* XPM */
static char * button_cancel_xpm[] = {
"16 16 19 1",
" 	c None",
".	c #D30000",
"+	c #DA0000",
"@	c #D90000",
"#	c #DC0000",
"$	c #D00000",
"%	c #D60000",
"&	c #DE0000",
"*	c #D80000",
"=	c #D70000",
"-	c #D40000",
";	c #E00000",
">	c #CF0000",
",	c #DF0000",
"'	c #DB0000",
")	c #D20000",
"!	c #E20000",
"~	c #E30000",
"{	c #D10000",
"                ",
"                ",
"   .            ",
"   .+       @#$ ",
"    %+    $&%   ",
"     *=  -;>    ",
"      =.=,      ",
"       @&       ",
"      ',)       ",
"     ';  .      ",
"    *!   $.     ",
"   -~     ))    ",
"   !       -$   ",
"  -{        $   ",
"                ",
"                "};
