/* XPM */
static char * catbar_22_xpm[] = {
"22 22 80 1",
" 	c None",
".	c #050505",
"+	c #FF0404",
"@	c #FF1111",
"#	c #FF1F1F",
"$	c #FF2E2E",
"%	c #FF3D3D",
"&	c #FF4C4C",
"*	c #FF5B5B",
"=	c #FF6A6A",
"-	c #FF7979",
";	c #FF8787",
">	c #FF8B8B",
",	c #131313",
"'	c #222222",
")	c #313131",
"!	c #FF0707",
"~	c #FF1515",
"{	c #FF2424",
"]	c #FF3333",
"^	c #FF4343",
"/	c #FF5252",
"(	c #FF6161",
"_	c #FF7070",
":	c #FF7E7E",
"<	c #FF8E8E",
"[	c #FF9F9F",
"}	c #DF9494",
"|	c #3F3F3F",
"1	c #FF2323",
"2	c #FF3232",
"3	c #E29797",
"4	c #4E4E4E",
"5	c #5D5D5D",
"6	c #FF0505",
"7	c #FF1313",
"8	c #FF2222",
"9	c #FF3030",
"0	c #FF3F3F",
"a	c #FF4E4E",
"b	c #FF5D5D",
"c	c #FF6C6C",
"d	c #FF7B7B",
"e	c #FF9494",
"f	c #6D6D6D",
"g	c #7D7D7D",
"h	c #8B8B8B",
"i	c #FF4545",
"j	c #FF5555",
"k	c #FF6464",
"l	c #FF7373",
"m	c #FF8282",
"n	c #FF9191",
"o	c #FF9E9E",
"p	c #9A9A9A",
"q	c #FF4242",
"r	c #FF8181",
"s	c #A9A9A9",
"t	c #B8B8B8",
"u	c #FF1414",
"v	c #FF3434",
"w	c #FF5151",
"x	c #FF7272",
"y	c #FF9090",
"z	c #FF9898",
"A	c #C7C7C7",
"B	c #FF0606",
"C	c #FF6F6F",
"D	c #D6D6D6",
"E	c #E5E5E5",
"F	c #FF2020",
"G	c #FF5C5C",
"H	c #FF8989",
"I	c #FF9696",
"J	c #F4F4F4",
"K	c #FF2F2F",
"L	c #FF7A7A",
"M	c #FF9595",
"N	c #F9F9F9",
"O	c #ECECEC",
"                      ",
"             .        ",
" +@#$%&*=-;> ,        ",
"             '        ",
"             )        ",
" !~{]^/(_:<[}|        ",
" !~12    :<[34        ",
"             5        ",
" 67890abcd>e f        ",
"             g        ",
"             h        ",
" !~{]ijklmno p        ",
" !~{]q/  rn[ s        ",
"             t        ",
"  u{v^w(xryz A        ",
" Bu{]^/(C    D        ",
"             E        ",
"   F$%&GcdHI J        ",
" +@FK%&*=LHM N        ",
"             O        ",
"             E        ",
"                      "};
