/* XPM */
static char * catbar_22_xpm[] = {
"22 22 165 2",
"  	c None",
". 	c #000000",
"+ 	c #020202",
"@ 	c #040303",
"# 	c #040404",
"$ 	c #030303",
"% 	c #070707",
"& 	c #453A3D",
"* 	c #72555D",
"= 	c #935D6C",
"- 	c #AA5A70",
"; 	c #B7556F",
"> 	c #BB536F",
", 	c #B45770",
"' 	c #A45C70",
") 	c #9A6674",
"! 	c #0D0B0C",
"~ 	c #423639",
"{ 	c #493339",
"] 	c #4D2C35",
"^ 	c #5F2B39",
"/ 	c #6C2739",
"( 	c #712439",
"_ 	c #682839",
": 	c #592C37",
"< 	c #452A32",
"[ 	c #543D43",
"} 	c #2F2729",
"| 	c #242021",
"1 	c #241A1D",
"2 	c #140B0E",
"3 	c #261016",
"4 	c #290B13",
"5 	c #2A0912",
"6 	c #270D14",
"7 	c #221116",
"8 	c #1A1113",
"9 	c #161011",
"0 	c #0C0A0A",
"a 	c #010101",
"b 	c #141212",
"c 	c #31282A",
"d 	c #251A1D",
"e 	c #6C3D4A",
"f 	c #DA6585",
"g 	c #D74B71",
"h 	c #D7496F",
"i 	c #DA6081",
"j 	c #C36E85",
"k 	c #865965",
"l 	c #0F0E0F",
"m 	c #211A1C",
"n 	c #3A292E",
"o 	c #E49BAF",
"p 	c #291B1F",
"q 	c #754451",
"r 	c #EB7F9C",
"s 	c #EB7A98",
"t 	c #E97D9A",
"u 	c #ED87A2",
"v 	c #D48399",
"w 	c #976673",
"x 	c #F3B2C4",
"y 	c #2F2829",
"z 	c #2A1F22",
"A 	c #41262D",
"B 	c #E07D98",
"C 	c #2C181E",
"D 	c #784352",
"E 	c #ED8EA7",
"F 	c #EE95AD",
"G 	c #EE93AB",
"H 	c #D78198",
"I 	c #A06172",
"J 	c #ED99B0",
"K 	c #4C393E",
"L 	c #302025",
"M 	c #46222C",
"N 	c #DC5C7F",
"O 	c #30131A",
"P 	c #7B3C4D",
"Q 	c #ED8CA6",
"R 	c #EF9AB0",
"S 	c #EE96AE",
"T 	c #EC87A2",
"U 	c #D76D89",
"V 	c #AB5169",
"W 	c #E97795",
"X 	c #DE7F99",
"Y 	c #63434C",
"Z 	c #010000",
"` 	c #312125",
" .	c #48212C",
"..	c #DA4C72",
"+.	c #300D16",
"@.	c #7C3146",
"#.	c #EB829E",
"$.	c #EC8CA6",
"%.	c #E87191",
"&.	c #D94D73",
"*.	c #BB3A5D",
"=.	c #E4577C",
"-.	c #DE6E8C",
";.	c #734753",
">.	c #8B6771",
",.	c #302125",
"'.	c #1C0D11",
").	c #4F1E2B",
"!.	c #14060A",
"~.	c #3D1E26",
"{.	c #804E5B",
"].	c #965E6D",
"^.	c #AB5D72",
"/.	c #BE4C6B",
"(.	c #CC315B",
"_.	c #C92753",
":.	c #C33E63",
"<.	c #AA4F67",
"[.	c #744652",
"}.	c #916A74",
"|.	c #684B53",
"1.	c #321F24",
"2.	c #371D24",
"3.	c #0D0608",
"4.	c #2F1D22",
"5.	c #6C4A53",
"6.	c #875764",
"7.	c #9F586B",
"8.	c #B54C68",
"9.	c #C2395E",
"0.	c #BC3257",
"a.	c #BB4363",
"b.	c #A34F65",
"c.	c #895462",
"d.	c #211317",
"e.	c #633E48",
"f.	c #EFA3B8",
"g.	c #F0A7BB",
"h.	c #EE97AE",
"i.	c #E97A98",
"j.	c #CE5777",
"k.	c #A0415A",
"l.	c #E6698B",
"m.	c #EA819E",
"n.	c #191113",
"o.	c #503A40",
"p.	c #BF6A80",
"q.	c #804655",
"r.	c #0F0C0D",
"s.	c #342B2E",
"t.	c #A87180",
"u.	c #5D3F47",
"v.	c #030202",
"w.	c #060606",
"x.	c #020101",
"y.	c #070607",
"z.	c #0F0D0E",
"A.	c #231E20",
"B.	c #352C2E",
"C.	c #3B3033",
"D.	c #372C2F",
"E.	c #080707",
"F.	c #0B090A",
"G.	c #0C0B0B",
"H.	c #0D0C0C",
"                                            ",
"                                            ",
"        . . . . . + @ # $ + . . . .         ",
"        . .                       .         ",
"        . .                       .         ",
"        . +                       .         ",
"        . % & * = - ; > , ' )     +         ",
"  . . . . ! ~ { ] ^ / ( _ : < [ } + .       ",
"  .     # |   1 2 3 4 5 6 7 8 9 0 a . . .   ",
"  .     b c   d e f g h i j k     l     .   ",
"  .     m n o p q r s t u v w x   y     .   ",
"  .     z A B C D E F F G H I J   K     .   ",
"  .     L M N O P Q R S T U V W X Y     Z   ",
"  .     `  ...+.@.#.F $.%.&.*.=.-.;.>.  a   ",
"  .     ,.'.).!.~.{.].^./.(._.:.<.[.}.  +   ",
"  .     |.1.2.3.4.5.6.7.8.9.0.a.b.c.    a   ",
"  .           d.e.f.g.h.i.j.k.l.m.      a   ",
"  .           n.o.        p.q.          .   ",
"  .           r.s.        t.u.          .   ",
"  . . . . v.w.x.# y.z.A.B.C.D.          .   ",
"              . . . . $ E.F.G.H.y.a . . .   ",
"                . . . . . . . . . . . .     "};
