/* XPM */
static char * trashcan_empty_2_1_22_xpm[] = {
"22 22 227 2",
"  	c None",
". 	c #5A5A6E",
"+ 	c #1B1B39",
"@ 	c #53536A",
"# 	c #CBCBD1",
"$ 	c #92929D",
"% 	c #9E9EA3",
"& 	c #4C4C5F",
"* 	c #373751",
"= 	c #58586C",
"- 	c #94949D",
"; 	c #626273",
"> 	c #BEBEBE",
", 	c #5D5D71",
"' 	c #959599",
") 	c #6C6C79",
"! 	c #8D8D8D",
"~ 	c #545461",
"{ 	c #565661",
"] 	c #333349",
"^ 	c #55556A",
"/ 	c #CDCDCD",
"( 	c #DDDDDD",
"_ 	c #E7E7E7",
": 	c #8C8C98",
"< 	c #626274",
"[ 	c #AEAEB5",
"} 	c #C7C7C7",
"| 	c #7F7F8A",
"1 	c #727274",
"2 	c #888888",
"3 	c #787878",
"4 	c #4D4D5B",
"5 	c #494962",
"6 	c #C1C1C2",
"7 	c #D5D5D5",
"8 	c #DFDFDF",
"9 	c #E2E2E2",
"0 	c #D0D0D0",
"a 	c #C3C3C3",
"b 	c #B5B5B5",
"c 	c #595966",
"d 	c #6C6C75",
"e 	c #878787",
"f 	c #6A6A6E",
"g 	c #26263F",
"h 	c #08082B",
"i 	c #37374B",
"j 	c #3E3E55",
"k 	c #505065",
"l 	c #747481",
"m 	c #86868F",
"n 	c #949499",
"o 	c #909094",
"p 	c #838389",
"q 	c #66666F",
"r 	c #414154",
"s 	c #2B2B41",
"t 	c #1F1F33",
"u 	c #030327",
"v 	c #07072B",
"w 	c #767677",
"x 	c #61616D",
"y 	c #7B7B7D",
"z 	c #5E5E68",
"A 	c #4B4B59",
"B 	c #3B3B4E",
"C 	c #343449",
"D 	c #373749",
"E 	c #40404B",
"F 	c #4D4D51",
"G 	c #4C4C53",
"H 	c #33333C",
"I 	c #050528",
"J 	c #08082C",
"K 	c #6E6E73",
"L 	c #A4A4A6",
"M 	c #808085",
"N 	c #6E6E77",
"O 	c #79797D",
"P 	c #78787A",
"Q 	c #757575",
"R 	c #585860",
"S 	c #4F4F55",
"T 	c #77777D",
"U 	c #414147",
"V 	c #09092D",
"W 	c #7B7B80",
"X 	c #AFAFAF",
"Y 	c #8C8C91",
"Z 	c #89898F",
"` 	c #6D6D72",
" .	c #7C7C81",
"..	c #777782",
"+.	c #808081",
"@.	c #6C6C73",
"#.	c #5B5B5F",
"$.	c #828287",
"%.	c #46464B",
"&.	c #060629",
"*.	c #0A0A2E",
"=.	c #88888D",
"-.	c #B2B2B2",
";.	c #9C9CA1",
">.	c #9D9DA1",
",.	c #78787D",
"'.	c #848489",
").	c #B5B5B7",
"!.	c #868689",
"~.	c #838388",
"{.	c #646468",
"].	c #87878C",
"^.	c #4A4A4E",
"/.	c #07072A",
"(.	c #09092E",
"_.	c #AAAAB0",
":.	c #ACACB0",
"<.	c #909095",
"[.	c #C8C8CA",
"}.	c #919194",
"|.	c #4C4C51",
"1.	c #08082D",
"2.	c #A0A0A5",
"3.	c #B9B9BF",
"4.	c #B6B6BA",
"5.	c #8B8B90",
"6.	c #99999E",
"7.	c #D5D5D8",
"8.	c #98989B",
"9.	c #727277",
"0.	c #4B4B50",
"a.	c #A7A7AD",
"b.	c #AAAAAA",
"c.	c #C5C5CB",
"d.	c #B8B8BD",
"e.	c #CDCDCF",
"f.	c #9C9C9F",
"g.	c #9C9CA0",
"h.	c #75757A",
"i.	c #808084",
"j.	c #49494D",
"k.	c #AAAAAF",
"l.	c #A0A0A0",
"m.	c #C9C9CF",
"n.	c #B2B2B7",
"o.	c #BDBDC0",
"p.	c #9D9DA0",
"q.	c #98989D",
"r.	c #737378",
"s.	c #444449",
"t.	c #A2A2A7",
"u.	c #929292",
"v.	c #BCBCC1",
"w.	c #A5A5A9",
"x.	c #86868B",
"y.	c #9A9AA0",
"z.	c #B4B4B5",
"A.	c #919195",
"B.	c #6F6F74",
"C.	c #6F6F73",
"D.	c #3C3C41",
"E.	c #040429",
"F.	c #929298",
"G.	c #808080",
"H.	c #ADADB3",
"I.	c #79797E",
"J.	c #919196",
"K.	c #A3A3A3",
"L.	c #85858A",
"M.	c #66666B",
"N.	c #646469",
"O.	c #323236",
"P.	c #05052A",
"Q.	c #85858B",
"R.	c #6E6E6E",
"S.	c #9D9DA2",
"T.	c #848488",
"U.	c #6B6B70",
"V.	c #7B7B81",
"W.	c #5D5D61",
"X.	c #59595E",
"Y.	c #28282D",
"Z.	c #78787F",
"`.	c #5C5C5C",
" +	c #8E8E93",
".+	c #707075",
"++	c #5D5D62",
"@+	c #78787E",
"#+	c #777777",
"$+	c #6F6F75",
"%+	c #656569",
"&+	c #4F4F54",
"*+	c #4A4A50",
"=+	c #222227",
"-+	c #07072C",
";+	c #939395",
">+	c #565662",
",+	c #979797",
"'+	c #4E4E54",
")+	c #6A6A6F",
"!+	c #616161",
"~+	c #65656A",
"{+	c #535359",
"]+	c #3F3F44",
"^+	c #38383F",
"/+	c #060628",
"(+	c #0D0D2F",
"_+	c #4E4E5E",
":+	c #55555F",
"<+	c #5E5E65",
"[+	c #5D5D64",
"}+	c #3D3D45",
"|+	c #606065",
"1+	c #525259",
"2+	c #48484F",
"3+	c #525252",
"4+	c #3F3F42",
"5+	c #2D2D44",
"6+	c #54545F",
"7+	c #737373",
"8+	c #6B6B6B",
"9+	c #5A5A5E",
"0+	c #5F5F5F",
"a+	c #565656",
"b+	c #46464A",
"c+	c #242436",
"d+	c #0E0E2B",
"                      .                     ",
"                + @ # $ % &                 ",
"          * = - ; > , ' ) ! ~ { ]           ",
"        ^ / ( _ : < [ } | 1 ~ 2 3 4         ",
"        5 6 7 8 9 ( 0 a b c d e f g         ",
"        h i j k l m n o p q r s t u         ",
"        v w x y z A B C D E F G H I         ",
"        J K L M N O e P Q R S T U I         ",
"        V W X Y Z `  ...+.@.#.$.%.&.        ",
"        *.=.-.;.>.,.'.).!.~.{.].^./.        ",
"        (.n -._.:.~.<.[.}.<.` =.|./.        ",
"        1.2.X 3.4.5.6.7.8.6.9.~.0./.        ",
"        (.a.b.c.d.<.% e.f.g.h.i.j.h         ",
"        (.k.l.m.n.<.2.o.p.q.r.,.s./.        ",
"        (.t.u.v.w.x.y.z.A.<.B.C.D.E.        ",
"        1.F.G.H.' I.J.K.L.'.M.N.O.P.        ",
"        (.Q.R.S.T.U.'.! V.h.W.X.Y./.        ",
"        1.Z.`. +.+++@+#+$+%+&+*+=+/.        ",
"        -+;+>+,+++'+)+!+~+{+]+0.^+/+        ",
"        (+_+e e :+<+[+}+|+1+2+3+4+I         ",
"            5+6+7+R.8+9+0+a+b+c+d+          ",
"                                            "};
