/* XPM */
static char * find_22_xpm[] = {
"22 22 124 2",
"  	c None",
". 	c #262929",
"+ 	c #272A2A",
"@ 	c #2E3030",
"# 	c #222525",
"$ 	c #6C7A7F",
"% 	c #B5D4E1",
"& 	c #C9EFFF",
"* 	c #BBDAE7",
"= 	c #707E82",
"- 	c #2C3131",
"; 	c #AECAD5",
"> 	c #B8E6FF",
", 	c #A7DFFF",
"' 	c #A2DCFF",
") 	c #B7E6FF",
"! 	c #B0CCD8",
"~ 	c #2B2F2F",
"{ 	c #8DA1A7",
"] 	c #B4E5FF",
"^ 	c #98D7FF",
"/ 	c #82CEFF",
"( 	c #7ACAFF",
"_ 	c #80CCFF",
": 	c #93D5FF",
"< 	c #B0E3FF",
"[ 	c #A2BCC6",
"} 	c #262828",
"| 	c #434747",
"1 	c #C4EBFE",
"2 	c #9FDBFF",
"3 	c #7CCBFF",
"4 	c #5FBDFF",
"5 	c #52B7FF",
"6 	c #5ABBFF",
"7 	c #73C6FF",
"8 	c #94D6FF",
"9 	c #BAE7FF",
"0 	c #464E50",
"a 	c #596264",
"b 	c #BBE8FF",
"c 	c #91D4FF",
"d 	c #69C1FF",
"e 	c #43B0FF",
"f 	c #2BA5FF",
"g 	c #36AAFF",
"h 	c #58BAFF",
"i 	c #A9E0FF",
"j 	c #94A9B2",
"k 	c #50595A",
"l 	c #B9E7FF",
"m 	c #8DD3FF",
"n 	c #62BEFF",
"o 	c #37AAFF",
"p 	c #0B96FF",
"q 	c #1F9FFF",
"r 	c #4AB3FF",
"s 	c #76C8FF",
"t 	c #A1DCFF",
"u 	c #B6D7E4",
"v 	c #2A2D2D",
"w 	c #3D4242",
"x 	c #BFEAFF",
"y 	c #95D6FF",
"z 	c #6BC3FF",
"A 	c #44B0FF",
"B 	c #26A3FF",
"C 	c #2EA6FF",
"D 	c #50B6FF",
"E 	c #78C9FF",
"F 	c #BBDCEA",
"G 	c #252828",
"H 	c #AFCCD9",
"I 	c #A5DEFF",
"J 	c #81CDFF",
"K 	c #61BEFF",
"L 	c #4EB5FF",
"M 	c #66C0FF",
"N 	c #87D0FF",
"O 	c #ADE1FF",
"P 	c #9DB4BC",
"Q 	c #444B4D",
"R 	c #BDE9FF",
"S 	c #9DDAFF",
"T 	c #83CEFF",
"U 	c #75C7FF",
"V 	c #84CEFF",
"W 	c #485051",
"X 	c #707E84",
"Y 	c #BEE9FF",
"Z 	c #9CDAFF",
"` 	c #BCE8FF",
" .	c #728388",
"..	c #1D1E1E",
"+.	c #515A5C",
"@.	c #B9D7E4",
"#.	c #C5ECFF",
"$.	c #C4ECFF",
"%.	c #BCDDEB",
"&.	c #576164",
"*.	c #262626",
"=.	c #535353",
"-.	c #1E1E1E",
";.	c #2E3232",
">.	c #414646",
",.	c #363939",
"'.	c #1C1C1C",
").	c #676767",
"!.	c #808080",
"~.	c #1F1F1F",
"{.	c #A1A1A1",
"].	c #9C9C9C",
"^.	c #2D2D2D",
"/.	c #D1D1D1",
"(.	c #929292",
"_.	c #3B3B3B",
":.	c #C7C7C7",
"<.	c #6F6F6F",
"[.	c #3D3D3D",
"}.	c #949494",
"|.	c #3E3E3E",
"1.	c #2E2E2E",
"2.	c #5A5A5A",
"3.	c #212121",
"                                            ",
"            . + @                           ",
"        # $ % & * = -                       ",
"      . ; > , ' , ) ! ~                     ",
"      { ] ^ / ( _ : < [ }                   ",
"    | 1 2 3 4 5 6 7 8 9 0                   ",
"    a b c d e f g h _ i j                   ",
"    k l m n o p q r s t u v                 ",
"    w x y z A B C D E ' F                   ",
"    G H I J K L D M N O P                   ",
"      Q R S T U s V 2 x W                   ",
"        X Y i S Z , `  ...                  ",
"          +.@.#.$.%.&.*.=.-.                ",
"            ;.>.,.G   '.).!.~.              ",
"                        -.{.].              ",
"                          ^./.(.            ",
"                            _.:.<.          ",
"                              [.}.|.        ",
"                                1.2.3.      ",
"                                  ~.        ",
"                                            ",
"                                            "};
