/* XPM */
static char * find_22_xpm[] = {
"22 22 148 2",
"  	c None",
". 	c #000000",
"+ 	c #030303",
"@ 	c #313E45",
"# 	c #5F7988",
"$ 	c #7090A2",
"% 	c #678595",
"& 	c #465963",
"* 	c #0F1315",
"= 	c #242E33",
"- 	c #8EB8CF",
"; 	c #A6DEFF",
"> 	c #9EDAFF",
", 	c #9AD9FF",
"' 	c #9BD9FF",
") 	c #A1DCFF",
"! 	c #A0D3F0",
"~ 	c #526975",
"{ 	c #020203",
"] 	c #2C383E",
"^ 	c #A4D7F4",
"/ 	c #8DD2FF",
"( 	c #84CEFF",
"_ 	c #7FCCFF",
": 	c #80CDFF",
"< 	c #87D0FF",
"[ 	c #93D5FF",
"} 	c #A2DCFF",
"| 	c #6B8B9C",
"1 	c #010102",
"2 	c #0D1012",
"3 	c #9DCCE7",
"4 	c #99D8FF",
"5 	c #86CFFF",
"6 	c #76C8FF",
"7 	c #6AC2FF",
"8 	c #64BFFF",
"9 	c #66C0FF",
"0 	c #6EC4FF",
"a 	c #7CCAFF",
"b 	c #8DD3FF",
"c 	c #485C68",
"d 	c #59727F",
"e 	c #89D1FF",
"f 	c #73C6FF",
"g 	c #60BDFF",
"h 	c #51B6FF",
"i 	c #49B3FF",
"j 	c #4BB4FF",
"k 	c #56B9FF",
"l 	c #67C1FF",
"m 	c #92D5FF",
"n 	c #98C9E5",
"o 	c #060809",
"p 	c #8FBAD2",
"q 	c #97D7FF",
"r 	c #7DCBFF",
"s 	c #65C0FF",
"t 	c #4DB5FF",
"u 	c #3AACFF",
"v 	c #2FA7FF",
"w 	c #31A8FF",
"x 	c #41AFFF",
"y 	c #2F3C44",
"z 	c #050607",
"A 	c #A3D6F3",
"B 	c #91D4FF",
"C 	c #5CBBFF",
"D 	c #28A4FF",
"E 	c #159BFF",
"F 	c #1B9DFF",
"G 	c #80CCFF",
"H 	c #4C626F",
"I 	c #060808",
"J 	c #A3D6F4",
"K 	c #90D4FF",
"L 	c #75C7FF",
"M 	c #5ABBFF",
"N 	c #3FAEFF",
"O 	c #25A2FF",
"P 	c #0E97FF",
"Q 	c #2EA6FF",
"R 	c #9AD8FF",
"S 	c #506875",
"T 	c #93C0D9",
"U 	c #94D6FF",
"V 	c #7ACAFF",
"W 	c #61BEFF",
"X 	c #48B2FF",
"Y 	c #32A8FF",
"Z 	c #28A3FF",
"` 	c #83CEFF",
" .	c #3A4B54",
"..	c #627D8D",
"+.	c #9DDAFF",
"@.	c #85CFFF",
"#.	c #59BAFF",
"$.	c #48B3FF",
"%.	c #76C7FF",
"&.	c #9FD6F6",
"*.	c #0D1113",
"=.	c #151B1E",
"-.	c #A1D4F2",
";.	c #5BBBFF",
">.	c #607E8F",
",.	c #3F515A",
"'.	c #A3DBFC",
").	c #87B2CB",
"!.	c #090B0D",
"~.	c #3A4A54",
"{.	c #9CCEEB",
"].	c #A0DBFE",
"^.	c #779DB2",
"/.	c #0E1114",
"(.	c #010201",
"_.	c #050605",
":.	c #020202",
"<.	c #4F6572",
"[.	c #7BA2B8",
"}.	c #8DBBD5",
"|.	c #87B2CC",
"1.	c #68889B",
"2.	c #2E3B42",
"3.	c #010101",
"4.	c #080907",
"5.	c #22261F",
"6.	c #0E100D",
"7.	c #040504",
"8.	c #292D25",
"9.	c #485142",
"0.	c #3B4136",
"a.	c #151713",
"b.	c #141612",
"c.	c #444C3F",
"d.	c #64705C",
"e.	c #3D4438",
"f.	c #10120F",
"g.	c #1C201A",
"h.	c #474F41",
"i.	c #4D5647",
"j.	c #262B23",
"k.	c #040403",
"l.	c #161814",
"m.	c #2D3229",
"n.	c #272C24",
"o.	c #090A08",
"p.	c #060705",
"q.	c #0C0D0B",
"                                            ",
"          . . . . . . .                     ",
"      . . + @ # $ % & * . .                 ",
"    . . = - ; > , ' ) ! ~ { .               ",
"    . ] ^ ' / ( _ : < [ } | 1 .             ",
"  . 2 3 4 5 6 7 8 9 0 a b } c .             ",
"  . d ) e f g h i j k l a m n o .           ",
". . p q r s t u v w x k 0 < ) y .           ",
". z A B 6 C x D E F w j 9 G ' H .           ",
". I J K L M N O P E Q i 8 _ R S .           ",
". . T U V W X Y O Z u h 7 ` >  ..           ",
"  . ..+.@.0 #.$.N x t g %.b &.*..           ",
"  . =.-.U _ 0 W M ;.8 f 5 ' >..             ",
"    . ,.'.U @.V L 6 r e 4 ).!..             ",
"    . . ~.{.+.U K B q ].^./.(._.:.          ",
"      . . 2 <.[.}.|.1.2.3.. 4.5.5.6.        ",
"          . . . . . . . .   7.8.9.0.a.      ",
"                . .           b.c.d.e.f.    ",
"                                g.h.i.j.k.  ",
"                                  l.m.n.o.  ",
"                                    p.q.    ",
"                                            "};
