/* XPM */
static char * finish_22_xpm[] = {
"22 22 146 2",
"  	c None",
". 	c #002C28",
"+ 	c #008572",
"@ 	c #008569",
"# 	c #005A41",
"$ 	c #002824",
"% 	c #008573",
"& 	c #005E44",
"* 	c #00927C",
"= 	c #00FFC8",
"- 	c #00FBB3",
"; 	c #006B46",
"> 	c #008A75",
", 	c #00FEC9",
"' 	c #00FCB5",
") 	c #00734B",
"! 	c #009271",
"~ 	c #00FFB6",
"{ 	c #00FBA1",
"] 	c #006B3E",
"^ 	c #008A6B",
"/ 	c #00FCA2",
"( 	c #007344",
"_ 	c #009266",
": 	c #00FFA4",
"< 	c #00FB8F",
"[ 	c #006B37",
"} 	c #008A61",
"| 	c #00FEA4",
"1 	c #00FC91",
"2 	c #00733B",
"3 	c #00925C",
"4 	c #00FF91",
"5 	c #00FB7D",
"6 	c #006B2F",
"7 	c #008957",
"8 	c #00FE92",
"9 	c #00FD7F",
"0 	c #007333",
"a 	c #009151",
"b 	c #00FF7F",
"c 	c #00FB6B",
"d 	c #006C28",
"e 	c #00894D",
"f 	c #00FE7F",
"g 	c #00FD6D",
"h 	c #00732B",
"i 	c #009147",
"j 	c #00FE6C",
"k 	c #00FB59",
"l 	c #006C20",
"m 	c #008943",
"n 	c #00FE6D",
"o 	c #00FD5A",
"p 	c #007423",
"q 	c #00913C",
"r 	c #00FF5A",
"s 	c #00FC47",
"t 	c #006B18",
"u 	c #008839",
"v 	c #00FE5B",
"w 	c #00FC48",
"x 	c #00741A",
"y 	c #009131",
"z 	c #00FF48",
"A 	c #00FB35",
"B 	c #006C10",
"C 	c #00882F",
"D 	c #00FE48",
"E 	c #00FC36",
"F 	c #007412",
"G 	c #009428",
"H 	c #00FF35",
"I 	c #00FB23",
"J 	c #006B09",
"K 	c #008C26",
"L 	c #00FF36",
"M 	c #00FD23",
"N 	c #00730A",
"O 	c #00A52D",
"P 	c #00F622",
"Q 	c #005907",
"R 	c #009D2B",
"S 	c #00F823",
"T 	c #006008",
"U 	c #00A438",
"V 	c #00F634",
"W 	c #00590E",
"X 	c #009C36",
"Y 	c #00FF49",
"Z 	c #00F835",
"` 	c #00610F",
" .	c #00A444",
"..	c #00F646",
"+.	c #005914",
"@.	c #009C41",
"#.	c #00FF5B",
"$.	c #00F847",
"%.	c #006116",
"&.	c #00A551",
"*.	c #00FF6D",
"=.	c #00F657",
"-.	c #00591B",
";.	c #009D4D",
">.	c #00F959",
",.	c #00601D",
"'.	c #00A65D",
").	c #00F669",
"!.	c #005921",
"~.	c #009D58",
"{.	c #00FF80",
"].	c #00F96B",
"^.	c #006024",
"/.	c #00A669",
"(.	c #00F67B",
"_.	c #005927",
":.	c #009E64",
"<.	c #00FF92",
"[.	c #00F97D",
"}.	c #00602B",
"|.	c #00A675",
"1.	c #00F68C",
"2.	c #00592E",
"3.	c #009F70",
"4.	c #00F88E",
"5.	c #006032",
"6.	c #00A782",
"7.	c #00F69E",
"8.	c #005934",
"9.	c #009F7C",
"0.	c #00FFB7",
"a.	c #00F8A0",
"b.	c #006139",
"c.	c #00A78E",
"d.	c #00F6B0",
"e.	c #00593B",
"f.	c #009F87",
"g.	c #00FFC9",
"h.	c #00F8B2",
"i.	c #006140",
"j.	c #002E29",
"k.	c #007565",
"l.	c #00755C",
"m.	c #004B36",
"n.	c #002925",
"o.	c #004F39",
"                                            ",
"  . + @ #       $ % @ &                     ",
"    * = - ;       > , ' )                   ",
"      ! ~ { ]       ^ ~ / (                 ",
"        _ : < [       } | 1 2               ",
"          3 4 5 6       7 8 9 0             ",
"            a b c d       e f g h           ",
"              i j k l       m n o p         ",
"                q r s t       u v w x       ",
"                  y z A B       C D E F     ",
"                    G H I J       K L M N   ",
"                    O H P Q       R L S T   ",
"                  U z V W       X Y Z `     ",
"                 .r ..+.      @.#.$.%.      ",
"              &.*.=.-.      ;.*.>.,.        ",
"            '.b ).!.      ~.{.].^.          ",
"          /.4 (._.      :.<.[.}.            ",
"        |.: 1.2.      3.: 4.5.              ",
"      6.~ 7.8.      9.0.a.b.                ",
"    c.= d.e.      f.g.h.i.                  ",
"  j.k.l.m.      n.k.l.o.                    ",
"                                            "};
