/* XPM */
static char * pack_in_xpm[] = {
"16 16 2 1",
" 	c None",
".	c #00FF00",
"................",
"................",
"................",
"          ......",
"         .......",
"        ........",
"       ..... ...",
"      .....  ...",
"     .....   ...",
"    .....    ...",
"   .....     ...",
"  .....      ...",
" .....       ...",
".....        ...",
"....         ...",
"...          ..."};
