/* XPM */
static char * packages_22_xpm[] = {
"22 22 212 2",
"  	c None",
". 	c #007800",
"+ 	c #00BE00",
"@ 	c #00BB00",
"# 	c #00B403",
"$ 	c #00A90A",
"% 	c #009008",
"& 	c #008A02",
"* 	c #009600",
"= 	c #009100",
"- 	c #008C00",
"; 	c #009000",
"> 	c #00C000",
", 	c #00C106",
"' 	c #00C61B",
") 	c #00CA28",
"! 	c #00A112",
"~ 	c #00AC00",
"{ 	c #009E00",
"] 	c #007300",
"^ 	c #009A06",
"/ 	c #00BE11",
"( 	c #00C514",
"_ 	c #00A005",
": 	c #00C103",
"< 	c #00C71D",
"[ 	c #00CE38",
"} 	c #00D147",
"| 	c #00A10C",
"1 	c #00C30D",
"2 	c #00C212",
"3 	c #00A90C",
"4 	c #009302",
"5 	c #008500",
"6 	c #00A800",
"7 	c #00C003",
"8 	c #00C619",
"9 	c #00CB2D",
"0 	c #00CD35",
"a 	c #00A20D",
"b 	c #00C410",
"c 	c #00CD37",
"d 	c #00D556",
"e 	c #00C65B",
"f 	c #00AF02",
"g 	c #00CB2E",
"h 	c #00CC31",
"i 	c #00C926",
"j 	c #00C310",
"k 	c #00BC00",
"l 	c #009D00",
"m 	c #00C30C",
"n 	c #00D454",
"o 	c #00A312",
"p 	c #00C924",
"q 	c #00D34F",
"r 	c #00DC72",
"s 	c #00B456",
"t 	c #00C004",
"u 	c #00C820",
"v 	c #00CF3D",
"w 	c #00D34E",
"x 	c #00CF40",
"y 	c #00C105",
"z 	c #00B700",
"A 	c #007900",
"B 	c #00D75D",
"C 	c #00DC71",
"D 	c #00A313",
"E 	c #00CD36",
"F 	c #00D965",
"G 	c #00E38D",
"H 	c #00AD41",
"I 	c #00C517",
"J 	c #00CF3E",
"K 	c #00D75E",
"L 	c #00DB6E",
"M 	c #00DA6C",
"N 	c #00D557",
"O 	c #009B00",
"P 	c #00AE00",
"Q 	c #00D146",
"R 	c #00DD88",
"S 	c #00A818",
"T 	c #00D145",
"U 	c #00DD78",
"V 	c #00E9A6",
"W 	c #00A621",
"X 	c #00CC30",
"Y 	c #00D65B",
"Z 	c #00DF7D",
"` 	c #00E38F",
" .	c #00E187",
"..	c #00DA6B",
"+.	c #00D043",
"@.	c #00C515",
"#.	c #008B00",
"$.	c #00C618",
"%.	c #00D24A",
"&.	c #00D491",
"*.	c #00B41B",
"=.	c #00E186",
"-.	c #00D3A1",
";.	c #00B817",
">.	c #00D148",
",.	c #00DD76",
"'.	c #00E69D",
").	c #00EBAE",
"!.	c #00E79F",
"~.	c #00DE79",
"{.	c #00D24B",
"].	c #00BF13",
"^.	c #00CA8F",
"/.	c #00BE1E",
"(.	c #00D555",
"_.	c #00E28C",
":.	c #00BA75",
"<.	c #00C928",
"[.	c #00D65C",
"}.	c #00EEBB",
"|.	c #00F2CC",
"1.	c #00EBAF",
"2.	c #00DF80",
"3.	c #00D34D",
"4.	c #00B819",
"5.	c #009C0D",
"6.	c #00CE3C",
"7.	c #00DB70",
"8.	c #00C17C",
"9.	c #00C31E",
"0.	c #00E28A",
"a.	c #00AF47",
"b.	c #00E8A2",
"c.	c #00F4D5",
"d.	c #00F8E3",
"e.	c #00ECB4",
"f.	c #00DF7F",
"g.	c #00D249",
"h.	c #009E16",
"i.	c #00CB2C",
"j.	c #00D760",
"k.	c #00B762",
"l.	c #00C61A",
"m.	c #00DD7F",
"n.	c #00A71E",
"o.	c #00EAAB",
"p.	c #00F6DD",
"q.	c #00F6DE",
"r.	c #008C12",
"s.	c #00AE19",
"t.	c #00B047",
"u.	c #00C413",
"v.	c #00D044",
"w.	c #00BF5D",
"x.	c #00BA11",
"y.	c #00E9A8",
"z.	c #00F2CA",
"A.	c #00F0C2",
"B.	c #00E598",
"C.	c #00D966",
"D.	c #00CB32",
"E.	c #00890B",
"F.	c #00AA2E",
"G.	c #00C20A",
"H.	c #00AA32",
"I.	c #00C411",
"J.	c #00E69A",
"K.	c #00E8A3",
"L.	c #00D351",
"M.	c #00B51F",
"N.	c #00BD16",
"O.	c #00A519",
"P.	c #00C823",
"Q.	c #00A314",
"R.	c #00C30E",
"S.	c #00E084",
"T.	c #00E390",
"U.	c #00E083",
"V.	c #00D863",
"W.	c #00CD39",
"X.	c #009A0F",
"Y.	c #009403",
"Z.	c #00A107",
"`.	c #00BF0E",
" +	c #00A303",
".+	c #00C208",
"++	c #00CB2F",
"@+	c #00D453",
"#+	c #00C71F",
"$+	c #008403",
"%+	c #009F00",
"&+	c #00A501",
"*+	c #00B900",
"=+	c #00C002",
"-+	c #00D451",
";+	c #00C927",
">+	c #00C107",
",+	c #008400",
"'+	c #009F01",
")+	c #008503",
"!+	c #00B000",
"~+	c #00C822",
"{+	c #00A900",
"]+	c #008100",
"^+	c #00BF00",
"/+	c #009B02",
"(+	c #006101",
"_+	c #008901",
":+	c #009D0B",
"<+	c #00B813",
"[+	c #009500",
"}+	c #009300",
"                                            ",
"              . + @ # $ % & * =             ",
"            - ; > , ' ) ! ~ { { ]           ",
"        ^ / ( _ : < [ } | > : 1 2 3 4       ",
"  5 6 7 8 9 0 a b c d e f , < g h i j > k   ",
"  l > m 9 } n o p q r s t u v w q x p y z   ",
"  A > ( v B C D E F G H I J K L M N E 1 O   ",
"    P 8 Q L R S T U V W X Y Z `  ...+.@.#.  ",
"    #.$.%.U &.*.q =.-.;.>.,.'.).!.~.{.8     ",
"      ].Q ~.^./.(._.:.<.[.` }.|.1.2.3.4.    ",
"      5.6.7.8.9.n 0.a.E M b.c.d.e.f.g.h.    ",
"        i.j.k.l.q m.n.x ,.o.p.q.o.,.x r.    ",
"        s.{.t.u.v.w.x.v.U y.z.A.B.C.D.      ",
"        E.h F.G.0 H.I.+.r J.1.K.f.L.M.      ",
"          N.O.: P.Q.R.6.F S.T.U.V.W.X.      ",
"          Y.Z.> `. +.+++@+..C V.Q #+$+      ",
"            %+> &+*+=+#+v q -++.;+>+        ",
"            ,+'+)+!+> m p h X ~+G.{+        ",
"            ]+> ^+/+(+_+:+<+b y > [+        ",
"              }+.             - l .         ",
"                                            ",
"                                            "};
