/* XPM */
static char * reload_b_2_1_22_xpm[] = {
"22 22 176 2",
"  	c None",
". 	c #5D9BB4",
"+ 	c #67A2BC",
"@ 	c #6FA7C5",
"# 	c #6EA5C2",
"$ 	c #66A2BC",
"% 	c #5B9AB3",
"& 	c #72A9C5",
"* 	c #A3C7EC",
"= 	c #A3C9EE",
"- 	c #A1C7EC",
"; 	c #70A7C2",
"> 	c #9AC2E4",
", 	c #9BC2E7",
"' 	c #82B2D1",
") 	c #9FC5E8",
"! 	c #96BFE3",
"~ 	c #9FC5EA",
"{ 	c #5393A9",
"] 	c #2B7E8E",
"^ 	c #268799",
"/ 	c #327A8B",
"( 	c #A0C7EB",
"_ 	c #9AC2E7",
": 	c #6BA0BC",
"< 	c #30808E",
"[ 	c #2A94A6",
"} 	c #2AA1B5",
"| 	c #2699AE",
"1 	c #216D79",
"2 	c #8CB7D8",
"3 	c #88B5D5",
"4 	c #80B0CE",
"5 	c #8AB5D7",
"6 	c #6FA8C3",
"7 	c #86B3D2",
"8 	c #378593",
"9 	c #389FAB",
"0 	c #39B5C4",
"a 	c #2DA5B8",
"b 	c #269AB0",
"c 	c #228394",
"d 	c #258497",
"e 	c #248599",
"f 	c #1D8195",
"g 	c #1C7D93",
"h 	c #1C768A",
"i 	c #397E91",
"j 	c #6AA5C0",
"k 	c #327C8B",
"l 	c #3DAFBA",
"m 	c #40BDCB",
"n 	c #34AEBF",
"o 	c #2CA4B7",
"p 	c #299FB4",
"q 	c #259BB0",
"r 	c #2297AD",
"s 	c #1E92A9",
"t 	c #1B8EA6",
"u 	c #1889A3",
"v 	c #14859F",
"w 	c #137C95",
"x 	c #2B7584",
"y 	c #A1C6EB",
"z 	c #5E9DB7",
"A 	c #98BFE3",
"B 	c #498EA1",
"C 	c #2E8494",
"D 	c #2A9DAE",
"E 	c #2AA0B5",
"F 	c #269DB1",
"G 	c #2399AE",
"H 	c #217685",
"I 	c #2B8092",
"J 	c #2A7E91",
"K 	c #297D90",
"L 	c #297D8F",
"M 	c #297A8C",
"N 	c #5091A7",
"O 	c #599AB3",
"P 	c #6AA3BF",
"Q 	c #8EB9D9",
"R 	c #3A8396",
"S 	c #288393",
"T 	c #2297AB",
"U 	c #2195AC",
"V 	c #1E6B77",
"W 	c #65A2BB",
"X 	c #73ABC7",
"Y 	c #7EAECC",
"Z 	c #327E90",
"` 	c #2A8091",
" .	c #307A8A",
"..	c #6DA6C1",
"+.	c #79ADCC",
"@.	c #96C0E3",
"#.	c #2E7A8A",
"$.	c #2E8292",
"%.	c #498DA2",
"&.	c #9CC4E7",
"*.	c #6EA7C2",
"=.	c #287C8B",
"-.	c #2793A6",
";.	c #2C7A8A",
">.	c #6CA3BE",
",.	c #68A3BE",
"'.	c #63A0B9",
").	c #5F9EB4",
"!.	c #4094A1",
"~.	c #4196A5",
"{.	c #3F94A3",
"].	c #3D91A0",
"^.	c #378898",
"/.	c #27808E",
"(.	c #2CA3B7",
"_.	c #29A0B4",
":.	c #259CB0",
"<.	c #258496",
"[.	c #358090",
"}.	c #8CB8DA",
"|.	c #5F9BB6",
"1.	c #2F7A88",
"2.	c #3CB4C1",
"3.	c #3EBBC9",
"4.	c #39B4C4",
"5.	c #33ACBE",
"6.	c #2BA2B6",
"7.	c #289FB3",
"8.	c #269CB1",
"9.	c #2398AE",
"0.	c #1E8DA2",
"a.	c #257584",
"b.	c #7EB1D0",
"c.	c #317A8A",
"d.	c #2791A2",
"e.	c #289AAC",
"f.	c #2899AC",
"g.	c #2798AA",
"h.	c #2696A9",
"i.	c #2495AA",
"j.	c #2196AC",
"k.	c #1F93AA",
"l.	c #1D90A8",
"m.	c #218092",
"n.	c #317B8C",
"o.	c #6DA4C0",
"p.	c #90BADB",
"q.	c #5D99B2",
"r.	c #5895AD",
"s.	c #5795AD",
"t.	c #4E8FA5",
"u.	c #1F6E7C",
"v.	c #1D91A8",
"w.	c #1C8EA7",
"x.	c #1B859B",
"y.	c #287786",
"z.	c #649EB6",
"A.	c #64A0B9",
"B.	c #9AC1E4",
"C.	c #21707D",
"D.	c #18859F",
"E.	c #22798B",
"F.	c #418699",
"G.	c #99C1E4",
"H.	c #5E9BB5",
"I.	c #5F99B3",
"J.	c #41879D",
"K.	c #629FB9",
"L.	c #88B7D7",
"M.	c #85B4D4",
"N.	c #5495AD",
"O.	c #6AA4BF",
"P.	c #84B5D5",
"Q.	c #9BC4E6",
"R.	c #84B4D3",
"S.	c #6BA4C0",
"                                            ",
"                . + @ # $ %                 ",
"            & * = = = = = = - ;             ",
"          > = = , ' ) = = = = = !           ",
"        - = ~ { ] ^ / = = = = = = (         ",
"      _ = : < [ } | 1 2 2 3 4 5 = = !       ",
"    6 7 8 9 0 a } b c d e f g h i = = j     ",
"    * k l m n o p q r s t u v w x = = y     ",
"  z = A B C D E F G H I J K L M N = = = O   ",
"  P = = = Q R S T U V = = = = = = = = = W   ",
"  X = = = = = Y Z `  .= = = = = = = = = ..  ",
"  +.= = = = = = = = = @.#.$.%.&.= = = = *.  ",
"  P = = = = = = = = = 3 =.o -.;.>.= = = ,.  ",
"  '.= = = = ).!.~.{.].^./.(._.:.<.[.}.= |.  ",
"    = = = = 1.2.3.4.5.a 6.7.8.9.U 0.a.4     ",
"    b.= = = c.d.e.f.g.h.i.9.j.k.l.m.n.o.    ",
"      * = = p.q.r.r.s.t.u.v.w.x.y.z.y       ",
"      A.= = = = = = = B.C.D.E.F.G.= H.      ",
"        + * = = = = = = I.J.4 = - K.        ",
"            L.= = = = = = = = M.            ",
"              N.O.P.Q._ R.S.                ",
"                                            "};
