/* XPM */
static char * repositories_22_xpm[] = {
"22 22 154 2",
"  	c None",
". 	c #000000",
"+ 	c #7EFFE3",
"@ 	c #030303",
"# 	c #3F4C48",
"$ 	c #567C72",
"% 	c #599F8F",
"& 	c #51B9A2",
"* 	c #49C8AC",
"= 	c #46CDAD",
"- 	c #4CC5A9",
"; 	c #55B29D",
"> 	c #65A797",
", 	c #070808",
"' 	c #394844",
") 	c #3A5B53",
"! 	c #2F6155",
"~ 	c #297765",
"{ 	c #1E8870",
"] 	c #1A9075",
"^ 	c #22846D",
"/ 	c #296B5B",
"( 	c #2A5047",
"_ 	c #43645D",
": 	c #060606",
"< 	c #1A1E1D",
"[ 	c #0D1412",
"} 	c #081B17",
"| 	c #041E18",
"1 	c #01211A",
"2 	c #051D18",
"3 	c #081814",
"4 	c #091210",
"5 	c #090D0C",
"6 	c #060707",
"7 	c #111514",
"8 	c #242D2B",
"9 	c #192824",
"0 	c #428072",
"a 	c #5DFFD9",
"b 	c #39FFD2",
"c 	c #39FFD0",
"d 	c #58FFD8",
"e 	c #6FE8CD",
"f 	c #5C998B",
"g 	c #0B0B0B",
"h 	c #18221F",
"i 	c #253935",
"j 	c #9BFFE8",
"k 	c #192C27",
"l 	c #428474",
"m 	c #72FFDF",
"n 	c #70FFDF",
"o 	c #7DFFE1",
"p 	c #7EE9D1",
"q 	c #64A596",
"r 	c #AEFFEC",
"s 	c #28302D",
"t 	c #1B2B27",
"u 	c #21423B",
"v 	c #79FFDF",
"w 	c #16312A",
"x 	c #3F8778",
"y 	c #87FFE3",
"z 	c #8EFFE4",
"A 	c #8DFFE6",
"B 	c #8AFFE4",
"C 	c #7AEAD1",
"D 	c #5CAF9C",
"E 	c #92FFE5",
"F 	c #384F49",
"G 	c #1C302C",
"H 	c #1F4A40",
"I 	c #4FFFD7",
"J 	c #10352D",
"K 	c #348E79",
"L 	c #84FFE3",
"M 	c #92FFE4",
"N 	c #8EFFE5",
"O 	c #7DFFE0",
"P 	c #61EECE",
"Q 	c #47C0A5",
"R 	c #6CFFDD",
"S 	c #41695F",
"T 	c #1B332D",
"U 	c #1E4C42",
"V 	c #3BFFD3",
"W 	c #06392D",
"X 	c #239278",
"Y 	c #7BFFE1",
"Z 	c #83FFE3",
"` 	c #64FFDC",
" .	c #3BF4CA",
"..	c #29D8B0",
"+.	c #45FFD5",
"@.	c #66FFDC",
"#.	c #437B6E",
"$.	c #69968C",
"%.	c #175245",
"&.	c #031410",
"*.	c #163E35",
"=.	c #498577",
"-.	c #579D8E",
";.	c #52B9A0",
">.	c #3CD4B0",
",.	c #19EBBC",
"'.	c #0BF2BD",
").	c #2DDCB5",
"!.	c #44BDA1",
"~.	c #3F7A6D",
"{.	c #699D92",
"].	c #4D7970",
"^.	c #162B27",
"/.	c #173C33",
"(.	c #040D0B",
"_.	c #182F2B",
":.	c #467167",
"<.	c #528F80",
"[.	c #4EAC96",
"}.	c #3EC9A8",
"|.	c #27DDB3",
"1.	c #1FDAAF",
"2.	c #33D0AC",
"3.	c #45B299",
"4.	c #4C8D7E",
"5.	c #112320",
"6.	c #3A7164",
"7.	c #9DFFE7",
"8.	c #A2FFE9",
"9.	c #8FFFE5",
"0.	c #6DFFDC",
"a.	c #48E7C4",
"b.	c #36B698",
"c.	c #5BFFD9",
"d.	c #77FFE1",
"e.	c #101A18",
"f.	c #385850",
"g.	c #89FFE5",
"h.	c #62D3B9",
"i.	c #418E7C",
"j.	c #7EFFE1",
"k.	c #0C0F0F",
"l.	c #2F3A36",
"m.	c #72B9A7",
"n.	c #3E665C",
"o.	c #010101",
"p.	c #020202",
"q.	c #0C0C0C",
"r.	c #232927",
"s.	c #303C39",
"t.	c #2E3C39",
"u.	c #2D3A37",
"v.	c #040404",
"w.	c #080808",
"                                            ",
"                                            ",
"        . . . . . . . . . . . . . .         ",
"        . .                       .         ",
"        . .                       .         ",
"        . .           +           .         ",
"        . @ # $ % & * = - ; >     .         ",
"  . . . . , ' ) ! ~ { ] ^ / ( _   . .       ",
"  .     : <   [ . } | 1 2 3 4 5 6 . . . .   ",
"  .     7 8   9 0 a b c d e f     g     .   ",
"  .     h i j k l m n m o p q r   s     .   ",
"  .     t u v w x y z A B C D E   F     .   ",
"  .     G H I J K L M N O P Q R o S     .   ",
"  .     T U V W X Y z Z `  ...+.@.#.$.  .   ",
"  .     G . %.&.*.=.-.;.>.,.'.).!.~.{.  .   ",
"  .     ].^./.(._.:.<.[.}.|.1.2.3.4.    .   ",
"  .           5.6.7.8.9.0.a.b.c.d.      .   ",
"  .           e.f.      g.h.i.j.        .   ",
"  .           k.l.        m.n.          .   ",
"  . . . . . o.o.p.o.q.r.s.t.u.          .   ",
"              . . . . . v.6 w.: . . . . .   ",
"                . . . . . . . . . . . . .   "};
