/* XPM */
static char * filesave_2_1_22_xpm[] = {
"22 22 269 2",
"  	c None",
". 	c #105F7F",
"+ 	c #115F82",
"@ 	c #1D5C79",
"# 	c #215C7B",
"$ 	c #215C7A",
"% 	c #215C78",
"& 	c #215B78",
"* 	c #1F5B79",
"= 	c #1E5A77",
"- 	c #1E5877",
"; 	c #1D5875",
"> 	c #1D5976",
", 	c #145A7A",
"' 	c #1C6A88",
") 	c #32758E",
"! 	c #2D7591",
"~ 	c #99683F",
"{ 	c #C28A42",
"] 	c #C18A42",
"^ 	c #C18A41",
"/ 	c #C08942",
"( 	c #C08841",
"_ 	c #BF8841",
": 	c #BF8740",
"< 	c #BD8540",
"[ 	c #B57A3A",
"} 	c #B47A3A",
"| 	c #64564C",
"1 	c #0D5578",
"2 	c #0C5879",
"3 	c #2A708B",
"4 	c #84919E",
"5 	c #47829A",
"6 	c #8C716B",
"7 	c #A47F71",
"8 	c #A27E70",
"9 	c #A17D6F",
"0 	c #9D7B6E",
"a 	c #9C796C",
"b 	c #9A786A",
"c 	c #9D7E70",
"d 	c #9E8173",
"e 	c #9C8071",
"f 	c #997D6F",
"g 	c #977B6E",
"h 	c #4C646E",
"i 	c #768E9F",
"j 	c #638699",
"k 	c #0B5D7D",
"l 	c #2F738F",
"m 	c #5C778B",
"n 	c #3F7B94",
"o 	c #9BBCC8",
"p 	c #C5D7DF",
"q 	c #C1D4DB",
"r 	c #AFC7D0",
"s 	c #A0BCC8",
"t 	c #9BB9C4",
"u 	c #A0BCC4",
"v 	c #9EB6C2",
"w 	c #9AB3BE",
"x 	c #96B0BA",
"y 	c #92ACB6",
"z 	c #93AAB7",
"A 	c #30718D",
"B 	c #315F79",
"C 	c #2F627D",
"D 	c #0C5B7C",
"E 	c #317B95",
"F 	c #4B8EA5",
"G 	c #3E829C",
"H 	c #9BBBC7",
"I 	c #C5D6DD",
"J 	c #C1D2D8",
"K 	c #5F8598",
"L 	c #27506B",
"M 	c #26506A",
"N 	c #264F6A",
"O 	c #254F69",
"P 	c #284E66",
"Q 	c #284D65",
"R 	c #284C65",
"S 	c #5D8192",
"T 	c #36748D",
"U 	c #0C5C7D",
"V 	c #357D98",
"W 	c #5092A8",
"X 	c #43869F",
"Y 	c #9ABAC7",
"Z 	c #C3D5DB",
"` 	c #BED1D7",
" .	c #94B1BD",
"..	c #7998A7",
"+.	c #7594A5",
"@.	c #7291A2",
"#.	c #6F8EA0",
"$.	c #6C8B9E",
"%.	c #698A9A",
"&.	c #638697",
"*.	c #7A97A6",
"=.	c #3A768F",
"-.	c #357E99",
";.	c #5293A9",
">.	c #4587A0",
",.	c #A3C0CB",
"'.	c #C2D3DA",
").	c #BBCFD5",
"!.	c #4F6C82",
"~.	c #4C6B80",
"{.	c #46697E",
"].	c #44687D",
"^.	c #43667B",
"/.	c #41657A",
"(.	c #406379",
"_.	c #698999",
":.	c #33728C",
"<.	c #347D96",
"[.	c #4E91A7",
"}.	c #42869F",
"|.	c #A0BDC8",
"1.	c #BDD0D6",
"2.	c #B8CBD2",
"3.	c #B4C7CE",
"4.	c #AFC3CA",
"5.	c #AABDC6",
"6.	c #A4B9C3",
"7.	c #A0B4BE",
"8.	c #9BB0BA",
"9.	c #96ACB6",
"0.	c #90A7B2",
"a.	c #8CA3AD",
"b.	c #33728B",
"c.	c #317A95",
"d.	c #4A8CA4",
"e.	c #468AA1",
"f.	c #3A7E97",
"g.	c #3D7E99",
"h.	c #3A7D98",
"i.	c #387B96",
"j.	c #357995",
"k.	c #327792",
"l.	c #30748F",
"m.	c #2E728E",
"n.	c #2B708C",
"o.	c #266E8A",
"p.	c #236B89",
"q.	c #216786",
"r.	c #186382",
"s.	c #2E7692",
"t.	c #4387A0",
"u.	c #4589A1",
"v.	c #468AA2",
"w.	c #4388A0",
"x.	c #3F859E",
"y.	c #3B819B",
"z.	c #367D98",
"A.	c #307994",
"B.	c #2B7591",
"C.	c #25708D",
"D.	c #1F6B89",
"E.	c #1A6685",
"F.	c #136181",
"G.	c #297490",
"H.	c #3B829B",
"I.	c #3E849D",
"J.	c #3C829C",
"K.	c #398099",
"L.	c #357D97",
"M.	c #307995",
"N.	c #2C7691",
"O.	c #27708F",
"P.	c #206D8A",
"Q.	c #1C6886",
"R.	c #166483",
"S.	c #105F80",
"T.	c #24718C",
"U.	c #347B97",
"V.	c #377E98",
"W.	c #367E98",
"X.	c #357B97",
"Y.	c #327A95",
"Z.	c #2F7893",
"`.	c #226E8B",
" +	c #1D6988",
".+	c #176584",
"++	c #206C8A",
"@+	c #2D7693",
"#+	c #2F7793",
"$+	c #2C6782",
"%+	c #475970",
"&+	c #607687",
"*+	c #5D7384",
"=+	c #5A7183",
"-+	c #566D7E",
";+	c #546A7B",
">+	c #506879",
",+	c #4D6476",
"'+	c #32465C",
")+	c #0D577A",
"!+	c #1B6987",
"~+	c #25627E",
"{+	c #8BA0AD",
"]+	c #6B7B8C",
"^+	c #1C2943",
"/+	c #546476",
"(+	c #9FB4BC",
"_+	c #99ADB6",
":+	c #92A7B1",
"<+	c #8CA1AA",
"[+	c #576B7D",
"}+	c #0D5677",
"|+	c #166682",
"1+	c #1E6988",
"2+	c #1E5E7A",
"3+	c #8C9FAB",
"4+	c #667888",
"5+	c #1C2942",
"6+	c #516173",
"7+	c #99AFB7",
"8+	c #92A7B0",
"9+	c #8CA2AB",
"0+	c #879DA6",
"a+	c #576E7E",
"b+	c #0E5575",
"c+	c #116180",
"d+	c #186584",
"e+	c #185976",
"f+	c #879BA7",
"g+	c #637585",
"h+	c #4F5F71",
"i+	c #93A8B2",
"j+	c #8298A1",
"k+	c #566E7D",
"l+	c #0B5C7D",
"m+	c #0F5E80",
"n+	c #0F5F80",
"o+	c #135271",
"p+	c #8295A2",
"q+	c #607283",
"r+	c #49596C",
"s+	c #8EA4AD",
"t+	c #889EA7",
"u+	c #8399A2",
"v+	c #7D939D",
"w+	c #586E7C",
"x+	c #0B5A7D",
"y+	c #0A5C7D",
"z+	c #0C5C7E",
"A+	c #0A5B7D",
"B+	c #104E6D",
"C+	c #6B7D8D",
"D+	c #6F8291",
"E+	c #617483",
"F+	c #667988",
"G+	c #718692",
"H+	c #6D828F",
"I+	c #697D8B",
"J+	c #647886",
"K+	c #44576A",
"L+	c #0D5576",
"M+	c #0B5B7E",
"N+	c #0B5C7F",
"O+	c #0B5C7E",
"P+	c #0C5E7D",
"Q+	c #0D5777",
"R+	c #104966",
"S+	c #124665",
"T+	c #0D5879",
"                                            ",
"                                            ",
"      . + @ # $ % % & * = - ; ; > ,         ",
"    ' ) ! ~ { ] ^ / ( _ : < [ } } | 1 2     ",
"    3 4 5 6 7 8 9 0 a b c d e f g h i j k   ",
"    l m n o p q r s t u v w x y z A B C D   ",
"    E F G H I J K L M N O P Q R S T U U D   ",
"    V W X Y Z `  ...+.@.#.$.%.&.*.=.U U D   ",
"    -.;.>.,.'.)...!.~.{.].^./.(._.:.U U D   ",
"    <.[.}.|.1.2.3.4.5.6.7.8.9.0.a.b.U U D   ",
"    c.d.e.f.g.h.i.j.k.l.m.n.o.p.q.r.U U D   ",
"    s.t.u.v.v.w.x.y.z.A.B.C.D.E.F.U U U D   ",
"    G.H.I.I.I.J.K.L.M.N.O.P.Q.R.S.U U U D   ",
"    T.U.z.V.W.X.Y.Z.B.O.`. +.+F.U U U U D   ",
"    ++@+#+Z.$+%+&+*+=+-+;+>+,+'+)+U U U D   ",
"    !+C.O.O.~+{+]+^+/+(+_+:+<+[+}+U U U D   ",
"    |+1+D.D.2+3+4+5+6+7+8+9+0+a+b+U U U D   ",
"    c+R..+d+e+f+g+5+h+i+9+0+j+k+b+U U U D   ",
"    l+m+n+S.o+p+q+5+r+s+t+u+v+w+b+U U x+y+  ",
"    z+A+l+l+B+C+D+E+F+G+H+I+J+K+L+M+N+O+    ",
"      O+P+P+Q+R+R+R+R+R+R+R+R+S+T+M+        ",
"                                            "};
