/* XPM */
static char * setbar_xpm[] = {
"22 22 164 2",
"  	c None",
". 	c #000000",
"+ 	c #020202",
"@ 	c #030304",
"# 	c #040404",
"$ 	c #030303",
"% 	c #010202",
"& 	c #070707",
"* 	c #393E46",
"= 	c #516079",
"- 	c #56729E",
"; 	c #5079B9",
"> 	c #487BCA",
", 	c #457BCF",
"' 	c #4A7BC6",
") 	c #5277B1",
"! 	c #607AA4",
"~ 	c #0B0C0D",
"{ 	c #353B44",
"] 	c #313C4D",
"^ 	c #283953",
"/ 	c #243F68",
"( 	c #1D4179",
"_ 	c #19427E",
": 	c #1F4074",
"< 	c #253D61",
"[ 	c #27354A",
"} 	c #3A4658",
"| 	c #272A31",
"1 	c #1F2125",
"2 	c #191E26",
"3 	c #0A0E16",
"4 	c #0D182A",
"5 	c #07172F",
"6 	c #041631",
"7 	c #0A172C",
"8 	c #0F1725",
"9 	c #0F151C",
"0 	c #0F1217",
"a 	c #0A0B0C",
"b 	c #010101",
"c 	c #111314",
"d 	c #262C33",
"e 	c #191E27",
"f 	c #374F74",
"g 	c #5692EF",
"h 	c #3881F1",
"i 	c #3580F1",
"j 	c #508FF0",
"k 	c #628FD4",
"l 	c #546B8E",
"m 	c #0E0F10",
"n 	c #1A1D22",
"o 	c #27303E",
"p 	c #91B7F1",
"q 	c #19202C",
"r 	c #3D577F",
"s 	c #71A8FF",
"t 	c #6BA5FF",
"u 	c #6EA7FF",
"v 	c #7AAEFF",
"w 	c #78A2E4",
"x 	c #5F78A1",
"y 	c #AACBFD",
"z 	c #1D232D",
"A 	c #223046",
"B 	c #70A3F3",
"C 	c #162030",
"D 	c #3C5882",
"E 	c #81B3FF",
"F 	c #89B7FF",
"G 	c #87B6FF",
"H 	c #76A2E6",
"I 	c #5979AC",
"J 	c #8EBAFE",
"K 	c #374150",
"L 	c #1F2633",
"M 	c #1E304D",
"N 	c #4B8EF4",
"O 	c #0F1E35",
"P 	c #345587",
"Q 	c #7FB1FF",
"R 	c #8FBBFF",
"S 	c #8AB8FF",
"T 	c #5E96EB",
"U 	c #4574BC",
"V 	c #68A2FE",
"W 	c #73A4EF",
"X 	c #3F4F6A",
"Y 	c #000101",
"Z 	c #1F2735",
"` 	c #1C3050",
" .	c #3983F4",
"..	c #081B37",
"+.	c #284E8A",
"@.	c #74AAFE",
"#.	c #8AB8FE",
"$.	c #7FB1FE",
"%.	c #619EFF",
"&.	c #3A83F2",
"*.	c #286CD3",
"=.	c #448DFE",
"-.	c #5F99F3",
";.	c #42587B",
">.	c #627591",
",.	c #1F2734",
"'.	c #0B131F",
").	c #173159",
"!.	c #040B16",
"~.	c #1A2A43",
"{.	c #476189",
"].	c #5773A1",
"^.	c #527ABA",
"/.	c #3C78D4",
"(.	c #1C6EE9",
"_.	c #1167E7",
":.	c #2C72DB",
"<.	c #4372BC",
"[.	c #40577D",
"}.	c #65799A",
"|.	c #47566E",
"1.	c #1C2636",
"2.	c #19273C",
"3.	c #05090E",
"4.	c #1C2432",
"5.	c #455773",
"6.	c #526A90",
"7.	c #4E73AD",
"8.	c #3E74C9",
"9.	c #266EDB",
"0.	c #1F67D5",
"a.	c #3371D1",
"b.	c #446FB3",
"c.	c #4D6893",
"d.	c #111823",
"e.	c #394C6A",
"f.	c #99C0FD",
"g.	c #9DC3FD",
"h.	c #8BB8FE",
"i.	c #6CA5FE",
"j.	c #4785E4",
"k.	c #3465B2",
"l.	c #5999FD",
"m.	c #73A9FE",
"n.	c #10141A",
"o.	c #374254",
"p.	c #5E8ACF",
"q.	c #3E5C8B",
"r.	c #0C0D0F",
"s.	c #2A2F36",
"t.	c #6A86B1",
"u.	c #3B4A63",
"v.	c #020303",
"w.	c #060606",
"x.	c #060707",
"y.	c #0D0E0F",
"z.	c #1E2024",
"A.	c #2B2F36",
"B.	c #2E353E",
"C.	c #2B313A",
"D.	c #070708",
"E.	c #090A0B",
"F.	c #0A0C0D",
"G.	c #0C0C0D",
"                                            ",
"                                            ",
"        . . . . . + @ # $ % . . . .         ",
"        . .                       .         ",
"        . .                       .         ",
"        . +                       .         ",
"        . & * = - ; > , ' ) !     +         ",
"  . . . . ~ { ] ^ / ( _ : < [ } | + .       ",
"  .     # 1   2 3 4 5 6 7 8 9 0 a b . . .   ",
"  .     c d   e f g h i j k l     m     .   ",
"  .     n o p q r s t u v w x y   |     .   ",
"  .     z A B C D E F F G H I J   K     .   ",
"  .     L M N O P Q R S v T U V W X     Y   ",
"  .     Z `  ...+.@.#.$.%.&.*.=.-.;.>.  b   ",
"  .     ,.'.).!.~.{.].^./.(._.:.<.[.}.  +   ",
"  .     |.1.2.3.4.5.6.7.8.9.0.a.b.c.    b   ",
"  .           d.e.f.g.h.i.j.k.l.m.      b   ",
"  .           n.o.        p.q.          .   ",
"  .           r.s.        t.u.          .   ",
"  . . . . v.w.% # x.y.z.A.B.C.          .   ",
"              . . . . $ D.E.F.G.x.b . . .   ",
"                . . . . . . . . . . . .     "};
