/* XPM */
static char * settings_22_xpm[] = {
"22 22 71 1",
" 	c None",
".	c #656565",
"+	c #4D4D4D",
"@	c #555555",
"#	c #B2B2B2",
"$	c #B7B7B7",
"%	c #767676",
"&	c #6C6C6C",
"*	c #545454",
"=	c #747474",
"-	c #737373",
";	c #6E6E6E",
">	c #6F6F6F",
",	c #9B9B9B",
"'	c #434343",
")	c #919191",
"!	c #121212",
"~	c #5B5B5B",
"{	c #7B7B7B",
"]	c #9D9D9D",
"^	c #2C2C2C",
"/	c #0E0E0E",
"(	c #030303",
"_	c #6B6B6B",
":	c #7F7F7F",
"<	c #464646",
"[	c #080808",
"}	c #333333",
"|	c #0F0F0F",
"1	c #010101",
"2	c #2F2F2F",
"3	c #1B1B1B",
"4	c #111111",
"5	c #616161",
"6	c #949494",
"7	c #6A6A6A",
"8	c #1D1D1D",
"9	c #2E2E2E",
"0	c #909090",
"a	c #BCBCBC",
"b	c #191919",
"c	c #494949",
"d	c #C8C8C8",
"e	c #5D5D5D",
"f	c #BBBBBB",
"g	c #A5A5A5",
"h	c #404040",
"i	c #5E5E5E",
"j	c #1F1F1F",
"k	c #161616",
"l	c #505050",
"m	c #707070",
"n	c #444444",
"o	c #060606",
"p	c #343434",
"q	c #131313",
"r	c #888888",
"s	c #8D8D8D",
"t	c #1E1E1E",
"u	c #BFBFBF",
"v	c #858585",
"w	c #050505",
"x	c #838383",
"y	c #595959",
"z	c #777777",
"A	c #808080",
"B	c #9C9C9C",
"C	c #AAAAAA",
"D	c #C0C0C0",
"E	c #B4B4B4",
"F	c #636363",
"                      ",
"     .+               ",
"    @#$               ",
"      %&              ",
"  *=  -;              ",
"  >, ')!              ",
"  ~${]^/(             ",
"   _:<[}}|            ",
"      12.*3           ",
"       45678          ",
"        90a&b         ",
"         c$de         ",
"          ~fgh        ",
"           i,%j       ",
"           klmno      ",
"            /phq2rs   ",
"             (!t6:uv  ",
"              wxy zA  ",
"               B  <*  ",
"               C2     ",
"               DEF    ",
"                .     "};
