/* XPM */
static char * sync_1_22_xpm[] = {
"22 22 60 1",
" 	c None",
".	c #2C2C00",
"+	c #282800",
"@	c #000000",
"#	c #5A5A00",
"$	c #C2C200",
"%	c #151500",
"&	c #353500",
"*	c #4F4F00",
"=	c #060600",
"-	c #C0C000",
";	c #C7C700",
">	c #5D5D00",
",	c #CFCF00",
"'	c #2A2A00",
")	c #EFEF00",
"!	c #5B5B00",
"~	c #070700",
"{	c #787800",
"]	c #7A7A00",
"^	c #111100",
"/	c #141400",
"(	c #090900",
"_	c #101000",
":	c #0E0E00",
"<	c #010100",
"[	c #7D7D00",
"}	c #0A0A00",
"|	c #020200",
"1	c #00836B",
"2	c #0B0B00",
"3	c #CDCD00",
"4	c #FCFC00",
"5	c #414100",
"6	c #00967A",
"7	c #00DDB3",
"8	c #808000",
"9	c #BFBF00",
"0	c #131300",
"a	c #00A284",
"b	c #00E5BA",
"c	c #030300",
"d	c #00AC8B",
"e	c #00E9BD",
"f	c #00B18F",
"g	c #00ECC0",
"h	c #004F40",
"i	c #005F4D",
"j	c #006D58",
"k	c #007962",
"l	c #008169",
"m	c #00876E",
"n	c #00D8B0",
"o	c #00F8C9",
"p	c #00896F",
"q	c #007F67",
"r	c #007660",
"s	c #006A56",
"t	c #005B4A",
"u	c #00FFCF",
"   .+ @#$%   &$*@     ",
"  =-;= >,    ')!   ~  ",
"   {]  ^/@   (_: <.[} ",
"   |<     1      2345 ",
"          67      890 ",
"          ab      ~|c ",
"          de          ",
"          fg          ",
"    hijklmnopmqrst    ",
"       uuuuuuuu       ",
"         uuuu         ",
"                      ",
"                      ",
"                      ",
"                      ",
"    @@@@@@@@@@@@@@    ",
"    @@@@@@@@@@@@@@    ",
"    @@@@@@@@@@@@@@    ",
"   @@@@@@@@@@@@@@@@@  ",
" @@@@@@@@@@@@@@@@@@@@ ",
" @@@@@@@@@@@@@@@@@@@@ ",
"                      "};
