/* XPM */
static char * sync_3_22_xpm[] = {
"22 22 31 1",
" 	c None",
".	c #00836B",
"+	c #00967A",
"@	c #00DCB3",
"#	c #00A384",
"$	c #00E5BA",
"%	c #001D17",
"&	c #00110E",
"*	c #00473A",
"=	c #00AC8B",
"-	c #00E9BD",
";	c #00483B",
">	c #003128",
",	c #00120F",
"'	c #00B18F",
")	c #00EBBF",
"!	c #007F67",
"~	c #005948",
"{	c #006C58",
"]	c #007761",
"^	c #00AB8B",
"/	c #00846C",
"(	c #00D9B0",
"_	c #00F7C8",
":	c #00886F",
"<	c #00866D",
"[	c #00A586",
"}	c #00755F",
"|	c #006A56",
"1	c #00FFCF",
"2	c #000000",
"                      ",
"                      ",
"                      ",
"          .           ",
"          +@          ",
"          #$      %   ",
"   &*     =-     ;    ",
"     >  , ')     !    ",
"     ~{]^/(_:<[}|     ",
"       11111111       ",
"         1111         ",
"                      ",
"                      ",
"                      ",
"                      ",
"    22222222222222    ",
"    22222222222222    ",
"    22222222222222    ",
"   22222222222222222  ",
" 22222222222222222222 ",
" 22222222222222222222 ",
"                      "};
