/* XPM */
static char * sync_2_22_xpm[] = {
"22 22 64 1",
" 	c None",
".	c #010100",
"+	c #00836B",
"@	c #000000",
"#	c #111100",
"$	c #656500",
"%	c #040400",
"&	c #00967A",
"*	c #00DDB3",
"=	c #080800",
"-	c #2D2D00",
";	c #7F7F00",
">	c #EAEA00",
",	c #181800",
"'	c #00A284",
")	c #00E5BA",
"!	c #363600",
"~	c #0C0C00",
"{	c #B8B800",
"]	c #B6B600",
"^	c #060600",
"/	c #3D3D00",
"(	c #6A6A00",
"_	c #00AC8B",
":	c #00E9BD",
"<	c #4C4C00",
"[	c #020200",
"}	c #333300",
"|	c #D3D300",
"1	c #B4B400",
"2	c #101000",
"3	c #A4A400",
"4	c #787800",
"5	c #00B18F",
"6	c #00ECC0",
"7	c #000605",
"8	c #FAFA00",
"9	c #7C7C00",
"0	c #E9E900",
"a	c #AAAA00",
"b	c #031912",
"c	c #0C1204",
"d	c #005F4D",
"e	c #006D58",
"f	c #007962",
"g	c #008169",
"h	c #00876E",
"i	c #00D8B0",
"j	c #00F8C9",
"k	c #00896F",
"l	c #152D14",
"m	c #7E7F01",
"n	c #393A01",
"o	c #005E4D",
"p	c #011510",
"q	c #424300",
"r	c #383800",
"s	c #000201",
"t	c #00FFCF",
"u	c #005646",
"v	c #009F81",
"w	c #004F40",
"x	c #003228",
"y	c #000100",
"                      ",
"                      ",
"                      ",
"        . +           ",
"    @  #$%&*      @   ",
"   =-  ;>,')  @   !~  ",
"  %{]^ /( _: @<[@}|12 ",
"   34  @  567<89 =0a  ",
"  7bcdefghijklmnopqrs ",
"       ttttttuvw x  y ",
"         tttt         ",
"                      ",
"                      ",
"                      ",
"                      ",
"    @@@@@@@@@@@@@@    ",
"    @@@@@@@@@@@@@@    ",
"    @@@@@@@@@@@@@@    ",
"   @@@@@@@@@@@@@@@@@  ",
" @@@@@@@@@@@@@@@@@@@@ ",
" @@@@@@@@@@@@@@@@@@@@ ",
"                      "};
