/* XPM */
static char * sync_a_22_xpm[] = {
"22 22 25 1",
" 	c None",
".	c #00836B",
"+	c #00967A",
"@	c #00DDB3",
"#	c #00A284",
"$	c #00E5BA",
"%	c #00AC8B",
"&	c #00E9BD",
"*	c #00B18F",
"=	c #00ECC0",
"-	c #004F40",
";	c #005F4D",
">	c #006D58",
",	c #007962",
"'	c #008169",
")	c #00876E",
"!	c #00D8B0",
"~	c #00F8C9",
"{	c #00896F",
"]	c #007F67",
"^	c #007660",
"/	c #006A56",
"(	c #005B4A",
"_	c #00FFCF",
":	c #000000",
"                      ",
"                      ",
"                      ",
"          .           ",
"          +@          ",
"          #$          ",
"          %&          ",
"          *=          ",
"    -;>,')!~{)]^/(    ",
"       ________       ",
"         ____         ",
"                      ",
"                      ",
"                      ",
"                      ",
"    ::::::::::::::    ",
"    ::::::::::::::    ",
"    ::::::::::::::    ",
"   :::::::::::::::::  ",
" :::::::::::::::::::: ",
" :::::::::::::::::::: ",
"                      "};
