/* XPM */
static char * useflags_22_xpm[] = {
"22 22 15 1",
" 	c None",
".	c #5631DF",
"+	c #031202",
"@	c #000000",
"#	c #4326B0",
"$	c #1D104D",
"%	c #392094",
"&	c #5530DE",
"*	c #532FD7",
"=	c #1F114F",
"-	c #000001",
";	c #382091",
">	c #5530DD",
",	c #4427B1",
"'	c #0C0720",
"       ..             ",
"   ++....   .         ",
"   ++.........        ",
"   ++.........        ",
"   ++.........        ",
"   ++.........        ",
"   ++.........        ",
"   ++.........    @@  ",
"   ++......... @@@@@@ ",
"   ++.........@@@@@@  ",
"   ++.....#$%&@@@@@   ",
"   ++...*=@@-;@@@     ",
"   ++ >,'@     @      ",
"   +                  ",
"   +                  ",
"   +                  ",
"   +                  ",
"   +                  ",
"   +                  ",
"   +                  ",
"   +                  ",
"                      "};
