/* XPM */
static char * button_ok_xpm[] = {
"16 16 29 1",
" 	c None",
".	c #104E2B",
"+	c #0D4A2A",
"@	c #15532C",
"#	c #357933",
"$	c #17562D",
"%	c #397E34",
"&	c #12502C",
"*	c #1D5D2E",
"=	c #428836",
"-	c #16542C",
";	c #16552D",
">	c #3E8435",
",	c #14522C",
"'	c #22622F",
")	c #418736",
"!	c #114E2B",
"~	c #408636",
"{	c #19582D",
"]	c #276830",
"^	c #3E8335",
"/	c #2E7032",
"(	c #327533",
"_	c #296B31",
":	c #2F7232",
"<	c #397D34",
"[	c #1A592D",
"}	c #3B7F35",
"|	c #13512C",
"                ",
"                ",
"                ",
"                ",
"             .+ ",
"            @#  ",
"  $$       $%&  ",
"  *=-     ;>,   ",
"   ')    !~{    ",
"    ]^   %'     ",
"     /( _:      ",
"      <[}       ",
"       ]|       ",
"                ",
"                ",
"                "};
