/* XPM */
static char * finish_22_xpm[] = {
"22 22 124 2",
"  	c None",
". 	c #61CD71",
"+ 	c #9EFF97",
"@ 	c #A4FF9D",
"# 	c #97F097",
"$ 	c #A8FFA2",
"% 	c #A7FFA1",
"& 	c #12823F",
"* 	c #37A257",
"= 	c #A2FE9C",
"- 	c #ABFFA5",
"; 	c #B0FFAA",
"> 	c #83DA8B",
", 	c #B4FFAE",
"' 	c #B2FFAC",
") 	c #AFFFA9",
"! 	c #298F45",
"~ 	c #75D07E",
"{ 	c #B5FFB0",
"] 	c #B9FFB4",
"^ 	c #399B4F",
"/ 	c #B5F9B1",
"( 	c #BBFFB6",
"_ 	c #B7FFB1",
": 	c #57A865",
"< 	c #9CE998",
"[ 	c #B6FFB1",
"} 	c #BCFFB7",
"| 	c #C0FFBB",
"1 	c #74BD7B",
"2 	c #C0FEBC",
"3 	c #BEFFB9",
"4 	c #B8FFB3",
"5 	c #81C17C",
"6 	c #AFF7A9",
"7 	c #C1FFBD",
"8 	c #77B977",
"9 	c #9FDB9A",
"0 	c #C3FFBF",
"a 	c #BFFFBA",
"b 	c #8FC683",
"c 	c #A1D591",
"d 	c #B8FDB2",
"e 	c #C0FFBC",
"f 	c #C5FFC1",
"g 	c #94C886",
"h 	c #BBF2B2",
"i 	c #C4FFBF",
"j 	c #BEFFBA",
"k 	c #B7FFB2",
"l 	c #ACD593",
"m 	c #B7E6A1",
"n 	c #BEFEB9",
"o 	c #C8FFC4",
"p 	c #ACD691",
"q 	c #C4FCBE",
"r 	c #BDFFB8",
"s 	c #B6FFB0",
"t 	c #C1E19E",
"u 	c #C5F2AD",
"v 	c #C4FFC0",
"w 	c #C8FFC5",
"x 	c #CAFFC6",
"y 	c #C1E39C",
"z 	c #C6FEC1",
"A 	c #C2FFBD",
"B 	c #BAFFB5",
"C 	c #D3EBA5",
"D 	c #CBF9B8",
"E 	c #D0EFA6",
"F 	c #C4FEBF",
"G 	c #B2FFAD",
"H 	c #CFF9B5",
"I 	c #D9EFA3",
"J 	c #C6FEBE",
"K 	c #B3FFAD",
"L 	c #C3FFBE",
"M 	c #C7FFC3",
"N 	c #CBFEC4",
"O 	c #DCFEB9",
"P 	c #C4FDA6",
"Q 	c #BCFFB8",
"R 	c #C7FEC2",
"S 	c #E2F8AC",
"T 	c #C5FDAE",
"U 	c #CFF5AF",
"V 	c #BBFDB2",
"W 	c #DAF3A1",
"X 	c #C3F9B6",
"Y 	c #CCE79C",
"Z 	c #BBFEB5",
"` 	c #C7F0A2",
" .	c #BFFDBA",
"..	c #B8DE95",
"+.	c #BBFFB7",
"@.	c #B8F2A5",
"#.	c #B1FFAC",
"$.	c #A8DE95",
"%.	c #B4FBAE",
"&.	c #AFDA8F",
"*.	c #AAEDA3",
"=.	c #8DC579",
"-.	c #B5FEAF",
";.	c #9CD58A",
">.	c #A9FFA3",
",.	c #B2FEAD",
"'.	c #71B86D",
").	c #B3FFAE",
"!.	c #99E393",
"~.	c #82BF76",
"{.	c #A4FF9E",
"].	c #AAFFA3",
"^.	c #66BB6F",
"/.	c #59A95F",
"(.	c #ADFFA7",
"_.	c #ACFFA7",
":.	c #A1F59D",
"<.	c #64B068",
"[.	c #85E988",
"}.	c #53B869",
"|.	c #359550",
"1.	c #77D883",
"2.	c #7DDB84",
"3.	c #4AA65F",
"                                            ",
"    . + @         # $ %                     ",
"  & * = - ;       > , ' )                   ",
"    ! ~ ) { ]     ^ / ( _                   ",
"      : < [ } |     1 2 3 4                 ",
"        5 6 } 7     8 9 0 a 4               ",
"        b c d e f     g h i j k             ",
"          l m n f o     p q 0 r s           ",
"            t u v w x     y z A B           ",
"              C D o x x     E F r G         ",
"                H o x x     I J 3 K         ",
"                L M N O       0 ( P         ",
"              Q 0 R S       v a T           ",
"            k 3 0 U       v | V W           ",
"            ] | X Y     0 e Z `             ",
"          s }  ...      e +.@.              ",
"        #.4 r $.      | } %.&.              ",
"        ' k *.=.    } B -.;.                ",
"      >.; ,.'.      [ ).!.~.                ",
"    + {.].^./.    (._.:.<.                  ",
"      [.}.|.      1.2.3.                    ",
"                                            "};
