/* XPM */
static char * packages_22_xpm[] = {
"22 22 211 2",
"  	c None",
". 	c #003100",
"+ 	c #002F00",
"@ 	c #007E00",
"# 	c #003800",
"$ 	c #006800",
"% 	c #117024",
"& 	c #0D491D",
"* 	c #007500",
"= 	c #008300",
"- 	c #005400",
"; 	c #005500",
"> 	c #048200",
", 	c #088502",
"' 	c #106C14",
") 	c #178614",
"! 	c #0F4911",
"~ 	c #184C1F",
"{ 	c #0F5718",
"] 	c #0F6E23",
"^ 	c #10850F",
"/ 	c #1B8D07",
"( 	c #198E07",
"_ 	c #107B05",
": 	c #002E00",
"< 	c #003F00",
"[ 	c #148A06",
"} 	c #269109",
"| 	c #278D1B",
"1 	c #247E12",
"2 	c #268F18",
"3 	c #177A13",
"4 	c #114D0D",
"5 	c #1F8D15",
"6 	c #2A8E16",
"7 	c #2F8316",
"8 	c #38851D",
"9 	c #388522",
"0 	c #2C8426",
"a 	c #23900A",
"b 	c #044C02",
"c 	c #007000",
"d 	c #0A8604",
"e 	c #2C940D",
"f 	c #429E13",
"g 	c #438C26",
"h 	c #499E1F",
"i 	c #3B8D18",
"j 	c #277F0F",
"k 	c #156B0A",
"l 	c #318815",
"m 	c #499E1B",
"n 	c #58A521",
"o 	c #60A824",
"p 	c #5DA624",
"q 	c #4D9B1F",
"r 	c #347F1E",
"s 	c #006600",
"t 	c #003C00",
"u 	c #008100",
"v 	c #128B06",
"w 	c #399B12",
"x 	c #5AA81A",
"y 	c #5F9B26",
"z 	c #6BA926",
"A 	c #5C9E1E",
"B 	c #409414",
"C 	c #2D8C0E",
"D 	c #23630C",
"E 	c #64AB21",
"F 	c #7BB429",
"G 	c #8ABA2E",
"H 	c #86B82D",
"I 	c #6BAC27",
"J 	c #4A9229",
"K 	c #379812",
"L 	c #118906",
"M 	c #007F00",
"N 	c #005900",
"O 	c #128906",
"P 	c #3C9A11",
"Q 	c #65AB1D",
"R 	c #75A829",
"S 	c #90B72E",
"T 	c #88B52B",
"U 	c #65AB1F",
"V 	c #49A017",
"W 	c #358F11",
"X 	c #417215",
"Y 	c #92BA2F",
"Z 	c #B6CD3B",
"` 	c #AFCA39",
" .	c #81AF2C",
"..	c #65AA25",
"+.	c #449D16",
"@.	c #198C07",
"#.	c #003D00",
"$.	c #097E04",
"%.	c #359810",
"&.	c #539D28",
"*.	c #7AAC29",
"=.	c #ACC537",
"-.	c #B8CE3A",
";.	c #87BA2A",
">.	c #62AB1E",
",.	c #48A017",
"'.	c #35820F",
").	c #759D26",
"!.	c #BACD3B",
"~.	c #B3CA3A",
"{.	c #84B02E",
"].	c #6DAE22",
"^.	c #449E16",
"/.	c #136705",
"(.	c #003200",
"_.	c #24910A",
":.	c #408B24",
"<.	c #67A323",
"[.	c #98BE32",
"}.	c #B8CB3A",
"|.	c #98C131",
"1.	c #6EB021",
"2.	c #52A319",
"3.	c #3F9C12",
"4.	c #3A7313",
"5.	c #8DBA2D",
"6.	c #89B92D",
"7.	c #6AA026",
"8.	c #559A1A",
"9.	c #379111",
"0.	c #075102",
"a.	c #2F801C",
"b.	c #4A9619",
"c.	c #71B024",
"d.	c #8EBC2E",
"e.	c #86B32A",
"f.	c #69A91F",
"g.	c #51A41A",
"h.	c #3D9A12",
"i.	c #329410",
"j.	c #3B7013",
"k.	c #60A81F",
"l.	c #4B9B20",
"m.	c #398911",
"n.	c #0F4006",
"o.	c #13610C",
"p.	c #2F9312",
"q.	c #4FA11A",
"r.	c #6AAE23",
"s.	c #74B224",
"t.	c #66A41E",
"u.	c #499617",
"v.	c #379910",
"w.	c #278D0D",
"x.	c #23620C",
"y.	c #3D9115",
"z.	c #2E8A0F",
"A.	c #175908",
"B.	c #053708",
"C.	c #147F09",
"D.	c #329512",
"E.	c #4DA01A",
"F.	c #5EA91D",
"G.	c #68AD20",
"H.	c #68A922",
"I.	c #2D640E",
"J.	c #2B6E0E",
"K.	c #369713",
"L.	c #248712",
"M.	c #0E6505",
"N.	c #007200",
"O.	c #035508",
"P.	c #198112",
"Q.	c #339015",
"R.	c #479A18",
"S.	c #518F19",
"T.	c #6C8B22",
"U.	c #91B731",
"V.	c #4D821B",
"W.	c #23760F",
"X.	c #10740E",
"Y.	c #002800",
"Z.	c #003300",
"`.	c #035A01",
" +	c #0F7105",
".+	c #20850A",
"++	c #336D10",
"@+	c #69952A",
"#+	c #84B032",
"$+	c #75A92C",
"%+	c #579921",
"&+	c #307A15",
"*+	c #073811",
"=+	c #005F00",
"-+	c #0C5103",
";+	c #22650B",
">+	c #54A51A",
",+	c #68AD21",
"'+	c #6DAF23",
")+	c #65AB20",
"!+	c #4EA219",
"~+	c #217422",
"{+	c #115D05",
"]+	c #30960F",
"^+	c #409B14",
"/+	c #3D9A13",
"(+	c #083A02",
"_+	c #0D5203",
":+	c #077402",
"<+	c #004200",
"[+	c #003500",
"                                            ",
"                                            ",
"                                            ",
"              .         + @ #               ",
"            $ % &       * = = -             ",
"        ; > , ' ) ! ~ { ] ^ / ( _ :         ",
"    < @ [ } | 1 2 3 4 5 6 7 8 9 0 a b       ",
"  c   d e f g h i j k l m n o p q r a s     ",
"  t u v w x y z A B C D E F G H I J K L M   ",
"    N O P Q R S T U V W X Y Z `  ...+.@.#.  ",
"      $.%.&.*.=.-.;.>.,.'.).!.~.{.].^./.    ",
"      (._.:.<.[.}.|.1.2.3.4.5.6.7.8.9.      ",
"        0.a.b.c.d.e.f.g.h.i.j.k.l.m.n.      ",
"          o.p.q.r.s.t.u.v.w.x.y.z.A.        ",
"          B.C.D.E.F.G.H.I.J.K.L.M.          ",
"          N.O.P.Q.R.S.T.U.V.W.X.Y.          ",
"        Z.= `. +.+++@+#+$+%+&+*+            ",
"            =+-+;+>+,+'+)+!+~+              ",
"                {+]+^+^./+e (+              ",
"                    _+( [ :+                ",
"                        <+[+                ",
"                                            "};
