/* XPM */
static char * quit_22_xpm[] = {
"22 22 54 1",
" 	c None",
".	c #000000",
"+	c #020000",
"@	c #030000",
"#	c #880000",
"$	c #E30000",
"%	c #F00000",
"&	c #A90000",
"*	c #950000",
"=	c #FE0101",
"-	c #A70101",
";	c #990000",
">	c #EF0101",
",	c #D00000",
"'	c #520000",
")	c #FC0101",
"!	c #900000",
"~	c #570000",
"{	c #F90000",
"]	c #870000",
"^	c #AF0000",
"/	c #DF0101",
"(	c #A40000",
"_	c #EF0000",
":	c #EE0000",
"<	c #9B0101",
"[	c #680000",
"}	c #FF0000",
"|	c #FD0101",
"1	c #770000",
"2	c #F70000",
"3	c #760000",
"4	c #FF0101",
"5	c #BA0101",
"6	c #DD0000",
"7	c #920000",
"8	c #FE0000",
"9	c #740000",
"0	c #F20000",
"a	c #FD0000",
"b	c #B90000",
"c	c #D50101",
"d	c #9C0000",
"e	c #F60000",
"f	c #590000",
"g	c #7E0000",
"h	c #480000",
"i	c #8E0000",
"j	c #FA0101",
"k	c #DE0000",
"l	c #E40000",
"m	c #C50000",
"n	c #050000",
"o	c #070000",
"                      ",
"                      ",
"  ..................  ",
"  ........+@........  ",
"  ..     #$%&     ..  ",
"  ..    *=-;>,    ..  ",
"  ..   ')!  ~{]   ..  ",
"  ..   ^/    (_   ..  ",
"  ..   :<    [}   ..  ",
"  ..   |1     23  ..  ",
"  ..   4  5   67  ..  ",
"  ..   4      67  ..  ",
"  ..   89     01  ..  ",
"  ..   0*     a   ..  ",
"  ..   bc    de   ..  ",
"  ..   fag  h_i   ..  ",
"  ..    &j*#kl    ..  ",
"  ..     d{8m     ..  ",
"  ..      no.     ..  ",
"  ..................  ",
"                      ",
"                      "};
