/* XPM */
static char * selections_22_xpm[] = {
"22 22 24 1",
" 	c None",
".	c #FF0000",
"+	c #75FF6B",
"@	c #EC210D",
"#	c #A6A344",
"$	c #FA0803",
"%	c #A7A244",
"&	c #8FCD56",
"*	c #F90A04",
"=	c #BF7431",
"-	c #77FA68",
";	c #7CF064",
">	c #7FEB62",
",	c #C26F2E",
"'	c #79F767",
")	c #76FC69",
"!	c #C36D2E",
"~	c #FD0301",
"{	c #A4A746",
"]	c #77FA69",
"^	c #90CC55",
"/	c #DF3918",
"(	c #76FB69",
"_	c #FB0703",
"                      ",
"                      ",
"                      ",
"              ... ++  ",
"   ..        ... +++  ",
"    ..      ... +++   ",
"    ...    ... +++    ",
"     ...  ...  ++     ",
"      ..  ..  ++      ",
"      .....  +++      ",
"       .... +++       ",
"    ++ ...@+++        ",
"    ++#..$%++         ",
"     +&* =-;          ",
"     >-, ')!          ",
"    ~{+]++^$.         ",
"    ./(+++ ...        ",
"   .._)++   ..        ",
"   ..  ++   ...       ",
"   .         ..       ",
"                      ",
"                      "};
