/* XPM */
static char * setbar_22_xpm[] = {
"22 22 3 1",
" 	c None",
".	c #FF0000",
"+	c #11240F",
"                      ",
"                      ",
" ...........          ",
"                      ",
"  .........           ",
"                      ",
"                      ",
"  .........           ",
"                      ",
"                      ",
" ++++++++++++++++++++ ",
"                      ",
"                      ",
"                      ",
"                      ",
"                      ",
"                      ",
"                      ",
"                      ",
"                      ",
"                      ",
"                      "};
