/* XPM */
static char * undo_22_xpm[] = {
"22 22 324 2",
"  	c None",
". 	c #105F7F",
"+ 	c #115F82",
"@ 	c #1D5C79",
"# 	c #215C7B",
"$ 	c #215C7A",
"% 	c #215C78",
"& 	c #215B78",
"* 	c #1F5B79",
"= 	c #1E5A77",
"- 	c #1E5877",
"; 	c #1D5875",
"> 	c #1D5976",
", 	c #145A7A",
"' 	c #1C6A88",
") 	c #337B95",
"! 	c #2E7692",
"~ 	c #99683F",
"{ 	c #C28A42",
"] 	c #C18A42",
"^ 	c #C18A41",
"/ 	c #C08942",
"( 	c #C08841",
"_ 	c #BF8841",
": 	c #BF8740",
"< 	c #BD8540",
"[ 	c #B57A3A",
"} 	c #B47A3A",
"| 	c #64564C",
"1 	c #0B5B7E",
"2 	c #0B5C7E",
"3 	c #2B7590",
"4 	c #3E849D",
"5 	c #357D98",
"6 	c #8C716B",
"7 	c #A47F71",
"8 	c #A27E70",
"9 	c #A17D6F",
"0 	c #9D7B6E",
"a 	c #9C796C",
"b 	c #9A786A",
"c 	c #9D7E70",
"d 	c #9E8173",
"e 	c #9C8071",
"f 	c #997D6F",
"g 	c #977B6E",
"h 	c #4C646E",
"i 	c #0C5C7D",
"j 	c #0B5D7D",
"k 	c #2F7793",
"l 	c #4589A1",
"m 	c #3A819B",
"n 	c #9BBCC8",
"o 	c #638397",
"p 	c #4E7186",
"q 	c #4D7084",
"r 	c #4C6E84",
"s 	c #688999",
"t 	c #AEC4CB",
"u 	c #A9BDC8",
"v 	c #A5BAC3",
"w 	c #A0B7BF",
"x 	c #9CB2BB",
"y 	c #96ACB8",
"z 	c #30718D",
"A 	c #0C5B7C",
"B 	c #317B95",
"C 	c #4B8EA5",
"D 	c #3E829C",
"E 	c #9BBBC7",
"F 	c #8CA8B6",
"G 	c #809FAD",
"H 	c #7C9BAC",
"I 	c #7A99A8",
"J 	c #8AA7B3",
"K 	c #ADC1CA",
"L 	c #A7BCC4",
"M 	c #4A9B64",
"N 	c #95B1B4",
"O 	c #9AB0B9",
"P 	c #93ABB6",
"Q 	c #36748D",
"R 	c #5092A8",
"S 	c #43869F",
"T 	c #9ABAC7",
"U 	c #547488",
"V 	c #3E6075",
"W 	c #3D5F74",
"X 	c #3C5E73",
"Y 	c #5D7D8F",
"Z 	c #A7BDC4",
"` 	c #5BA763",
" .	c #48A343",
"..	c #93AFB2",
"+.	c #96ACB7",
"@.	c #91A8B3",
"#.	c #3A768F",
"$.	c #357E99",
"%.	c #5293A9",
"&.	c #4587A0",
"*.	c #A3C0CB",
"=.	c #158739",
"-.	c #87A5B4",
";.	c #84A1B1",
">.	c #809FAF",
",.	c #86A7AD",
"'.	c #57A65B",
").	c #ABE336",
"!.	c #62B245",
"~.	c #72A493",
"{.	c #7DA59F",
"].	c #8CA6AF",
"^.	c #33728C",
"/.	c #347D96",
"(.	c #4E91A7",
"_.	c #42869F",
":.	c #9CBBC4",
"<.	c #168839",
"[.	c #B7CBD1",
"}.	c #B4C7CE",
"|.	c #A0BDBA",
"1.	c #57A953",
"2.	c #B6EA35",
"3.	c #C4F235",
"4.	c #AEE436",
"5.	c #90D239",
"6.	c #80C53E",
"7.	c #60AE46",
"8.	c #3C964C",
"9.	c #19755F",
"0.	c #0C5D7D",
"a.	c #317A95",
"b.	c #4A8CA4",
"c.	c #468AA1",
"d.	c #338085",
"e.	c #3EA03C",
"f.	c #348088",
"g.	c #357D8D",
"h.	c #339642",
"i.	c #BCEE34",
"j.	c #C1F134",
"k.	c #C0F035",
"l.	c #BFEE35",
"m.	c #BEED36",
"n.	c #BEEC36",
"o.	c #BDEB35",
"p.	c #BCEB35",
"q.	c #8DCF38",
"r.	c #2E8D46",
"s.	c #0E6472",
"t.	c #4387A0",
"u.	c #3B8F74",
"v.	c #92D535",
"w.	c #3A9169",
"x.	c #3F859E",
"y.	c #379066",
"z.	c #6BB93E",
"A.	c #C1F035",
"B.	c #C0EF35",
"C.	c #76C03A",
"D.	c #54A940",
"E.	c #6EB93D",
"F.	c #9DD735",
"G.	c #BAE934",
"H.	c #B9E834",
"I.	c #B0E235",
"J.	c #369640",
"K.	c #297490",
"L.	c #3B829B",
"M.	c #378E68",
"N.	c #B1E735",
"O.	c #429E4C",
"P.	c #398099",
"Q.	c #357D97",
"R.	c #2E8277",
"S.	c #4BA542",
"T.	c #B9EB35",
"U.	c #4CA444",
"V.	c #1C6986",
"W.	c #166977",
"X.	c #1F785D",
"Y.	c #359444",
"Z.	c #A6DD35",
"`.	c #B6E635",
" +	c #9DD635",
".+	c #319837",
"++	c #24718C",
"@+	c #347B97",
"#+	c #367D98",
"$+	c #32896D",
"%+	c #A7E234",
"&+	c #6DBC3E",
"*+	c #2E7D84",
"=+	c #2F7893",
"-+	c #2B7591",
";+	c #277583",
">+	c #3A9746",
",+	c #3D9B40",
"'+	c #176584",
")+	c #136181",
"!+	c #0D5E79",
"~+	c #3C9744",
"{+	c #B5E535",
"]+	c #B6E636",
"^+	c #45A336",
"/+	c #206C8A",
"(+	c #2D7693",
"_+	c #297A7C",
":+	c #89CE37",
"<+	c #BBEC34",
"[+	c #45934E",
"}+	c #5D7384",
"|+	c #5A7183",
"1+	c #566D7E",
"2+	c #526B78",
"3+	c #2B824C",
"4+	c #4D6476",
"5+	c #32465C",
"6+	c #0D577A",
"7+	c #228054",
"8+	c #A8DD36",
"9+	c #B6E436",
"0+	c #4CA738",
"a+	c #1B6987",
"b+	c #25708D",
"c+	c #27708F",
"d+	c #27718A",
"e+	c #56AA3F",
"f+	c #C2F136",
"g+	c #74BE45",
"h+	c #90B7A9",
"i+	c #A6BBC3",
"j+	c #9FB4BC",
"k+	c #99ADB6",
"l+	c #92A7B1",
"m+	c #8CA1AA",
"n+	c #576B7D",
"o+	c #0D5677",
"p+	c #187461",
"q+	c #94D036",
"r+	c #B5E336",
"s+	c #4AA737",
"t+	c #166682",
"u+	c #1E6988",
"v+	c #1F6B89",
"w+	c #389248",
"x+	c #C0EF36",
"y+	c #C1EE37",
"z+	c #55A84D",
"A+	c #93B0B1",
"B+	c #99AFB7",
"C+	c #92A7B0",
"D+	c #8CA2AB",
"E+	c #879DA6",
"F+	c #576E7E",
"G+	c #0E5575",
"H+	c #28854F",
"I+	c #AADC36",
"J+	c #B4E236",
"K+	c #40A038",
"L+	c #116180",
"M+	c #166483",
"N+	c #186584",
"O+	c #1B6866",
"P+	c #76BF40",
"Q+	c #B6E737",
"R+	c #4FA250",
"S+	c #89A5A8",
"T+	c #8298A1",
"U+	c #566E7D",
"V+	c #197361",
"W+	c #69B53D",
"X+	c #B2E036",
"Y+	c #9CD437",
"Z+	c #0B5C7D",
"`+	c #0F5E80",
" @	c #0F5F80",
".@	c #105F80",
"+@	c #135271",
"@@	c #539762",
"#@	c #9FD83A",
"$@	c #BFEC37",
"%@	c #B1E436",
"&@	c #5AAA49",
"*@	c #5B9B6D",
"=@	c #759695",
"-@	c #7A939A",
";@	c #4F7173",
">@	c #29834D",
",@	c #6CB63D",
"'@	c #B0DE37",
")@	c #429D3E",
"!@	c #0C5C7E",
"~@	c #0A5B7D",
"{@	c #104E6D",
"]@	c #697E8C",
"^@	c #4B9855",
"/@	c #A1D937",
"(@	c #BCE936",
"_@	c #BAE835",
":@	c #A5DB37",
"<@	c #70B73E",
"[@	c #58A840",
"}@	c #6CB33B",
"|@	c #A7DA36",
"1@	c #5CAD3C",
"2@	c #0C5E7D",
"3@	c #0D5777",
"4@	c #104966",
"5@	c #104B65",
"6@	c #2D8743",
"7@	c #77BF39",
"8@	c #B6E734",
"9@	c #B6E634",
"0@	c #B5E236",
"a@	c #A5D936",
"b@	c #47A13D",
"c@	c #3D9E36",
"d@	c #50A937",
"e@	c #57AD36",
"f@	c #60B336",
"g@	c #54AC37",
"h@	c #49A637",
"i@	c #339938",
"                                            ",
"                                            ",
"      . + @ # $ % % & * = - ; ; > ,         ",
"    ' ) ! ~ { ] ^ / ( _ : < [ } } | 1 2     ",
"    3 4 5 6 7 8 9 0 a b c d e f g h i i j   ",
"    k l m n o p q r s t u v w x y z i i A   ",
"    B C D E F G H I J K L M N O P Q i i A   ",
"    5 R S T U V W X Y Z `  ...+.@.#.i i A   ",
"    $.%.&.*.=.-.;.>.,.'.).!.~.{.].^.i i A   ",
"    /.(._.:.<.[.}.|.1.2.3.4.5.6.7.8.9.0.A   ",
"    a.b.c.d.e.f.g.h.i.j.k.l.m.n.o.p.q.r.s.  ",
"    ! t.l u.v.w.x.y.z.A.B.C.D.E.F.G.H.I.J.  ",
"    K.L.4 M.N.O.P.Q.R.S.T.U.V.W.X.Y.Z.`. +.+",
"    ++@+#+$+%+&+*+=+-+;+>+,+'+)+i !+~+{+]+^+",
"    /+(+k _+:+<+[+}+|+1+2+3+4+5+6+i 7+8+9+0+",
"    a+b+c+d+e+f+g+h+i+j+k+l+m+n+o+i p+q+r+s+",
"    t+u+v+v+w+x+y+z+A+B+C+D+E+F+G+i H+I+J+K+",
"    L+M+'+N+O+P+y+Q+R+S+D+E+T+U+G+V+W+X+Y+  ",
"    Z+`+ @.@+@@@#@$@%@&@*@=@-@;@>@,@X+'@)@  ",
"    !@~@Z+Z+{@]@^@/@(@_@:@<@[@}@|@X+'@1@    ",
"      2 2@2@3@4@5@6@7@8@9@{+r+J+0@a@b@      ",
"                      c@d@e@f@g@h@i@        "};
